<svg xmlns="http://www.w3.org/2000/svg" viewBox="0 0 80 80"><defs><style>.cls-8{fill:#343434}</style></defs><g id="Layer_2" data-name="Layer 2"><g id="Layer_1-2" data-name="Layer 1"><rect width="80" height="80" rx="4.12" style="fill:#fd0"/><rect x="3.62" y="3.62" width="72.76" height="72.76" rx="3.75" style="fill:#fff"/><path d="M3.72 58.49v8.81a11.44 11.44 0 0 1 10.77 9.37h8.88A20.25 20.25 0 0 0 3.72 58.49Z" style="opacity:.6;fill:#00b1a9"/><path style="fill:#fcb017;opacity:.6" d="m72.83 46.34-5.78 3.34 5.78 3.34v-6.68z"/><path style="opacity:.6;fill:#fd0" d="m20.41 10.26-5.78 3.33 5.78 3.34v-6.67z"/><circle cx="70.32" cy="10.07" r="4.21" style="fill:#00ace7;opacity:.6"/><g id="Layer_1-2-2" data-name="Layer 1-2"><path style="fill:none" d="M3.87 3.87h72.26v72.26H3.87z"/><path class="cls-8" d="M50.49 31.21a5.54 5.54 0 0 0-.91 2h17.18V45.8a13.54 13.54 0 0 1-13.53 13.51H46.4a4.56 4.56 0 0 1-.54 0h-3.41v2h10.78a15.5 15.5 0 0 0 15.49-15.5v-14.6Z"/><path class="cls-8" d="M53.25 25A21.53 21.53 0 0 0 32 15c-.22 0-15.51.16-19 13a5.44 5.44 0 0 0 1.49 5.2l.64.66a3.58 3.58 0 0 1 1.05 2.51V55.8a5.54 5.54 0 0 0 5.54 5.52h24.14a5.52 5.52 0 0 0 5.52-5.52V34.5a3.45 3.45 0 0 1 .26-1.32 3.7 3.7 0 0 1 .78-1.18 5.21 5.21 0 0 0 .66-.76 5.54 5.54 0 0 0 .17-6.24Zm-3.67 8.17a5.64 5.64 0 0 0-.15 1.3V55.8a3.57 3.57 0 0 1-3 3.51 4.56 4.56 0 0 1-.54 0H21.78a3.58 3.58 0 0 1-3.58-3.51V36.33a5.48 5.48 0 0 0-1.62-3.9l-.67-.68a3.43 3.43 0 0 1-1.12-3.29C17.92 17.1 31.27 16.92 32 16.92a19.88 19.88 0 0 1 19.55 9.19 3.57 3.57 0 0 1-.55 4.46 5.62 5.62 0 0 0-.55.64 5.54 5.54 0 0 0-.87 1.97Z"/><circle class="cls-8" cx="40.4" cy="25.89" r="1.28"/><circle class="cls-8" cx="38.47" cy="29.08" r="1.28"/><circle class="cls-8" cx="43.59" cy="29.08" r="1.28"/><circle class="cls-8" cx="26.73" cy="48.41" r="1.28"/><circle class="cls-8" cx="24.81" cy="51.6" r="1.28"/><circle class="cls-8" cx="29.92" cy="51.6" r="1.28"/><path class="cls-8" d="M67.94 49.51h-1.19v-13.1h2.51a4.36 4.36 0 0 1 4.36 4.35v3.07a5.68 5.68 0 0 1-5.68 5.68Zm.78-11.14v9.1a3.7 3.7 0 0 0 2.93-3.64v-3.07a2.39 2.39 0 0 0-2.39-2.39Z"/></g></g></g></svg>