<svg xmlns="http://www.w3.org/2000/svg" viewBox="0 0 80 80"><defs><style>.cls-8{fill:#343434}</style></defs><g id="Layer_2" data-name="Layer 2"><g id="Layer_1-2" data-name="Layer 1"><rect width="80" height="80" rx="4.12" style="fill:#fd0"/><rect x="3.62" y="3.62" width="72.76" height="72.76" rx="3.75" style="fill:#fff"/><path d="M76.28 21.61V12.8a11.44 11.44 0 0 1-10.77-9.38h-8.88a20.25 20.25 0 0 0 19.65 18.19Z" style="opacity:.6;fill:#00b1a9"/><path style="fill:#fcb017;opacity:.6" d="m68.92 66-5.78 3.34 5.78 3.34V66z"/><path style="opacity:.6;fill:#fd0" d="m41.63 7.42-5.78 3.34 5.78 3.34V7.42z"/><circle cx="10.95" cy="67.58" r="4.21" style="fill:#00ace7;opacity:.6"/><g id="Layer_1-2-2" data-name="Layer 1-2"><path style="fill:none" d="M3 3h74v74H3z"/><path class="cls-8" d="M55 61.83H21.6A11.69 11.69 0 0 1 9.93 50.15a1 1 0 0 1 1-1h54.72a1 1 0 0 1 1 1A11.67 11.67 0 0 1 55 61.83ZM12 51.16a9.7 9.7 0 0 0 9.62 8.66H55a9.68 9.68 0 0 0 9.66-8.66Z"/><path class="cls-8" d="M57.25 50.05a6.72 6.72 0 0 0-2.76-4.93c-3.7-2.55-9.76-1.12-9.82-1.12l-1.05.25-.17-1.07a6.17 6.17 0 0 0-5.28-4.88c-8.12-.2-8.59 4.75-8.59 4.81V44h-.89c-8 .31-8 5.63-8 5.86h-2.03A7.37 7.37 0 0 1 20.72 45a10.49 10.49 0 0 1 7.05-2.91c.57-1.85 2.65-6 10.54-5.76a8.23 8.23 0 0 1 6.89 5.55 15.12 15.12 0 0 1 10.42 1.6 8.56 8.56 0 0 1 3.62 6.31Z"/><path class="cls-8" d="M20 47.69a5.16 5.16 0 1 1 7.91-4.52h-2.09A3.17 3.17 0 1 0 21 45.94ZM53.75 36.63h-1.42a1 1 0 0 1-.78-.37L39.22 20.45a1 1 0 0 1 .15-1.39 1 1 0 0 1 .63-.21h26.09a1 1 0 0 1 .9.55 1 1 0 0 1-.1 1.05L54.55 36.26a1.1 1.1 0 0 1-.8.37Zm-.92-2.06h.43L64 20.78H42Z"/><path class="cls-8" d="M53.05 43.27a1 1 0 0 1-1-1v-6.63a1 1 0 0 1 1-1 1 1 0 0 1 1 1v6.64a1 1 0 0 1-1 1Z"/><circle class="cls-8" cx="53.71" cy="25.47" r=".72"/><circle class="cls-8" cx="53.59" cy="27.58" r=".72"/><circle class="cls-8" cx="56.16" cy="26.23" r=".72"/><circle class="cls-8" cx="39.53" cy="41.81" r=".86"/><circle class="cls-8" cx="38.21" cy="43.99" r=".86"/><circle class="cls-8" cx="41.71" cy="43.99" r=".86"/><path class="cls-8" d="m31.45 26.58 3.66 10.67a1 1 0 0 1-1.87.74l-4.48-10.28a1.45 1.45 0 0 1 .76-1.91 1.43 1.43 0 0 1 1.89.75s.04-.01.04.03ZM43.27 50.28a4.59 4.59 0 0 1 .25-2.59 5.15 5.15 0 0 1 9.94 2.59L51.41 50a3.14 3.14 0 0 0-2.06-3.43 3.18 3.18 0 0 0-4.1 1.85 2.72 2.72 0 0 0-.14 1.52Z"/></g></g></g></svg>