<svg xmlns="http://www.w3.org/2000/svg" viewBox="0 0 80 80"><defs><style>.cls-8{fill:#343434}</style></defs><g id="Layer_2" data-name="Layer 2"><g id="Layer_1-2" data-name="Layer 1"><rect width="80" height="80" rx="4.12" style="fill:#fd0"/><rect x="3.62" y="3.62" width="72.76" height="72.76" rx="3.75" style="fill:#fff"/><path d="M67 76.48v-.1a11.44 11.44 0 0 1 9.37-10.67v-8.88A20.24 20.24 0 0 0 58.2 76.38v.1Z" style="opacity:.6;fill:#00b1a9"/><path style="fill:#fcb017;opacity:.6" d="m54.01 15.17 5.79-3.34-5.79-3.33v6.67z"/><path style="opacity:.6;fill:#fd0" d="m36.51 72.78 5.78-3.34-5.78-3.34v6.68z"/><circle cx="11.74" cy="11.41" r="4.21" style="fill:#00ace7;opacity:.6"/><g id="Layer_1-2-2" data-name="Layer 1-2"><path style="fill:none" d="M4.12 4.12h71.76v71.76H4.12z"/><path class="cls-8" d="M61.93 61.17H49.57a3.11 3.11 0 0 1-3.11-3.11v-.12l2-.1v.32a1.16 1.16 0 0 0 1.16 1.16h12.31a1.14 1.14 0 0 0 1.13-.94.81.81 0 0 0 0-.22V24.27H48.33v5h-2v-7h18.59v35.89a2.15 2.15 0 0 1 0 .62 3.07 3.07 0 0 1-2.99 2.39Z"/><path class="cls-8" d="M37.73 61.17h-3.55a21.75 21.75 0 0 1-21.77-21.73v-6H59.5v6a21.74 21.74 0 0 1-11.15 19 3.39 3.39 0 0 1-.56.32 21.51 21.51 0 0 1-10.06 2.41ZM14.36 35.26v4.14A19.77 19.77 0 0 0 25 57a19.56 19.56 0 0 0 9.15 2.24h3.55A20 20 0 0 0 46.92 57l.44-.26a20 20 0 0 0 10.2-17.34v-4.1Z"/><path class="cls-8" d="m18.43 34.7-1.77-.7a10 10 0 0 1 12-5.86 11.28 11.28 0 0 1 7.71-3.59 10 10 0 0 1 7.22 3.71 16.53 16.53 0 0 1 6 .5 8.07 8.07 0 0 1 5.7 5.24l-1.83.6a6.19 6.19 0 0 0-4.51-4 14.68 14.68 0 0 0-5.44-.42 1.43 1.43 0 0 1-1.14-.42 8.29 8.29 0 0 0-6-3.29 9.33 9.33 0 0 0-6.54 3.25 1.32 1.32 0 0 1-1.49.32c-6.76-2.32-9.77 4.38-9.91 4.66Z"/><path class="cls-8" d="M30 28.54a1 1 0 0 1-1.69 1l-5.88-9.28a1.39 1.39 0 0 1 .37-1.94l.09-.06a1.37 1.37 0 0 1 1.91.32"/><circle class="cls-8" cx="37.31" cy="28.1" r=".84"/><circle class="cls-8" cx="36.03" cy="30.21" r=".84"/><circle class="cls-8" cx="39.42" cy="30.21" r=".84"/><circle class="cls-8" cx="58.18" cy="29.34" r=".7"/><circle class="cls-8" cx="57.12" cy="31.11" r=".7"/><circle class="cls-8" cx="59.93" cy="31.11" r=".7"/></g></g></g></svg>