<?xml version="1.0" encoding="utf-8"?>
<!-- Generator: Adobe Illustrator 26.0.1, SVG Export Plug-In . SVG Version: 6.00 Build 0)  -->
<svg version="1.1" id="Layer_1" xmlns="http://www.w3.org/2000/svg" xmlns:xlink="http://www.w3.org/1999/xlink" x="0px" y="0px"
	 viewBox="0 0 1080 804.5" style="enable-background:new 0 0 1080 804.5;" xml:space="preserve">
<style type="text/css">
	.st0{fill:#26743A;}
	.st1{fill:#009444;}
	.st2{opacity:0.5;}
	.st3{fill:#231F20;}
	.st4{opacity:0.5;fill:#231F20;}
	.st5{fill:none;stroke:#26743A;stroke-width:1.5041;stroke-miterlimit:10;}
	.st6{fill:none;stroke:#231F20;stroke-width:0.376;stroke-miterlimit:10;}
	.st7{fill:none;stroke:#231F20;stroke-width:0.7608;stroke-miterlimit:10;}
	.st8{fill:#FFFFFF;}
	.st9{fill:#FFD42E;}
</style>
<g>
	<g>
		<g>
			<g>
				<path class="st0" d="M348,757.5c-50.8-8.1-98.6-30.8-137.8-66.1c-50.5-45.6-95.8-119.9-61-230.3
					c65.9-209.2,365.2-243.9,501.4-195.7c216.5,76.7,315.8,387.2,18.2,487.9C594.9,778.3,428.6,770.4,348,757.5z"/>
			</g>
		</g>
		<g>
			<g>
				<path class="st0" d="M954.1,273c-38.9-38.9-105.1-45.1-139-0.1c-17.2,22.7-18.2,55.4-12.3,73.2
					c18.5,55.6,107.3,142.3,172.4,79.7C1017.4,385.3,996.9,315.9,954.1,273z"/>
			</g>
		</g>
		<g>
			<g>
				<path class="st0" d="M993.2,435.2c-0.2,0-0.4-0.1-0.6-0.2c-0.4-0.3-0.4-0.9-0.1-1.3c1.1-1.3,2.1-2.7,3.1-4
					c0.3-0.4,0.8-0.5,1.2-0.2c0.4,0.3,0.4,0.9,0.2,1.3c-1,1.4-2,2.8-3.1,4.1C993.7,435.1,993.5,435.2,993.2,435.2z M1000,425.6
					c-0.2,0-0.3,0-0.5-0.1c-0.4-0.3-0.5-0.8-0.3-1.3c0.9-1.5,1.8-3,2.6-4.6c0.2-0.4,0.8-0.6,1.2-0.3c0.4,0.2,0.6,0.8,0.3,1.2
					c-0.8,1.6-1.7,3.2-2.7,4.7C1000.6,425.4,1000.3,425.6,1000,425.6z M1005.6,414.9c-0.1,0-0.2,0-0.4-0.1c-0.4-0.2-0.6-0.7-0.4-1.2
					c0.7-1.6,1.4-3.3,2-4.9c0.2-0.5,0.7-0.7,1.1-0.5c0.4,0.2,0.7,0.7,0.5,1.2c-0.6,1.7-1.3,3.4-2,5
					C1006.2,414.7,1005.9,414.9,1005.6,414.9z M1009.7,403.6c-0.1,0-0.2,0-0.3,0c-0.5-0.1-0.7-0.7-0.6-1.1c0.5-1.7,0.9-3.4,1.3-5.2
					c0.1-0.5,0.6-0.8,1-0.7c0.5,0.1,0.7,0.6,0.6,1.1c-0.4,1.8-0.9,3.5-1.4,5.3C1010.4,403.3,1010.1,403.6,1009.7,403.6z
					 M1012.4,391.7c0,0-0.1,0-0.1,0c-0.5-0.1-0.8-0.5-0.7-1c0.3-1.7,0.5-3.5,0.7-5.3c0.1-0.5,0.5-0.9,0.9-0.8c0.5,0.1,0.8,0.5,0.8,1
					c-0.2,1.8-0.4,3.6-0.7,5.4C1013.1,391.4,1012.8,391.7,1012.4,391.7z M1013.5,379.6C1013.5,379.6,1013.5,379.6,1013.5,379.6
					c-0.5,0-0.9-0.4-0.9-0.9c0.1-1.5,0.1-3,0.1-4.5c0-0.3,0-0.6,0-0.9c0-0.5,0.4-0.9,0.8-0.9c0,0,0,0,0,0c0.5,0,0.8,0.4,0.9,0.9
					c0,0.3,0,0.6,0,0.9c0,1.5,0,3.1-0.1,4.6C1014.4,379.2,1014,379.6,1013.5,379.6z M1013.4,367.4c-0.4,0-0.8-0.4-0.8-0.8
					c-0.1-1.8-0.3-3.6-0.5-5.4c-0.1-0.5,0.3-0.9,0.8-1c0.5-0.1,0.9,0.3,0.9,0.8c0.2,1.8,0.3,3.7,0.5,5.4
					C1014.3,366.9,1013.9,367.4,1013.4,367.4C1013.4,367.4,1013.4,367.4,1013.4,367.4z M1012,355.3c-0.4,0-0.8-0.3-0.8-0.8
					c-0.3-1.7-0.6-3.5-0.9-5.3c-0.1-0.5,0.2-1,0.7-1.1c0.5-0.1,0.9,0.2,1,0.7c0.3,1.8,0.7,3.6,0.9,5.4c0.1,0.5-0.2,1-0.7,1
					C1012.1,355.3,1012.1,355.3,1012,355.3z M1009.7,343.3c-0.4,0-0.7-0.3-0.8-0.7c-0.4-1.7-0.9-3.5-1.3-5.2c-0.1-0.5,0.1-1,0.6-1.1
					c0.5-0.1,0.9,0.1,1.1,0.6c0.5,1.8,0.9,3.5,1.3,5.3c0.1,0.5-0.2,1-0.6,1.1C1009.8,343.3,1009.8,343.3,1009.7,343.3z
					 M1006.5,331.6c-0.4,0-0.7-0.2-0.8-0.6c-0.5-1.7-1.1-3.4-1.7-5.1c-0.2-0.5,0.1-1,0.5-1.2c0.4-0.2,0.9,0.1,1.1,0.5
					c0.6,1.7,1.2,3.5,1.7,5.2c0.1,0.5-0.1,1-0.5,1.1C1006.7,331.6,1006.6,331.6,1006.5,331.6z M1002.5,320.1c-0.3,0-0.7-0.2-0.8-0.6
					c-0.6-1.7-1.3-3.3-2-5c-0.2-0.5,0-1,0.4-1.2c0.4-0.2,0.9,0,1.1,0.5c0.7,1.7,1.4,3.4,2,5c0.2,0.5,0,1-0.5,1.2
					C1002.7,320.1,1002.6,320.1,1002.5,320.1z M997.9,309c-0.3,0-0.6-0.2-0.8-0.5c-0.7-1.6-1.5-3.3-2.2-4.9c-0.2-0.4,0-1,0.4-1.2
					c0.4-0.2,0.9,0,1.1,0.4c0.8,1.6,1.5,3.3,2.3,4.9c0.2,0.5,0,1-0.4,1.2C998.1,308.9,998,309,997.9,309z M992.7,298.1
					c-0.3,0-0.6-0.2-0.7-0.5c-0.8-1.6-1.7-3.2-2.5-4.7c-0.2-0.4-0.1-1,0.3-1.2c0.4-0.3,0.9-0.1,1.2,0.3c0.8,1.5,1.7,3.1,2.5,4.8
					c0.2,0.4,0.1,1-0.3,1.2C992.9,298,992.8,298.1,992.7,298.1z M986.8,287.5c-0.3,0-0.6-0.1-0.7-0.4c-1.7-2.9-2.8-4.5-2.8-4.5
					c-0.3-0.4-0.2-1,0.2-1.3c0.4-0.3,0.9-0.2,1.2,0.2c0,0.1,1.1,1.7,2.9,4.6c0.3,0.4,0.1,1-0.3,1.2
					C987.1,287.5,987,287.5,986.8,287.5z"/>
			</g>
		</g>
		<g>
			<g>
				<path class="st0" d="M863.5,556.1c-3.8-48.7,30.9-90.1,76.7-83.7c27.2,3.8,40.4,20.8,48.6,34.7c25.5,43.2,26.8,145.3-49.2,145
					C886.1,651.8,867.7,609.9,863.5,556.1z"/>
			</g>
		</g>
		<g>
			<g>
				<path class="st1" d="M353.8,257.6c-0.6,0-1.1-0.4-1.3-1c-0.2-0.7,0.2-1.5,0.9-1.7c1.7-0.5,2.5-0.7,2.6-0.7
					c0.7-0.2,1.4,0.3,1.6,1c0.2,0.7-0.2,1.5-0.9,1.7c0,0-0.9,0.2-2.5,0.7C354.1,257.6,354,257.6,353.8,257.6z"/>
			</g>
			<g>
				<path class="st0" d="M151,413c-0.2,0-0.5-0.1-0.7-0.2c-0.6-0.4-0.8-1.3-0.4-1.9c1-1.6,1.9-3.2,2.9-4.8c0.4-0.6,1.2-0.8,1.8-0.4
					c0.6,0.4,0.8,1.3,0.4,1.9c-1,1.6-1.9,3.2-2.9,4.8C151.8,412.8,151.4,413,151,413z M158.4,401.1c-0.3,0-0.5-0.1-0.7-0.2
					c-0.6-0.4-0.7-1.3-0.3-1.9c1-1.6,2.1-3.1,3.1-4.7c0.4-0.6,1.2-0.8,1.8-0.3c0.6,0.5,0.7,1.3,0.3,1.9c-1,1.5-2.1,3.1-3.1,4.6
					C159.2,400.9,158.8,401.1,158.4,401.1z M166.3,389.6c-0.3,0-0.6-0.1-0.8-0.3c-0.6-0.5-0.7-1.3-0.2-2c1.1-1.5,2.2-3,3.3-4.5
					c0.5-0.6,1.3-0.7,1.8-0.2c0.6,0.5,0.7,1.4,0.2,2c-1.1,1.5-2.2,3-3.3,4.5C167.1,389.5,166.7,389.6,166.3,389.6z M174.7,378.5
					c-0.3,0-0.6-0.1-0.8-0.3c-0.6-0.5-0.6-1.4-0.2-2c1.1-1.4,2.3-2.9,3.5-4.3c0.5-0.6,1.3-0.6,1.9-0.1c0.5,0.5,0.6,1.4,0.1,2
					c-1.2,1.4-2.3,2.9-3.5,4.3C175.5,378.4,175.1,378.5,174.7,378.5z M183.6,367.8c-0.3,0-0.6-0.1-0.9-0.4c-0.5-0.5-0.6-1.4-0.1-2
					c1.2-1.4,2.5-2.8,3.7-4.2c0.5-0.6,1.3-0.6,1.9,0c0.5,0.5,0.5,1.4,0,2c-1.2,1.4-2.5,2.8-3.7,4.1
					C184.3,367.7,183.9,367.8,183.6,367.8z M192.9,357.6c-0.3,0-0.7-0.1-0.9-0.4c-0.5-0.5-0.5-1.4,0-2c1.3-1.3,2.6-2.7,3.9-4
					c0.5-0.5,1.4-0.5,1.9,0c0.5,0.6,0.5,1.4,0,2c-1.3,1.3-2.6,2.6-3.8,4C193.6,357.4,193.2,357.6,192.9,357.6z M202.6,347.7
					c-0.4,0-0.7-0.2-1-0.5c-0.5-0.6-0.5-1.4,0.1-2c1.3-1.3,2.7-2.6,4-3.8c0.5-0.5,1.4-0.5,1.9,0.1c0.5,0.6,0.4,1.5-0.1,2
					c-1.3,1.3-2.7,2.5-4,3.8C203.2,347.6,202.9,347.7,202.6,347.7z M212.7,338.3c-0.4,0-0.7-0.2-1-0.5c-0.5-0.6-0.4-1.5,0.2-2
					c1.4-1.2,2.8-2.5,4.1-3.7c0.6-0.5,1.4-0.4,1.8,0.2c0.5,0.6,0.4,1.5-0.2,2c-1.4,1.2-2.8,2.4-4.1,3.6
					C213.3,338.2,213,338.3,212.7,338.3z M223.1,329.3c-0.4,0-0.8-0.2-1-0.5c-0.4-0.6-0.3-1.5,0.2-2c1.4-1.2,2.8-2.3,4.3-3.5
					c0.6-0.5,1.4-0.3,1.8,0.3c0.4,0.6,0.3,1.5-0.3,2c-1.4,1.2-2.9,2.3-4.2,3.5C223.7,329.2,223.4,329.3,223.1,329.3z M233.9,320.7
					c-0.4,0-0.8-0.2-1.1-0.6c-0.4-0.6-0.3-1.5,0.3-1.9c1.5-1.1,2.9-2.2,4.4-3.3c0.6-0.4,1.4-0.3,1.8,0.3c0.4,0.6,0.3,1.5-0.3,1.9
					c-1.5,1.1-2.9,2.2-4.4,3.3C234.4,320.6,234.1,320.7,233.9,320.7z M244.9,312.5c-0.4,0-0.8-0.2-1.1-0.6c-0.4-0.6-0.2-1.5,0.4-1.9
					c1.5-1.1,3-2.1,4.5-3.2c0.6-0.4,1.4-0.2,1.8,0.4c0.4,0.6,0.2,1.5-0.4,1.9c-1.5,1-3,2.1-4.5,3.1
					C245.4,312.5,245.1,312.5,244.9,312.5z M256.2,304.8c-0.4,0-0.9-0.2-1.1-0.7c-0.4-0.7-0.2-1.5,0.4-1.9c1.5-1,3.1-2,4.6-3
					c0.6-0.4,1.4-0.2,1.8,0.5c0.4,0.7,0.2,1.5-0.4,1.9c-1.5,1-3.1,2-4.6,3C256.6,304.7,256.4,304.8,256.2,304.8z M267.7,297.4
					c-0.5,0-0.9-0.2-1.1-0.7c-0.4-0.7-0.1-1.5,0.5-1.9c1.5-0.9,3.1-1.9,4.7-2.8c0.6-0.4,1.4-0.1,1.8,0.5c0.4,0.7,0.1,1.5-0.5,1.9
					c-1.6,0.9-3.1,1.9-4.7,2.8C268.1,297.4,267.9,297.4,267.7,297.4z M279.4,290.5c-0.5,0-0.9-0.3-1.2-0.7c-0.3-0.7-0.1-1.5,0.5-1.9
					c1.6-0.9,3.2-1.8,4.8-2.7c0.6-0.4,1.4-0.1,1.8,0.6c0.3,0.7,0.1,1.5-0.6,1.9c-1.6,0.9-3.2,1.8-4.7,2.7
					C279.9,290.4,279.6,290.5,279.4,290.5z M291.4,284c-0.5,0-0.9-0.3-1.2-0.8c-0.3-0.7-0.1-1.5,0.6-1.9c1.6-0.8,3.2-1.7,4.8-2.5
					c0.7-0.3,1.4,0,1.8,0.7c0.3,0.7,0,1.5-0.6,1.9c-1.6,0.8-3.2,1.7-4.8,2.5C291.8,283.9,291.6,284,291.4,284z M303.5,277.8
					c-0.5,0-1-0.3-1.2-0.8c-0.3-0.7,0-1.5,0.6-1.8c1.6-0.8,3.3-1.6,4.9-2.3c0.7-0.3,1.4,0,1.7,0.7c0.3,0.7,0,1.5-0.7,1.8
					c-1.6,0.8-3.3,1.5-4.9,2.3C303.9,277.8,303.7,277.8,303.5,277.8z M315.9,272.1c-0.5,0-1-0.3-1.2-0.9c-0.3-0.7,0-1.5,0.7-1.8
					c1.7-0.7,3.3-1.5,5-2.2c0.7-0.3,1.4,0.1,1.7,0.8c0.3,0.7-0.1,1.5-0.7,1.8c-1.7,0.7-3.3,1.4-5,2.2
					C316.2,272.1,316,272.1,315.9,272.1z M328.3,266.8c-0.5,0-1-0.3-1.2-0.9c-0.3-0.7,0.1-1.5,0.8-1.8c1.7-0.7,3.4-1.4,5.1-2
					c0.7-0.3,1.4,0.1,1.7,0.8c0.2,0.7-0.1,1.5-0.8,1.8c-1.7,0.6-3.3,1.3-5,2C328.7,266.8,328.5,266.8,328.3,266.8z M341,261.9
					c-0.5,0-1.1-0.4-1.2-0.9c-0.2-0.7,0.1-1.5,0.8-1.8c1.7-0.6,3.5-1.2,5.1-1.8c0.7-0.2,1.4,0.2,1.7,0.9c0.2,0.7-0.2,1.5-0.8,1.8
					c-1.7,0.6-3.4,1.2-5.1,1.8C341.3,261.9,341.1,261.9,341,261.9z"/>
			</g>
			<g>
				<path class="st0" d="M145.5,422.7c-0.2,0-0.4-0.1-0.7-0.2c-0.6-0.4-0.8-1.2-0.5-1.9c0.4-0.8,0.9-1.6,1.3-2.4
					c0.4-0.7,1.2-0.9,1.8-0.5c0.6,0.4,0.8,1.2,0.5,1.9c-0.4,0.8-0.9,1.6-1.3,2.4C146.4,422.4,146,422.7,145.5,422.7z"/>
			</g>
		</g>
	</g>
</g>
<g class="st2">
	<g class="st2">
		<g>
			<path class="st3" d="M848.8,35.5l-14.5,25.3c0.2-1,0.5-1.9,0.8-2.9l11.6-20.4C847.4,36.8,848.1,36.2,848.8,35.5z"/>
		</g>
		<g>
			<path class="st3" d="M858.8,28.2l-26.1,45.7l0-0.5c0-0.4,0-0.7,0-1.1l24.8-43.4C858,28.6,858.4,28.4,858.8,28.2z"/>
		</g>
		<g>
			<path class="st3" d="M866.5,24.9l-33.1,57.9c-0.1-0.4-0.1-0.8-0.2-1.2l32.2-56.4C865.8,25.1,866.2,25,866.5,24.9z"/>
		</g>
		<g>
			<path class="st3" d="M873.3,23.3l-38.1,66.8c-0.1-0.3-0.2-0.7-0.3-1l37.4-65.7C872.6,23.4,873,23.3,873.3,23.3z"/>
		</g>
		<g>
			<path class="st3" d="M879.4,22.8l-41.9,73.5c-0.1-0.3-0.3-0.6-0.4-0.9l41.4-72.6C878.8,22.8,879.1,22.8,879.4,22.8z"/>
		</g>
		<g>
			<path class="st3" d="M884.2,23.1c0.3,0,0.5,0.1,0.8,0.1l-44.8,78.5c-0.1-0.3-0.3-0.5-0.4-0.8L884.2,23.1z"/>
		</g>
		<g>
			<path class="st3" d="M843.4,106.4c-0.2-0.2-0.3-0.4-0.5-0.7L887.8,27v1.5L843.4,106.4z"/>
		</g>
		<g>
			<path class="st3" d="M846.9,110.5c-0.2-0.2-0.4-0.4-0.5-0.6l41.5-72.7v1.5L846.9,110.5z"/>
		</g>
		<g>
			<path class="st3" d="M850.6,114.2c-0.2-0.2-0.4-0.4-0.6-0.5l37.7-66.2V49L850.6,114.2z"/>
		</g>
		<g>
			<path class="st3" d="M854.7,117.3c-0.2-0.1-0.4-0.3-0.6-0.4l33.7-59.1v1.5L854.7,117.3z"/>
		</g>
		<g>
			<path class="st3" d="M859,119.9c-0.2-0.1-0.4-0.2-0.6-0.4l29.4-51.6v1.5L859,119.9z"/>
		</g>
		<g>
			<path class="st3" d="M863.6,122.1c-0.2-0.1-0.5-0.2-0.7-0.3l24.9-43.6v1.5L863.6,122.1z"/>
		</g>
		<g>
			<path class="st3" d="M868.6,123.7C868.6,123.7,868.6,123.7,868.6,123.7c-0.2-0.1-0.5-0.1-0.7-0.2l20-35.1v1.5L868.6,123.7z"/>
		</g>
		<g>
			<path class="st3" d="M873.8,124.7c-0.3,0-0.5-0.1-0.8-0.1l14.8-26v1.5L873.8,124.7z"/>
		</g>
		<g>
			<polygon class="st3" points="879.4,125.2 878.5,125.1 887.8,108.9 887.8,110.4 			"/>
		</g>
		<g>
			<path class="st3" d="M884.5,124.9l3.3-5.8v1.5l-2.4,4.2C885.1,124.8,884.8,124.9,884.5,124.9z"/>
		</g>
	</g>
	<g class="st2">
		<g>
			<path class="st3" d="M926.8,112.2l14.5-25.3c-0.2,1-0.5,1.9-0.8,2.9l-11.6,20.4C928.2,110.8,927.5,111.5,926.8,112.2z"/>
		</g>
		<g>
			<path class="st3" d="M916.8,119.5l26.1-45.7l0,0.5c0,0.4,0,0.7,0,1.1L918,118.8C917.6,119,917.2,119.3,916.8,119.5z"/>
		</g>
		<g>
			<path class="st3" d="M909.1,122.8l33.1-57.9c0.1,0.4,0.1,0.8,0.2,1.2l-32.2,56.4C909.8,122.6,909.4,122.7,909.1,122.8z"/>
		</g>
		<g>
			<path class="st3" d="M902.3,124.4l38.1-66.8c0.1,0.3,0.2,0.7,0.3,1l-37.4,65.7C903,124.3,902.6,124.3,902.3,124.4z"/>
		</g>
		<g>
			<path class="st3" d="M896.2,124.8l41.9-73.5c0.1,0.3,0.3,0.6,0.4,0.9l-41.4,72.6C896.8,124.8,896.5,124.8,896.2,124.8z"/>
		</g>
		<g>
			<path class="st3" d="M891.4,124.6c-0.3,0-0.5-0.1-0.8-0.1L935.4,46c0.1,0.3,0.3,0.5,0.4,0.8L891.4,124.6z"/>
		</g>
		<g>
			<path class="st3" d="M932.2,41.3c0.2,0.2,0.3,0.4,0.5,0.7l-44.9,78.7v-1.5L932.2,41.3z"/>
		</g>
		<g>
			<path class="st3" d="M928.7,37.1c0.2,0.2,0.4,0.4,0.5,0.6l-41.5,72.7v-1.5L928.7,37.1z"/>
		</g>
		<g>
			<path class="st3" d="M925,33.5c0.2,0.2,0.4,0.4,0.6,0.5l-37.7,66.2v-1.5L925,33.5z"/>
		</g>
		<g>
			<path class="st3" d="M920.9,30.4c0.2,0.1,0.4,0.3,0.6,0.4l-33.7,59.1v-1.5L920.9,30.4z"/>
		</g>
		<g>
			<path class="st3" d="M916.6,27.7c0.2,0.1,0.4,0.2,0.6,0.4l-29.4,51.6v-1.5L916.6,27.7z"/>
		</g>
		<g>
			<path class="st3" d="M912,25.6c0.2,0.1,0.5,0.2,0.7,0.3l-24.9,43.6V68L912,25.6z"/>
		</g>
		<g>
			<path class="st3" d="M907.1,23.9C907.1,23.9,907.1,23.9,907.1,23.9c0.2,0.1,0.5,0.1,0.7,0.2l-20,35.1v-1.5L907.1,23.9z"/>
		</g>
		<g>
			<path class="st3" d="M901.8,22.9c0.3,0,0.5,0.1,0.8,0.1l-14.8,26v-1.5L901.8,22.9z"/>
		</g>
		<g>
			<polygon class="st3" points="896.2,22.5 897.1,22.5 887.8,38.8 887.8,37.3 			"/>
		</g>
		<g>
			<path class="st3" d="M891.1,22.8l-3.3,5.8v-1.5l2.4-4.2C890.5,22.8,890.8,22.8,891.1,22.8z"/>
		</g>
	</g>
</g>
<g class="st2">
	<g class="st2">
		<g>
			<path class="st3" d="M49.5,456.9l-5.1,8.9c0.1-0.3,0.2-0.7,0.3-1l4.1-7.1C49,457.4,49.2,457.2,49.5,456.9z"/>
		</g>
		<g>
			<path class="st3" d="M53,454.4l-9.1,16l0-0.2c0-0.1,0-0.3,0-0.4l8.6-15.2C52.7,454.5,52.8,454.5,53,454.4z"/>
		</g>
		<g>
			<path class="st3" d="M55.7,453.2l-11.5,20.2c0-0.1,0-0.3-0.1-0.4l11.2-19.7C55.4,453.3,55.6,453.3,55.7,453.2z"/>
		</g>
		<g>
			<path class="st3" d="M58,452.7L44.7,476c0-0.1-0.1-0.2-0.1-0.4l13.1-22.9C57.8,452.7,57.9,452.7,58,452.7z"/>
		</g>
		<g>
			<path class="st3" d="M60.2,452.5l-14.6,25.7c0-0.1-0.1-0.2-0.1-0.3l14.5-25.4C60,452.5,60.1,452.5,60.2,452.5z"/>
		</g>
		<g>
			<path class="st3" d="M61.9,452.6c0.1,0,0.2,0,0.3,0l-15.7,27.4c-0.1-0.1-0.1-0.2-0.2-0.3L61.9,452.6z"/>
		</g>
		<g>
			<path class="st3" d="M47.6,481.7c-0.1-0.1-0.1-0.1-0.2-0.2L63.1,454v0.5L47.6,481.7z"/>
		</g>
		<g>
			<path class="st3" d="M48.8,483.2c-0.1-0.1-0.1-0.1-0.2-0.2l14.5-25.4v0.5L48.8,483.2z"/>
		</g>
		<g>
			<path class="st3" d="M50.1,484.4c-0.1-0.1-0.1-0.1-0.2-0.2l13.2-23.1v0.5L50.1,484.4z"/>
		</g>
		<g>
			<path class="st3" d="M51.6,485.5c-0.1,0-0.1-0.1-0.2-0.1l11.8-20.6v0.5L51.6,485.5z"/>
		</g>
		<g>
			<path class="st3" d="M53.1,486.4c-0.1,0-0.1-0.1-0.2-0.1l10.3-18v0.5L53.1,486.4z"/>
		</g>
		<g>
			<path class="st3" d="M54.7,487.2c-0.1,0-0.2-0.1-0.2-0.1l8.7-15.2v0.5L54.7,487.2z"/>
		</g>
		<g>
			<path class="st3" d="M56.4,487.8C56.4,487.8,56.4,487.8,56.4,487.8c-0.1,0-0.2,0-0.3-0.1l7-12.3v0.5L56.4,487.8z"/>
		</g>
		<g>
			<path class="st3" d="M58.2,488.1c-0.1,0-0.2,0-0.3,0l5.2-9.1v0.5L58.2,488.1z"/>
		</g>
		<g>
			<polygon class="st3" points="60.2,488.3 59.9,488.3 63.1,482.6 63.1,483.1 			"/>
		</g>
		<g>
			<path class="st3" d="M62,488.2l1.2-2v0.5l-0.8,1.5C62.2,488.2,62.1,488.2,62,488.2z"/>
		</g>
	</g>
	<g class="st2">
		<g>
			<path class="st3" d="M76.7,483.7l5.1-8.9c-0.1,0.3-0.2,0.7-0.3,1l-4.1,7.1C77.2,483.3,77,483.5,76.7,483.7z"/>
		</g>
		<g>
			<path class="st3" d="M73.2,486.3l9.1-16l0,0.2c0,0.1,0,0.3,0,0.4L73.7,486C73.5,486.1,73.4,486.2,73.2,486.3z"/>
		</g>
		<g>
			<path class="st3" d="M70.5,487.4l11.5-20.2c0,0.1,0,0.3,0.1,0.4l-11.2,19.7C70.8,487.4,70.7,487.4,70.5,487.4z"/>
		</g>
		<g>
			<path class="st3" d="M68.2,488l13.3-23.3c0,0.1,0.1,0.2,0.1,0.4l-13.1,22.9C68.4,488,68.3,488,68.2,488z"/>
		</g>
		<g>
			<path class="st3" d="M66,488.2l14.6-25.7c0,0.1,0.1,0.2,0.1,0.3l-14.5,25.4C66.3,488.2,66.2,488.2,66,488.2z"/>
		</g>
		<g>
			<path class="st3" d="M64.4,488.1c-0.1,0-0.2,0-0.3,0l15.7-27.4c0.1,0.1,0.1,0.2,0.2,0.3L64.4,488.1z"/>
		</g>
		<g>
			<path class="st3" d="M78.6,459c0.1,0.1,0.1,0.1,0.2,0.2l-15.7,27.5v-0.5L78.6,459z"/>
		</g>
		<g>
			<path class="st3" d="M77.4,457.5c0.1,0.1,0.1,0.1,0.2,0.2l-14.5,25.4v-0.5L77.4,457.5z"/>
		</g>
		<g>
			<path class="st3" d="M76.1,456.3c0.1,0.1,0.1,0.1,0.2,0.2l-13.2,23.1V479L76.1,456.3z"/>
		</g>
		<g>
			<path class="st3" d="M74.7,455.2c0.1,0,0.1,0.1,0.2,0.1L63.1,476v-0.5L74.7,455.2z"/>
		</g>
		<g>
			<path class="st3" d="M73.2,454.2c0.1,0,0.1,0.1,0.2,0.1l-10.3,18v-0.5L73.2,454.2z"/>
		</g>
		<g>
			<path class="st3" d="M71.6,453.5c0.1,0,0.2,0.1,0.2,0.1l-8.7,15.2v-0.5L71.6,453.5z"/>
		</g>
		<g>
			<path class="st3" d="M69.8,452.9C69.8,452.9,69.8,452.9,69.8,452.9c0.1,0,0.2,0,0.3,0.1l-7,12.3v-0.5L69.8,452.9z"/>
		</g>
		<g>
			<path class="st3" d="M68,452.6c0.1,0,0.2,0,0.3,0l-5.2,9.1v-0.5L68,452.6z"/>
		</g>
		<g>
			<polygon class="st3" points="66.1,452.4 66.3,452.4 63.1,458.1 63.1,457.6 			"/>
		</g>
		<g>
			<path class="st3" d="M64.3,452.5l-1.2,2V454l0.8-1.5C64,452.5,64.2,452.5,64.3,452.5z"/>
		</g>
	</g>
</g>
<g class="st2">
	<g class="st2">
		<g>
			<path class="st3" d="M73.2,47.4l-5.9,10.3c0.1-0.4,0.2-0.8,0.3-1.2l4.7-8.3C72.6,48,72.9,47.7,73.2,47.4z"/>
		</g>
		<g>
			<path class="st3" d="M77.3,44.5L66.6,63.1l0-0.2c0-0.1,0-0.3,0-0.4l10.1-17.7C76.9,44.6,77.1,44.5,77.3,44.5z"/>
		</g>
		<g>
			<path class="st3" d="M80.4,43.1L66.9,66.7c0-0.2,0-0.3-0.1-0.5l13.1-23C80.1,43.2,80.3,43.2,80.4,43.1z"/>
		</g>
		<g>
			<path class="st3" d="M83.1,42.5L67.6,69.7c0-0.1-0.1-0.3-0.1-0.4l15.3-26.8C82.9,42.5,83,42.5,83.1,42.5z"/>
		</g>
		<g>
			<path class="st3" d="M85.6,42.3l-17.1,30c-0.1-0.1-0.1-0.2-0.2-0.3l16.9-29.6C85.4,42.3,85.5,42.3,85.6,42.3z"/>
		</g>
		<g>
			<path class="st3" d="M87.6,42.4c0.1,0,0.2,0,0.3,0l-18.3,32c-0.1-0.1-0.1-0.2-0.2-0.3L87.6,42.4z"/>
		</g>
		<g>
			<path class="st3" d="M71,76.4c-0.1-0.1-0.1-0.2-0.2-0.3L89.1,44v0.6L71,76.4z"/>
		</g>
		<g>
			<path class="st3" d="M72.4,78c-0.1-0.1-0.1-0.2-0.2-0.2l16.9-29.7v0.6L72.4,78z"/>
		</g>
		<g>
			<path class="st3" d="M73.9,79.5c-0.1-0.1-0.2-0.1-0.2-0.2l15.4-27v0.6L73.9,79.5z"/>
		</g>
		<g>
			<path class="st3" d="M75.6,80.8c-0.1-0.1-0.2-0.1-0.3-0.2l13.8-24.1v0.6L75.6,80.8z"/>
		</g>
		<g>
			<path class="st3" d="M77.3,81.9c-0.1-0.1-0.2-0.1-0.3-0.2l12-21.1v0.6L77.3,81.9z"/>
		</g>
		<g>
			<path class="st3" d="M79.2,82.8c-0.1,0-0.2-0.1-0.3-0.1l10.1-17.8v0.6L79.2,82.8z"/>
		</g>
		<g>
			<path class="st3" d="M81.2,83.4C81.2,83.4,81.2,83.4,81.2,83.4c-0.1,0-0.2-0.1-0.3-0.1L89.1,69v0.6L81.2,83.4z"/>
		</g>
		<g>
			<path class="st3" d="M83.4,83.8c-0.1,0-0.2,0-0.3,0l6-10.6v0.6L83.4,83.8z"/>
		</g>
		<g>
			<polygon class="st3" points="85.6,84 85.3,84 89.1,77.4 89.1,78 			"/>
		</g>
		<g>
			<path class="st3" d="M87.7,83.9l1.3-2.4v0.6l-1,1.7C88,83.9,87.8,83.9,87.7,83.9z"/>
		</g>
	</g>
	<g class="st2">
		<g>
			<path class="st3" d="M105,78.7l5.9-10.3c-0.1,0.4-0.2,0.8-0.3,1.2l-4.7,8.3C105.5,78.2,105.3,78.4,105,78.7z"/>
		</g>
		<g>
			<path class="st3" d="M100.9,81.7l10.6-18.6l0,0.2c0,0.1,0,0.3,0,0.4l-10.1,17.7C101.2,81.5,101.1,81.6,100.9,81.7z"/>
		</g>
		<g>
			<path class="st3" d="M97.7,83.1l13.5-23.6c0,0.2,0,0.3,0.1,0.5l-13.1,23C98,83,97.9,83,97.7,83.1z"/>
		</g>
		<g>
			<path class="st3" d="M95,83.7l15.5-27.2c0,0.1,0.1,0.3,0.1,0.4L95.4,83.6C95.2,83.6,95.1,83.7,95,83.7z"/>
		</g>
		<g>
			<path class="st3" d="M92.5,83.9l17.1-30c0.1,0.1,0.1,0.2,0.2,0.3L92.9,83.9C92.7,83.9,92.6,83.9,92.5,83.9z"/>
		</g>
		<g>
			<path class="st3" d="M90.5,83.8c-0.1,0-0.2,0-0.3,0l18.3-32c0.1,0.1,0.1,0.2,0.2,0.3L90.5,83.8z"/>
		</g>
		<g>
			<path class="st3" d="M107.2,49.8c0.1,0.1,0.1,0.2,0.2,0.3L89.1,82.2v-0.6L107.2,49.8z"/>
		</g>
		<g>
			<path class="st3" d="M105.8,48.1c0.1,0.1,0.1,0.2,0.2,0.2L89.1,78v-0.6L105.8,48.1z"/>
		</g>
		<g>
			<path class="st3" d="M104.2,46.6c0.1,0.1,0.2,0.1,0.2,0.2l-15.4,27v-0.6L104.2,46.6z"/>
		</g>
		<g>
			<path class="st3" d="M102.6,45.4c0.1,0.1,0.2,0.1,0.3,0.2L89.1,69.6V69L102.6,45.4z"/>
		</g>
		<g>
			<path class="st3" d="M100.8,44.3c0.1,0.1,0.2,0.1,0.3,0.2l-12,21.1v-0.6L100.8,44.3z"/>
		</g>
		<g>
			<path class="st3" d="M98.9,43.4c0.1,0,0.2,0.1,0.3,0.1L89.1,61.3v-0.6L98.9,43.4z"/>
		</g>
		<g>
			<path class="st3" d="M96.9,42.7C96.9,42.7,96.9,42.7,96.9,42.7c0.1,0,0.2,0.1,0.3,0.1l-8.2,14.3v-0.6L96.9,42.7z"/>
		</g>
		<g>
			<path class="st3" d="M94.8,42.3c0.1,0,0.2,0,0.3,0l-6,10.6v-0.6L94.8,42.3z"/>
		</g>
		<g>
			<polygon class="st3" points="92.5,42.1 92.8,42.2 89.1,48.8 89.1,48.2 			"/>
		</g>
		<g>
			<path class="st3" d="M90.4,42.3l-1.3,2.4V44l1-1.7C90.2,42.3,90.3,42.3,90.4,42.3z"/>
		</g>
	</g>
</g>
<g>
	<g>
		<ellipse class="st3" cx="56.7" cy="369.2" rx="1.2" ry="1.4"/>
		<ellipse class="st3" cx="68.8" cy="369.2" rx="1.2" ry="1.4"/>
		<ellipse class="st3" cx="80.9" cy="369.2" rx="1.2" ry="1.4"/>
		<ellipse class="st3" cx="93" cy="369.2" rx="1.2" ry="1.4"/>
		<ellipse class="st3" cx="105" cy="369.2" rx="1.2" ry="1.4"/>
		<ellipse class="st3" cx="117.1" cy="369.2" rx="1.2" ry="1.4"/>
		<ellipse class="st3" cx="56.7" cy="380.8" rx="1.2" ry="1.4"/>
		<ellipse class="st3" cx="68.8" cy="380.8" rx="1.2" ry="1.4"/>
		<ellipse class="st3" cx="80.9" cy="380.8" rx="1.2" ry="1.4"/>
		<ellipse class="st3" cx="93" cy="380.8" rx="1.2" ry="1.4"/>
		<ellipse class="st3" cx="105" cy="380.8" rx="1.2" ry="1.4"/>
		<ellipse class="st3" cx="117.1" cy="380.8" rx="1.2" ry="1.4"/>
		<ellipse class="st3" cx="56.7" cy="392.4" rx="1.2" ry="1.4"/>
		<ellipse class="st3" cx="68.8" cy="392.4" rx="1.2" ry="1.4"/>
		<ellipse class="st3" cx="80.9" cy="392.4" rx="1.2" ry="1.4"/>
		<ellipse class="st3" cx="93" cy="392.4" rx="1.2" ry="1.4"/>
		<ellipse class="st3" cx="105" cy="392.4" rx="1.2" ry="1.4"/>
		<ellipse class="st3" cx="117.1" cy="392.4" rx="1.2" ry="1.4"/>
	</g>
	<g>
		<ellipse class="st3" cx="56.7" cy="402.3" rx="1.2" ry="1.4"/>
		<ellipse class="st3" cx="68.8" cy="402.3" rx="1.2" ry="1.4"/>
		<ellipse class="st3" cx="80.9" cy="402.3" rx="1.2" ry="1.4"/>
		<ellipse class="st3" cx="93" cy="402.3" rx="1.2" ry="1.4"/>
		<ellipse class="st3" cx="105" cy="402.3" rx="1.2" ry="1.4"/>
		<ellipse class="st3" cx="117.1" cy="402.3" rx="1.2" ry="1.4"/>
		<ellipse class="st3" cx="56.7" cy="413.9" rx="1.2" ry="1.4"/>
		<ellipse class="st3" cx="68.8" cy="413.9" rx="1.2" ry="1.4"/>
		<ellipse class="st3" cx="80.9" cy="413.9" rx="1.2" ry="1.4"/>
		<ellipse class="st3" cx="93" cy="413.9" rx="1.2" ry="1.4"/>
		<ellipse class="st3" cx="105" cy="413.9" rx="1.2" ry="1.4"/>
		<ellipse class="st3" cx="117.1" cy="413.9" rx="1.2" ry="1.4"/>
		<ellipse class="st3" cx="56.7" cy="425.5" rx="1.2" ry="1.4"/>
		<ellipse class="st3" cx="68.8" cy="425.5" rx="1.2" ry="1.4"/>
		<ellipse class="st3" cx="80.9" cy="425.5" rx="1.2" ry="1.4"/>
		<ellipse class="st3" cx="93" cy="425.5" rx="1.2" ry="1.4"/>
		<ellipse class="st3" cx="105" cy="425.5" rx="1.2" ry="1.4"/>
		<ellipse class="st3" cx="117.1" cy="425.5" rx="1.2" ry="1.4"/>
	</g>
</g>
<g>
	<g>
		<ellipse class="st0" cx="611.8" cy="140.5" rx="1.2" ry="1.4"/>
		<ellipse class="st0" cx="623.9" cy="140.5" rx="1.2" ry="1.4"/>
		<ellipse class="st0" cx="636" cy="140.5" rx="1.2" ry="1.4"/>
		<ellipse class="st0" cx="648.1" cy="140.5" rx="1.2" ry="1.4"/>
		<ellipse class="st0" cx="660.1" cy="140.5" rx="1.2" ry="1.4"/>
		<ellipse class="st0" cx="672.2" cy="140.5" rx="1.2" ry="1.4"/>
		<ellipse class="st0" cx="611.8" cy="152.1" rx="1.2" ry="1.4"/>
		<ellipse class="st0" cx="623.9" cy="152.1" rx="1.2" ry="1.4"/>
		<ellipse class="st0" cx="636" cy="152.1" rx="1.2" ry="1.4"/>
		<ellipse class="st0" cx="648.1" cy="152.1" rx="1.2" ry="1.4"/>
		<ellipse class="st0" cx="660.1" cy="152.1" rx="1.2" ry="1.4"/>
		<ellipse class="st0" cx="672.2" cy="152.1" rx="1.2" ry="1.4"/>
		<ellipse class="st0" cx="611.8" cy="163.7" rx="1.2" ry="1.4"/>
		<ellipse class="st0" cx="623.9" cy="163.7" rx="1.2" ry="1.4"/>
		<ellipse class="st0" cx="636" cy="163.7" rx="1.2" ry="1.4"/>
		<ellipse class="st0" cx="648.1" cy="163.7" rx="1.2" ry="1.4"/>
		<ellipse class="st0" cx="660.1" cy="163.7" rx="1.2" ry="1.4"/>
		<ellipse class="st0" cx="672.2" cy="163.7" rx="1.2" ry="1.4"/>
	</g>
	<g>
		<ellipse class="st0" cx="611.8" cy="173.6" rx="1.2" ry="1.4"/>
		<ellipse class="st0" cx="623.9" cy="173.6" rx="1.2" ry="1.4"/>
		<ellipse class="st0" cx="636" cy="173.6" rx="1.2" ry="1.4"/>
		<ellipse class="st0" cx="648.1" cy="173.6" rx="1.2" ry="1.4"/>
		<ellipse class="st0" cx="660.1" cy="173.6" rx="1.2" ry="1.4"/>
		<ellipse class="st0" cx="672.2" cy="173.6" rx="1.2" ry="1.4"/>
		<ellipse class="st0" cx="611.8" cy="185.2" rx="1.2" ry="1.4"/>
		<ellipse class="st0" cx="623.9" cy="185.2" rx="1.2" ry="1.4"/>
		<ellipse class="st0" cx="636" cy="185.2" rx="1.2" ry="1.4"/>
		<ellipse class="st0" cx="648.1" cy="185.2" rx="1.2" ry="1.4"/>
		<ellipse class="st0" cx="660.1" cy="185.2" rx="1.2" ry="1.4"/>
		<ellipse class="st0" cx="672.2" cy="185.2" rx="1.2" ry="1.4"/>
		<ellipse class="st0" cx="611.8" cy="196.8" rx="1.2" ry="1.4"/>
		<ellipse class="st0" cx="623.9" cy="196.8" rx="1.2" ry="1.4"/>
		<ellipse class="st0" cx="636" cy="196.8" rx="1.2" ry="1.4"/>
		<ellipse class="st0" cx="648.1" cy="196.8" rx="1.2" ry="1.4"/>
		<ellipse class="st0" cx="660.1" cy="196.8" rx="1.2" ry="1.4"/>
		<ellipse class="st0" cx="672.2" cy="196.8" rx="1.2" ry="1.4"/>
	</g>
</g>
<g>
	<polygon class="st0" points="924.9,746.1 917.3,737 918.2,736 925.7,745 	"/>
	<polygon class="st0" points="917.3,745 924.9,736 925.7,737 918.2,746.1 	"/>
</g>
<g>
	<polygon class="st0" points="743.6,241.5 736,232.4 736.9,231.4 744.5,240.4 	"/>
	<polygon class="st0" points="736,240.4 743.6,231.4 744.5,232.4 736.9,241.5 	"/>
</g>
<circle class="st4" cx="232.4" cy="168.6" r="5.6"/>
<circle class="st5" cx="114" cy="750.8" r="11.3"/>
<g>
	<polygon class="st6" points="348.9,162.9 348.9,155.3 355,159.1 361,162.9 355,166.7 348.9,170.5 	"/>
	<polygon class="st6" points="365.4,162.9 365.4,155.3 371.5,159.1 377.5,162.9 371.5,166.7 365.4,170.5 	"/>
	<polygon class="st6" points="381.9,162.9 381.9,155.3 387.9,159.1 394,162.9 387.9,166.7 381.9,170.5 	"/>
</g>
<g>
	<polygon class="st7" points="625.3,84 625.3,68.7 637.6,76.3 649.9,84 637.6,91.7 625.3,99.4 	"/>
	<polygon class="st7" points="658.7,84 658.7,68.7 671,76.3 683.3,84 671,91.7 658.7,99.4 	"/>
	<polygon class="st7" points="692,84 692,68.7 704.3,76.3 716.6,84 704.3,91.7 692,99.4 	"/>
</g>
<g>
	<g>
		<path class="st8" d="M554.7,494.7c2.7,11.5,2.2,25.6,2.2,25.6l-10.4,4c0,0-6.4,26.2,33.8,18.2c7.8-1.6,30.4-18.7,30.4-18.7
			l-17.9-5.1c0,0-1.7-26-2.4-38.8C581.1,484.3,566,491.2,554.7,494.7z"/>
		<path d="M566.6,544.9c-7.8,0-13.5-1.9-17.2-5.7c-5.9-6.1-3.8-14.7-3.8-15.1c0.1-0.3,0.3-0.5,0.5-0.6l9.8-3.8
			c0.1-2.8,0.1-14.9-2.2-24.8c-0.1-0.4,0.2-0.9,0.6-1c11.6-3.6,27.8-11.2,35.6-14.8c0.3-0.1,0.6-0.1,0.8,0c0.2,0.1,0.4,0.4,0.4,0.7
			c0.6,11.6,2.1,34.2,2.4,38.2l17.3,4.9c0.3,0.1,0.6,0.4,0.6,0.7c0.1,0.3-0.1,0.7-0.3,0.9c-0.9,0.7-22.8,17.3-30.7,18.9
			C575.3,544.4,570.7,544.9,566.6,544.9z M547.3,525c-0.3,1.7-1.1,8.4,3.4,13.1c5.1,5.3,15,6.5,29.4,3.6
			c6.4-1.3,23.6-13.8,28.6-17.5l-16.2-4.6c-0.4-0.1-0.6-0.4-0.6-0.8c0-0.3-1.6-24.4-2.3-37.6c-8,3.7-22.8,10.5-33.9,14.1
			c2.5,11.3,2,24.9,2,25.1c0,0.3-0.2,0.7-0.6,0.8L547.3,525z M556.9,520.3L556.9,520.3L556.9,520.3z"/>
	</g>
	<g>
		<g>
			<path class="st9" d="M530.2,422.5c-3.7,0.9-7.3-2.8-7.4-6.8c-0.1-3.9,2.7-7.5,6.1-9.2c3.4-1.7,7.3-1.9,11.1-2.5
				c-1.4-3.8,0.4-8.4,3.5-10.8c3.2-2.4,7.3-3,11.2-2.5c2.6,0.3,5.1,1.1,7.1,2.7c2,1.7,3.4,4.3,3.3,7.2c3.4-4.3,8.9-7.2,14.1-5.9
				c5.2,1.2,9.1,7.6,9.5,11.9c2.5-3.1,5.8-5.6,9.7-5.4c7.7,0.4,9.4,7,6,15.4c4.1-2,10.2-0.3,12.2,5.7c1.5,4.4-0.2,11.5-3.3,15
				c-0.5,0.6-1.3,1.2-2.3,1.7c-1.2,6.6-2.7,13.5-5,22.2c-1.6,6.3-4.5,13.2-7.8,19c-1.6,2.7-2.8,4-5.9,5.5c-0.2-2.7-3-4.1-3.5-6.8
				c-0.5-3.3,1.6-6.3-0.4-9.2c-3.8-5.6-6.4-11.8-7.7-18.1c-1-5.2-1-10.7,1.4-15.5c0.9-1.7,2.1-3.3,3.6-4.7c-0.7-1.4-1.2-2.7-1.6-4.1
				c-2.3,3.9-3.9,6.5-9.6,8.4c-4.1,1.4-9-0.3-10.4-4.2c-0.9,4-7,9.6-10.9,10s-5.3-1.4-6.9-5.1c-3.4,3-6,6.2-9.5,7.5
				c-5.4,2-12-1.3-13.8-7C521.3,431.1,524.7,424.2,530.2,422.5z"/>
			<path d="M592.2,486.4c-0.2,0-0.3,0-0.4-0.1c-0.2-0.1-0.4-0.4-0.4-0.7c-0.1-1.1-0.8-2-1.5-3c-0.8-1-1.7-2.1-1.9-3.7
				c-0.2-1.5,0-2.8,0.2-4.1c0.3-1.8,0.5-3.3-0.5-4.8c-3.9-5.8-6.5-12-7.8-18.4c-1.2-6.4-0.7-11.6,1.5-16c0.8-1.6,2-3.1,3.3-4.5
				c-0.3-0.6-0.5-1.2-0.8-1.8c-1.9,3-3.9,5.5-9.1,7.2c-4.1,1.3-8.4,0-10.5-2.9c-2,4-7.3,8.3-11,8.7c-3.9,0.4-5.7-1.3-7.3-4.5
				c-0.5,0.5-1,1-1.5,1.4c-2.4,2.2-4.6,4.4-7.4,5.4c-2.7,1-5.9,0.8-8.7-0.5c-3-1.4-5.2-4-6.2-7c-1.6-5.1,0.6-10.9,4.8-13.9
				c-0.6-0.2-1.3-0.6-1.9-1.1c-1.9-1.5-3.2-3.9-3.2-6.3c-0.1-3.9,2.6-8,6.5-10c2.9-1.5,6.1-1.9,9.3-2.3c0.4,0,0.7-0.1,1.1-0.1
				c-0.9-3.7,0.8-8.2,4.1-10.8c3-2.3,7.2-3.3,11.9-2.7c3.1,0.4,5.7,1.4,7.6,2.9c1.8,1.5,3,3.5,3.4,5.8c3.9-3.9,9-5.7,13.6-4.7
				c4.8,1.1,8.6,6.2,9.8,10.8c2.9-3.1,6-4.5,9.2-4.4c3.3,0.2,5.8,1.4,7.2,3.7c1.7,2.7,1.7,6.6,0.2,11.1c1.9-0.4,4-0.3,5.8,0.5
				c2.7,1.1,4.7,3.4,5.7,6.3c1.5,4.7-0.1,12-3.4,15.8c-0.5,0.6-1.2,1.2-2.1,1.7c-1.3,7-2.8,13.9-4.9,21.8
				c-1.7,6.5-4.6,13.4-7.9,19.2c-1.6,2.7-2.9,4.2-6.3,5.8C592.5,486.4,592.3,486.4,592.2,486.4z M584.1,426.3
				C584.1,426.3,584.2,426.3,584.1,426.3c0.4,0,0.7,0.3,0.8,0.6c0.5,1.5,1,2.8,1.6,3.9c0.2,0.3,0.1,0.8-0.2,1
				c-1.4,1.3-2.6,2.8-3.4,4.4c-2.1,4-2.5,8.9-1.3,14.9c1.2,6.3,3.7,12.2,7.5,17.8c1.4,2.1,1.1,4.1,0.7,6c-0.2,1.2-0.4,2.4-0.2,3.5
				c0.2,1.1,0.9,2,1.6,2.9c0.6,0.8,1.3,1.7,1.7,2.8c2.3-1.2,3.2-2.4,4.6-4.6c3.3-5.6,6.1-12.4,7.7-18.7c2.1-8,3.7-15,4.9-22.1
				c0-0.3,0.2-0.5,0.4-0.6c0.9-0.5,1.6-1,2-1.5c2.9-3.3,4.4-10,3.1-14.1c-0.8-2.5-2.5-4.3-4.7-5.3c-2.1-0.9-4.4-0.8-6.2,0.1
				c-0.3,0.2-0.7,0.1-1-0.1c-0.3-0.2-0.3-0.6-0.2-1c2-4.8,2.2-8.8,0.6-11.3c-1.1-1.8-3.1-2.7-5.8-2.9c-3.1-0.2-6.1,1.6-9,5.1
				c-0.2,0.3-0.6,0.4-0.9,0.3c-0.3-0.1-0.6-0.4-0.6-0.8c-0.3-3.9-3.9-10-8.8-11.1c-4.4-1.1-9.6,1.1-13.2,5.6c-0.2,0.3-0.6,0.4-1,0.3
				c-0.4-0.1-0.6-0.5-0.6-0.9c0.1-2.4-1-4.9-3-6.5c-1.6-1.3-3.9-2.2-6.7-2.6c-4.2-0.5-7.9,0.3-10.6,2.4c-3.1,2.4-4.5,6.6-3.3,9.8
				c0.1,0.2,0.1,0.5-0.1,0.8c-0.1,0.2-0.4,0.4-0.6,0.4c-0.7,0.1-1.4,0.2-2.1,0.3c-3.1,0.4-6.1,0.8-8.7,2.1c-2.8,1.4-5.7,4.6-5.6,8.4
				c0,1.9,1,3.8,2.6,5c1.2,0.9,2.5,1.3,3.8,1c0.5-0.1,0.9,0.2,1,0.6c0.1,0.5-0.1,0.9-0.6,1.1c-5,1.6-8.2,8-6.5,13.1
				c0.8,2.5,2.7,4.7,5.3,5.9c2.4,1.2,5.1,1.3,7.4,0.5c2.5-0.9,4.5-2.8,6.8-5c0.8-0.7,1.6-1.5,2.5-2.3c0.2-0.2,0.5-0.3,0.8-0.2
				c0.3,0.1,0.5,0.3,0.6,0.5c1.5,3.5,2.6,4.9,6,4.6c3.5-0.4,9.4-5.7,10.2-9.3c0.1-0.4,0.4-0.7,0.8-0.7c0.4,0,0.7,0.2,0.9,0.6
				c1.3,3.6,5.8,4.8,9.3,3.7c5.5-1.8,7-4.4,9.1-8C583.5,426.5,583.8,426.3,584.1,426.3z"/>
		</g>
	</g>
	<g>
		<g>
			<path class="st8" d="M536.1,444.5c0-0.2,0-0.4,0-0.6c0.2-0.1,0.5-0.1,0.7-0.2c3.5-1.3,6.1-4.4,9.5-7.5c1.6,3.7,3,5.5,6.9,5.1
				s10-6,10.9-10c1.4,3.9,6.3,5.6,10.4,4.2c5.6-1.9,7.3-4.5,9.6-8.4c1.2,3.9,3.2,8,7.5,11c1.5,1.1,3.2,1.9,5,2.3
				c0.1,0.8,0.1,1.5,0.2,2.2c0.3,2.6,1,8.3,0.4,14c4.4-3.6,8-3,10.8-0.3c2.7,2.8,2.5,7.1-0.2,9.8c-2.7,2.7-7.4,3.7-11.5,2.9
				c-1.1,6.9-2.7,20.8-7.5,27c-5.1,6.5-14.2,10.7-23.6,10.9c-9.4,0.2-18.8-3.7-24.5-10.1c-6.5-7.2-7.9-16.8-7.4-25.7
				C533.8,462.3,536.1,453.5,536.1,444.5z"/>
			<path d="M564.6,508c-9.5,0-18.9-3.9-24.6-10.4c-5.7-6.4-8.3-15.2-7.6-26.4c0.2-3.9,0.8-7.9,1.4-11.7c0.7-4.9,1.5-10,1.5-15
				c0-0.2,0-0.4,0-0.6c0-0.4,0.3-0.7,0.6-0.8c0.2-0.1,0.4-0.1,0.6-0.2c2.5-0.9,4.5-2.8,6.8-5c0.8-0.7,1.6-1.5,2.5-2.3
				c0.2-0.2,0.5-0.3,0.8-0.2c0.3,0.1,0.5,0.3,0.6,0.5c1.5,3.5,2.6,4.9,6,4.6c3.5-0.4,9.4-5.7,10.2-9.3c0.1-0.4,0.4-0.7,0.8-0.7
				c0.4,0,0.7,0.2,0.9,0.6c1.3,3.6,5.8,4.8,9.3,3.7c5.5-1.8,7-4.4,9.1-8c0.2-0.3,0.5-0.5,0.9-0.4c0.3,0,0.6,0.3,0.7,0.6
				c1,3,2.8,7.4,7.1,10.6c1.4,1,3,1.7,4.7,2.2c0.4,0.1,0.6,0.4,0.6,0.8c0.1,0.8,0.1,1.5,0.2,2.2l0,0.2c0.3,2.4,0.8,7.1,0.5,12.1
				c3.8-2.4,7.4-2.1,10.4,0.9c3,3,2.9,7.9-0.2,11.1c-2.6,2.6-7.1,3.9-11.4,3.3c-0.1,0.5-0.1,1-0.2,1.5c-1.1,7.7-2.8,19.4-7.3,25.1
				c-5.3,6.8-14.6,11-24.3,11.2C565,508,564.8,508,564.6,508z M537,444.6c0,5.1-0.8,10.2-1.5,15.2c-0.6,3.8-1.1,7.7-1.4,11.6
				c-0.6,10.6,1.8,19.1,7.2,25.1c5.6,6.2,14.7,10,23.9,9.8c9.1-0.2,17.9-4.2,22.9-10.5c4.2-5.3,5.9-17.2,7-24.2
				c0.1-0.8,0.2-1.6,0.4-2.4c0-0.2,0.2-0.4,0.4-0.6c0.2-0.1,0.4-0.2,0.7-0.1c4,0.8,8.3-0.2,10.7-2.6c2.4-2.5,2.5-6.3,0.2-8.6
				c-2.7-2.8-6-2.7-9.6,0.3c-0.3,0.2-0.7,0.3-1,0.1c-0.3-0.2-0.5-0.5-0.5-0.9c0.6-5.5,0-11-0.3-13.6l0-0.2c-0.1-0.5-0.1-1.1-0.2-1.6
				c-1.7-0.5-3.3-1.3-4.7-2.3c-4-2.9-6-6.6-7.2-9.7c-1.9,3-3.9,5.5-9.1,7.2c-4.1,1.3-8.4,0-10.5-2.9c-2,4-7.3,8.3-11,8.7
				c-3.9,0.4-5.7-1.3-7.3-4.5c-0.5,0.5-1,1-1.5,1.4c-2.4,2.2-4.6,4.4-7.4,5.4C537.1,444.5,537,444.5,537,444.6z M536.1,444.5
				L536.1,444.5L536.1,444.5z"/>
		</g>
	</g>
	<g>
		<path d="M544.4,457.5c-0.1-1.1,0.7-2.1,1.9-2.2c1.2-0.1,2.2,0.7,2.3,1.8c0.1,1.1-0.7,2.1-1.9,2.2
			C545.6,459.4,544.6,458.6,544.4,457.5z"/>
	</g>
	<g>
		<path d="M574,459.1c-0.1-1.1,0.7-2.1,1.9-2.2c1.2-0.1,2.2,0.7,2.3,1.8s-0.7,2.1-1.9,2.2C575.2,461,574.1,460.2,574,459.1z"/>
	</g>
	<g>
		<path d="M565.2,494c-0.9,0-1.9-0.1-2.8-0.4c-0.5-0.1-0.7-0.6-0.6-1.1c0.1-0.5,0.6-0.7,1.1-0.6c3.4,0.9,7.3-0.3,9.6-3
			c0.3-0.4,0.9-0.4,1.2-0.1c0.4,0.3,0.4,0.9,0.1,1.2C571.7,492.6,568.5,494,565.2,494z"/>
	</g>
	<g>
		<path d="M560.2,482.9c-1.4,0-2.9-0.3-4.5-0.9c-0.8-0.3-1.8-0.7-2.5-1.5c-0.9-1-1.2-2.6-0.9-4.2c0.2-1.1,0.7-2.1,1.2-3.1l0.2-0.4
			c2.5-5.2,3.9-11,3.8-16.8c0-0.5,0.4-0.9,0.9-0.9c0,0,0,0,0,0c0.5,0,0.9,0.4,0.9,0.9c0,6.1-1.4,12.1-4,17.6l-0.2,0.4
			c-0.5,0.9-0.9,1.8-1.1,2.7c-0.2,1.1,0,2.1,0.5,2.7c0.4,0.5,1.1,0.8,1.8,1c1.9,0.7,3.6,0.9,5.2,0.7c1.8-0.3,3.3-1.2,4.2-2.5
			c0.3-0.4,0.8-0.5,1.2-0.2c0.4,0.3,0.5,0.8,0.2,1.2c-1.1,1.7-3.1,2.9-5.4,3.2C561.2,482.8,560.7,482.9,560.2,482.9z"/>
	</g>
	<g>
		<path d="M596.7,462.2c0,0-0.1,0-0.1,0c-0.5-0.1-0.8-0.5-0.8-1c0.3-2.4,0.4-3.7,0.7-6.1c0-0.5,0.5-0.8,0.9-0.8
			c0.5,0,0.8,0.5,0.8,0.9c-0.2,2.4-0.3,3.7-0.7,6.2C597.5,461.9,597.1,462.2,596.7,462.2z"/>
	</g>
	<g>
		<path d="M528.5,438.6c-0.1,0-0.2,0-0.2-0.1c-2-2.1-2.8-5.3-1.8-8c0.1-0.2,0.2-0.2,0.4-0.2c0.2,0.1,0.2,0.2,0.2,0.4
			c-0.9,2.5-0.2,5.5,1.7,7.5c0.1,0.1,0.1,0.3,0,0.4C528.7,438.6,528.6,438.6,528.5,438.6z"/>
	</g>
	<g>
		<path d="M606.8,435.9c-0.1,0-0.2,0-0.2-0.1c-0.1-0.1-0.1-0.3,0-0.4c3.4-3,4.7-8,3.2-12.2c-0.1-0.2,0-0.3,0.2-0.4
			c0.2-0.1,0.3,0,0.4,0.2c1.6,4.5,0.2,9.7-3.4,12.9C606.9,435.8,606.9,435.9,606.8,435.9z"/>
	</g>
</g>
<g>
	<g>
		<path class="st8" d="M421.5,583.5c-4.4-21.8-6.7-60.7-12.8-82.4c-5.7-5.7-11.7-14.7-14-22.9c-0.9-3.3-0.9-4.7,1.3-7
			c1.6-1.6,4.5-1.1,6.3,0c-0.8-2.1-2.8-4-0.2-6.2c1.2-1,2.9-1.5,4.1-0.6c-0.7-4.3,4.1-6.8,6.7-2.7c-2-5.3-3.9-10-6-14.8
			c-1.3-3-2.5-6.6-0.7-7.8c2.4-1.6,4.9,1.8,7.5,6.9c4.6,8.7,6.1,11.5,11.1,19.3c4.8,7.3,8.6,20.9,4.9,25.8
			c0.2,8.8,20.4,64,28.3,76.2c2.9,4.5-0.9,7.3-2.8,12.3c-2.4,5.9-11.5,26.7-25.7,16.3C425.8,592.9,421.8,584.8,421.5,583.5z"/>
		<path d="M437.5,599.6c-2.7,0-5.5-1-8.2-3.1c-4.2-3.1-8.3-11.4-8.6-12.9c0,0,0,0,0,0c-1.8-9.1-3.3-21-4.8-33.6
			c-2.2-17.7-4.4-35.9-7.9-48.5c-5.2-5.2-11.6-14.4-14-23.2c-1-3.6-0.9-5.3,1.5-7.8c1.3-1.3,3.3-1.5,5.1-1.1c-0.7-1.5-1.2-3.3,1-5.1
			c1.2-1,2.6-1.4,3.8-1.2c0.2-1.9,1.2-3.5,2.9-4.1c0.8-0.3,1.8-0.4,2.8-0.1c-1.5-3.8-3-7.7-4.8-11.7c-1.5-3.5-2.7-7.3-0.3-8.9
			c0.8-0.5,1.6-0.6,2.5-0.4c1.9,0.5,3.7,2.7,6.3,7.6l0.1,0.2c4.5,8.5,6,11.4,11,19.1c4.6,7.2,8.8,20.9,5.1,26.6
			c0.6,9.1,20.1,63.1,28.1,75.4c2.4,3.6,0.8,6.4-0.9,9.4c-0.6,1.1-1.3,2.3-1.8,3.6c-2.5,6.2-7.8,17-15.8,19.3
			C439.5,599.5,438.5,599.6,437.5,599.6z M422.4,583.3c0.2,1.2,4.1,9,7.9,11.8c3.3,2.5,6.6,3.2,9.7,2.4c7.2-2.1,12.3-12.3,14.6-18.3
			c0.6-1.4,1.3-2.7,1.9-3.9c1.7-2.9,2.7-4.8,1-7.6c-7.7-12-28.2-67.1-28.4-76.6c0-0.2,0.1-0.4,0.2-0.5c3.2-4.3,0-17.2-4.9-24.8
			c-5-7.8-6.6-10.7-11.1-19.2l-0.1-0.2c-1.4-2.7-3.5-6.3-5.2-6.7c-0.4-0.1-0.7,0-1.1,0.2c-1.5,1,0.4,5.3,1,6.8
			c2.2,5.2,4.2,10.2,6,14.9c0.2,0.4,0,0.9-0.4,1.1c-0.4,0.2-0.9,0.1-1.1-0.3c-0.9-1.4-2.2-2-3.4-1.5c-1,0.4-2,1.7-1.7,3.6
			c0.1,0.3-0.1,0.7-0.4,0.9c-0.3,0.2-0.7,0.2-0.9,0c-0.9-0.6-2.2-0.1-3.1,0.6c-1.4,1.2-1.1,2-0.2,3.8c0.2,0.4,0.5,0.9,0.7,1.4
			c0.1,0.3,0,0.7-0.3,1c-0.3,0.2-0.7,0.3-1,0.1c-1.6-1-4-1.4-5.2-0.2c-2,2-2,3-1.1,6.1c2.4,8.6,8.6,17.5,13.8,22.6
			c0.1,0.1,0.2,0.2,0.2,0.4c3.6,12.8,5.8,31.2,8,49C419.1,562.4,420.6,574.3,422.4,583.3L422.4,583.3z"/>
	</g>
	<g>
		<path d="M405.9,484.1c-0.7,0-1.4-0.2-2-0.6c-0.9-0.6-1.5-1.4-2-2.1l-2.5-3.3c-0.3-0.4-0.2-0.9,0.2-1.2c0.4-0.3,0.9-0.2,1.2,0.2
			l2.5,3.3c0.5,0.6,1,1.3,1.6,1.7c0.5,0.3,1.1,0.5,1.6,0.2c0.4-0.2,0.7-0.9,0.7-1.5c0-0.8-0.4-1.5-0.8-2.2c-1.4-2.7-1.8-3.2-2.9-4.6
			c-0.4-0.5-1-1.2-1.7-2.1c-0.3-0.4-0.2-0.9,0.2-1.2c0.4-0.3,0.9-0.2,1.2,0.2c0.7,0.9,1.3,1.6,1.7,2.1c1.2,1.5,1.7,2,3.1,4.9
			c0.4,0.8,0.9,1.8,1,3c0.1,1.4-0.6,2.6-1.6,3.2C406.8,484,406.4,484.1,405.9,484.1z"/>
	</g>
	<g>
		<path d="M411.9,482.6c-0.9,0-1.8-0.5-2.5-1c-0.7-0.5-1.4-1-2-1.5c-0.4-0.3-0.5-0.8-0.2-1.2c0.3-0.4,0.8-0.5,1.2-0.2
			c0.6,0.5,1.3,1,2,1.4c0.6,0.4,1.3,0.8,1.8,0.7c0.6-0.2,1-1.1,1-2c0-1.4-1.3-4.9-7.3-13.8l-0.2-0.2c-0.3-0.4-0.2-0.9,0.2-1.2
			c0.4-0.3,0.9-0.2,1.2,0.2l0.2,0.2c3.3,4.8,7.6,11.5,7.6,14.7c0,1.5-0.7,3.2-2.3,3.7C412.3,482.6,412.1,482.6,411.9,482.6z"/>
	</g>
	<g>
		<path d="M415.8,488.9c-0.4,0-0.7-0.3-0.8-0.6c-1.1-3.9,1.2-7.1,2.9-9.5c0.6-0.8,1.5-2,1.4-2.4c-0.6-1-4.2-2.1-5.8-2.6
			c-1-0.3-1.4-0.4-1.7-0.6c-1.8-1.1-2.4-2.3-2.6-3.2c-0.2-0.8,0-1.5,0.3-2c0.5-0.7,2.1-2,3.2-2.1c2-0.2,6.3,0.8,10.1,1.9
			c0.5,0.1,0.9,0.2,1.3,0.3c1.5,0.4,5.5,2.9,5.7,4.8c0,0.5-0.3,0.9-0.8,0.9c-0.5,0-0.9-0.3-0.9-0.8c-0.1-0.7-3-2.9-4.4-3.2
			c-0.3-0.1-0.8-0.2-1.3-0.3c-2.5-0.7-7.7-2-9.5-1.8c-0.4,0-1.6,0.9-2,1.4c0,0-0.1,0.3,0,0.7c0.1,0.4,0.4,1.2,1.8,2
			c0.1,0.1,0.8,0.3,1.3,0.4c3.1,0.9,5.9,1.9,6.8,3.4c0.7,1.2-0.2,2.6-1.5,4.3c-1.6,2.2-3.5,4.9-2.6,8c0.1,0.5-0.1,0.9-0.6,1.1
			C416,488.9,415.9,488.9,415.8,488.9z"/>
	</g>
	<g>
		<path d="M416.1,467.9c-0.4,0-0.7-0.2-0.8-0.6c-0.3-0.8-1.2-2.4-2-3.7c-0.4-0.7-0.8-1.4-1.1-1.8c-0.2-0.4-0.1-1,0.4-1.2
			c0.4-0.2,1-0.1,1.2,0.4c0.2,0.5,0.6,1.1,1,1.8c0.9,1.5,1.9,3.1,2.2,4.1c0.1,0.5-0.1,1-0.6,1.1
			C416.2,467.9,416.1,467.9,416.1,467.9z"/>
	</g>
	<g>
		<path d="M415.1,480.8c-0.4,0-0.8-0.1-1.1-0.2c-0.4-0.2-0.6-0.7-0.4-1.2c0.2-0.4,0.7-0.6,1.2-0.4c0.3,0.2,0.9,0.1,1.4-0.3
			c0.7-0.7,0.9-1.9,0.3-3.5c-0.2-0.5,0.1-1,0.5-1.1c0.5-0.2,1,0.1,1.1,0.5c1.1,3.2-0.2,4.8-0.8,5.3
			C416.7,480.5,415.9,480.8,415.1,480.8z"/>
	</g>
</g>
<g>
	<g>
		<path d="M681.8,614.7c-5.6-29.3-5.6-60.8-29.2-80.5c-11.3-9.5-38.2-13.6-54-14.6c-1,15.3-15.9,18.9-25.4,18.3
			c-15.9-1-18.8-4.2-22.8-16.3c-3.6,1.4-25.1,2.5-39.1,15c-26,23.2-57.7,21-55.5,22.5c2,1.3-5.1,33.6-24.9,37.6
			c-10.4,2.1,47.6,10.7,87.3,0.2c-1.5,20.8,6,81.5,10.3,104.8c41.5,28.9,126.7-3.8,126.7-3.8s-6.5-19.2-6.5-33.7
			c0-7.2,16.8,8.7,20.2,9.3c1.1,0.2,4.6-2.3,5-3.3C676.6,663.7,687,641.7,681.8,614.7z"/>
		<path d="M575.4,714.5c-17.1,0-34.4-3-47.5-12.1c-0.2-0.1-0.3-0.3-0.4-0.6c-4.3-23.4-11.5-82.3-10.4-103.8
			c-35.8,9.1-85.1,3.3-88.1,0.1c-0.3-0.3-0.4-0.8-0.3-1.2c0.2-0.7,1.1-1,1.9-1.1c9.3-1.9,15.4-10.3,18.9-17c4.7-9.2,6-17.8,5.6-19.2
			c-0.3-0.3-0.4-0.7-0.3-1c0.2-0.8,0.8-0.9,4-1.3c8.7-1,31.9-3.7,51.8-21.5c11.1-9.9,26.6-12.7,34.9-14.2c2.1-0.4,3.8-0.7,4.5-1
			c0.2-0.1,0.5-0.1,0.7,0c0.2,0.1,0.4,0.3,0.5,0.5c3.9,11.8,6.5,14.7,22.1,15.7c2.6,0.2,9.4,0.2,15.5-3.1c5.6-3,8.6-7.9,9-14.4
			c0-0.2,0.1-0.4,0.3-0.6c0.2-0.2,0.4-0.2,0.6-0.2c18.4,1.2,43.7,5.8,54.5,14.8c19.4,16.2,23.2,40.7,26.8,64.4
			c0.8,5.5,1.7,11.1,2.7,16.6c4.9,26-4.2,47.1-7.6,55.1l-0.4,1c-0.6,1.3-4.4,4.1-6,3.8c-1.3-0.2-3.4-1.8-7.1-4.5
			c-3.8-2.8-10.2-7.4-11.7-6.6c-0.2,0.1-0.3,0.6-0.3,0.9c0,14.2,6.4,33.2,6.5,33.4c0.2,0.4-0.1,0.9-0.5,1.1
			c-0.2,0.1-21.7,8.3-48,12.8C597.8,713.2,586.7,714.5,575.4,714.5z M529.2,701.2c21.2,14.5,54,12.7,77.9,8.6
			c23.3-4,42.8-10.9,46.9-12.4c-1.2-3.8-6.3-20.4-6.3-33.1c0-1.5,0.7-2.2,1.2-2.5c2.3-1.2,6.9,1.9,13.6,6.8c2.6,1.9,5.5,4,6.4,4.2
			c0,0,0,0,0,0c0.8,0,3.8-2.1,4-2.8l0.4-1c3.4-7.8,12.4-28.6,7.5-54c-1.1-5.5-1.9-11.2-2.8-16.7c-3.7-24.4-7.3-47.5-26.2-63.3
			c-10.3-8.6-34.6-13.1-52.6-14.3c-0.7,6.6-4.1,11.8-9.9,14.9c-6.5,3.5-13.6,3.5-16.4,3.3c-15.8-1-19.3-4.2-23.3-16
			c-0.9,0.2-2.3,0.5-3.9,0.8c-8.1,1.5-23.3,4.2-34,13.8c-20.4,18.2-43.9,20.9-52.8,21.9c-0.8,0.1-1.6,0.2-2.2,0.3
			c0.1,0.8,0.1,2.2-0.4,4.8c-1.9,10-9.6,29.7-25,33.2c7.9,2.7,52.8,7.4,86.5-1.5c0.3-0.1,0.6,0,0.8,0.2c0.2,0.2,0.3,0.5,0.3,0.7
			C517.6,617.2,524.8,677.2,529.2,701.2z"/>
	</g>
</g>
<g>
	<path d="M639,641.2c-0.4,0-0.7-0.2-0.8-0.6c-8.5-25.6-13.3-41.8-13.3-77c0-0.5,0.4-0.9,0.9-0.9c0.5,0,0.9,0.4,0.9,0.9
		c0,34.9,4.8,51,13.2,76.4c0.2,0.5-0.1,1-0.6,1.1C639.2,641.2,639.1,641.2,639,641.2z"/>
</g>
<g>
	<path d="M518.1,597.7c-0.2,0-0.4-0.1-0.6-0.2c-0.5-0.4-0.5-0.9-0.6-6.1c-0.1-3.8-0.1-10.3-0.5-20c0-0.5,0.4-0.9,0.8-0.9
		c0.5,0,0.9,0.4,0.9,0.8c0.4,9.8,0.5,16.2,0.5,20.1c0,2.6,0.1,4.6,0.2,5c0.2,0.3,0.1,0.7-0.1,1C518.6,597.6,518.4,597.7,518.1,597.7
		z M518.7,596.2L518.7,596.2L518.7,596.2z"/>
</g>
<g>
	<path class="st8" d="M562.8,583.3c-15.9,0-30.4-1.4-38-5.3c-0.1-0.1-0.2-0.2-0.1-0.4c0.1-0.1,0.2-0.2,0.4-0.1
		c15.7,8,60.9,5.4,87.5,1.7c0.2,0,0.3,0.1,0.3,0.2c0,0.2-0.1,0.3-0.2,0.3C598.8,581.7,580,583.3,562.8,583.3z"/>
</g>
<g>
	<path class="st8" d="M579.8,605.7c-21.1,0-40.5-3.4-54.9-6.9c-0.2,0-0.3-0.2-0.2-0.4c0-0.2,0.2-0.3,0.4-0.2
		c22.2,5.4,55.8,10.4,89.9,3.5c0.2,0,0.3,0.1,0.3,0.2c0,0.2-0.1,0.3-0.2,0.3C603,604.7,591.2,605.7,579.8,605.7z"/>
</g>
<g>
	<path class="st8" d="M679.6,653.6c-0.1,0-0.2-0.1-0.2-0.1c-7.6-12.8-20-19.3-31.5-16.4c-0.2,0-0.3-0.1-0.4-0.2
		c0-0.2,0.1-0.3,0.2-0.4c11.8-2.9,24.4,3.7,32.2,16.7c0.1,0.1,0,0.3-0.1,0.4C679.7,653.6,679.7,653.6,679.6,653.6z"/>
</g>
<g>
	<path class="st8" d="M676.6,658.8c-0.1,0-0.1,0-0.2-0.1c-1.4-1.1-2.4-2.6-3.4-4.1c-0.3-0.5-0.7-1-1-1.5c-2.2-3-5.1-5.4-8.5-6.9
		c-0.1-0.1-0.2-0.2-0.1-0.4c0.1-0.1,0.2-0.2,0.4-0.1c3.5,1.5,6.5,4,8.8,7.1c0.4,0.5,0.7,1,1,1.6c0.9,1.4,1.9,2.9,3.2,3.9
		c0.1,0.1,0.2,0.3,0.1,0.4C676.8,658.8,676.7,658.8,676.6,658.8z"/>
</g>
<g>
	<path class="st8" d="M455.7,581.6c0,0-0.1,0-0.1,0c-0.1-0.1-0.2-0.2-0.2-0.4c2.6-6.4,3.9-13.4,3.7-20.3c0-0.2,0.1-0.3,0.3-0.3
		c0,0,0,0,0,0c0.2,0,0.3,0.1,0.3,0.3c0.2,7-1.1,14.1-3.8,20.5C456,581.5,455.9,581.6,455.7,581.6z"/>
</g>
<g>
	<path class="st8" d="M464.7,568.7C464.6,568.7,464.6,568.7,464.7,568.7c-0.2,0-0.3-0.2-0.3-0.4c0.6-2.5,0.7-5,0.5-7.5
		c0-0.2,0.1-0.3,0.3-0.3c0.2,0,0.3,0.1,0.3,0.3c0.3,2.6,0.1,5.1-0.5,7.7C464.9,568.6,464.8,568.7,464.7,568.7z"/>
</g>
<g>
	<path class="st8" d="M641.1,642.7c-0.4,0-0.7-0.3-0.8-0.6c-5.7-21.1-9.6-42.7-11.6-64.4c0-0.5,0.3-0.9,0.8-0.9
		c0.5,0,0.9,0.3,0.9,0.8c2,21.5,5.9,43.1,11.6,64.1c0.1,0.5-0.1,0.9-0.6,1.1C641.3,642.7,641.2,642.7,641.1,642.7z"/>
</g>
<g>
	<path class="st8" d="M516.4,601.7C516.4,601.7,516.4,601.7,516.4,601.7c-0.5,0-0.9-0.4-0.9-0.9l0.4-23.9c0-0.5,0.4-0.9,0.9-0.9
		c0,0,0,0,0,0c0.5,0,0.9,0.4,0.9,0.9l-0.4,23.9C517.3,601.3,516.9,601.7,516.4,601.7z"/>
</g>
<g>
	<path class="st8" d="M644.5,648.1c3.1-3,9-1.8,12.8,0c1.9,0.9,17.2,15.1,11.6,26.9c-4.8,10.2-8,14-33.5,51.7
		c-0.9,1.4-1.9,2.8-3.4,3.7c-4.6,2.8-10.5-1.5-12.5-6.5c-4.2-10.6,1.4-22.3,6.5-32.5C631.3,681.1,641.4,651.1,644.5,648.1z"/>
	<path d="M628.9,732.2c-0.8,0-1.7-0.1-2.5-0.4c-3.2-1.1-6.3-4.1-7.7-7.6c-4.5-11.3,1.9-24,6.6-33.2c2.3-4.5,5.6-13,8.7-21.1
		c5-12.8,8.1-20.8,9.8-22.4l0,0c3.2-3.1,9.3-2.3,13.8-0.2c2.4,1.1,17.9,15.7,12,28.1c-3.8,8.1-6.7,12.3-20.2,32.2
		c-3.6,5.3-8,11.7-13.3,19.6c-0.9,1.4-2,3-3.6,4C631.4,731.9,630.2,732.2,628.9,732.2z M649.8,647.2c-1.9,0-3.6,0.5-4.7,1.6l0,0
		c-1.6,1.5-5.8,12.3-9.4,21.8c-3.2,8.2-6.5,16.7-8.8,21.3c-4.5,8.9-10.7,21.1-6.5,31.7c1.2,3,3.8,5.6,6.6,6.5
		c1.2,0.4,2.9,0.6,4.6-0.4c1.3-0.8,2.3-2.2,3.1-3.5c5.3-7.9,9.7-14.3,13.3-19.6c13.5-19.8,16.3-24,20.1-32
		c5.5-11.5-10-25.2-11.2-25.7C654.8,647.9,652.2,647.2,649.8,647.2z M644.5,648.1L644.5,648.1L644.5,648.1z"/>
</g>
<g>
	<g>
		<path d="M818.6,573.6c-0.3,12.9,7.6,26.1,19.8,30.4c6.7,2.3,13.9,2,20.8,3.8c6.8,1.8,13.8,6.9,13.8,14c0,4.7-2.6,15.3,11.4,21.5
			c11.6,5.1,8.8,32.9-27,44.5c-11,3.6-3.9-5.4-15.3-7.2c-11.3-1.7-21.5-8.1-29.2-16.4c-7.8-8.3-13.3-18.5-17.5-29.1
			c-4.9-12.2-8.4-25.6-5.3-38.3C793.1,584,804.3,572.5,818.6,573.6z"/>
		<path d="M853.3,689.4c-2.5,0-3.4-1.3-4.3-3.2c-1-1.9-2-4-7-4.8c-10.7-1.6-21.2-7.6-29.7-16.7c-6.9-7.4-12.7-17-17.7-29.4
			c-6.3-15.5-8-27.9-5.4-38.9c3-12.4,14.3-25,29.5-23.8c0.5,0,0.8,0.4,0.8,0.9c-0.3,13.1,7.8,25.6,19.2,29.5
			c3.6,1.3,7.5,1.7,11.3,2.2c3.1,0.4,6.3,0.8,9.4,1.6c6.9,1.8,14.4,7.2,14.5,14.8c0,0.6,0,1.3-0.1,2.1c-0.3,5.4-0.8,13.5,10.9,18.6
			c4.4,1.9,6.9,6.9,6.6,13c-0.5,10.4-9.7,25.4-33.7,33.2C855.8,689.2,854.4,689.4,853.3,689.4z M816.7,574.4
			c-13.3,0-23.1,11.3-25.8,22.6c-2.5,10.6-0.9,22.6,5.3,37.8c4.9,12.1,10.6,21.6,17.4,28.8c8.2,8.8,18.4,14.6,28.7,16.2
			c5.9,0.9,7.3,3.7,8.3,5.8c1,2,1.6,3.1,6.6,1.4c23.1-7.5,31.9-21.8,32.5-31.6c0.3-5.3-1.9-9.6-5.5-11.3
			c-12.8-5.7-12.3-15.2-12-20.3c0-0.8,0.1-1.4,0.1-2c0-6.7-6.8-11.5-13.2-13.1c-3-0.8-6.1-1.2-9.1-1.5c-3.9-0.5-7.9-1-11.7-2.3
			c-11.9-4.1-20.4-16.8-20.4-30.4C817.4,574.4,817,574.4,816.7,574.4z"/>
	</g>
	<g>
		<path d="M748.7,544c3.8,18.4,7.4,38.2-0.1,55.3c-2.4,5.6-6,10.7-8,16.4c-2.4,6.8-2.5,14.3-1.8,21.5c1.2,13.6,5.3,27.6,14.9,37.4
			c9.6,9.8,25.6,14,37.5,7.1c10.4-6.1,15.1-19.1,14.5-31.1c-0.7-12-5.8-23.3-11.2-34C781.4,591,766.3,566.3,748.7,544z"/>
	</g>
	<g>
		<path class="st8" d="M775.2,633.7c0.3-9.8-0.9-15.3-1.3-22.6c4-2,8.2-3.4,12.6-4.1c2-0.3,4.2-0.4,5.7,0.7c0.9,0.7,5.4-3.2,5.9-2.1
			c3.2,7.5,3.5,18.1,6.7,25.6c0.2,0.6,11.4-0.5,11.7,0.1c1,2.4,0.2,22.7-0.6,23.2c-40.9,27.2-60.6-11.7-60.6-11.7
			S762.7,638.3,775.2,633.7z"/>
		<path d="M788.3,665.1c-3,0-5.9-0.4-8.7-1.1c-16.7-4.4-24.8-20-25.1-20.7c-0.2-0.4-0.1-0.9,0.3-1.1c0.1,0,7.4-4.5,19.6-9.1
			c0.2-6.1-0.3-10.6-0.7-14.9c-0.2-2.2-0.5-4.5-0.6-7c0-0.3,0.2-0.7,0.5-0.8c4-2,8.4-3.4,12.8-4.1c2-0.3,4.4-0.5,6.2,0.8
			c0.4-0.1,1.6-0.7,2.2-1.1c1.6-0.9,2.6-1.5,3.3-1.2c0.3,0.1,0.6,0.3,0.7,0.7c1.6,3.8,2.5,8.5,3.4,13c0.8,4.3,1.7,8.7,3.1,12.3
			c0.9,0.1,3.3,0,5.1-0.1c5.9-0.2,6.4-0.2,6.7,0.6c0.7,1.7,0.6,9.5,0.4,12.7c-0.4,10.9-1,11.4-1.4,11.6
			C806.5,661.8,797.1,665.1,788.3,665.1z M756.4,643.2c1.8,3.1,9.7,15.4,23.6,19.1c10.7,2.8,22.5,0,35.1-8.3
			c0.6-2.2,1.3-18.7,0.6-21.9c-0.9-0.1-3.3,0-5.1,0.1c-5.8,0.2-6.3,0.2-6.7-0.6c-1.6-3.8-2.5-8.5-3.4-13c-0.8-4.2-1.6-8.6-3.1-12.2
			c-0.5,0.2-1.2,0.6-1.7,0.9c-1.7,1-3.1,1.8-4.1,1.1c-1.3-1-3.4-0.8-5-0.6c-4.1,0.7-8.1,1.9-11.8,3.7c0.1,2.2,0.3,4.2,0.5,6.4
			c0.4,4.5,0.9,9.2,0.7,15.7c0,0.4-0.2,0.7-0.6,0.8C765.4,638.3,758.6,642,756.4,643.2z M815.1,654.1L815.1,654.1L815.1,654.1z
			 M775.2,633.7L775.2,633.7L775.2,633.7z"/>
	</g>
	<g>
		<path class="st8" d="M744.4,548.6c1.2,9.1,3,18.6,0.7,27.6c-1.3,4.9-1.2,30,18.9,37.1c10.6,3.7,22.7,3,33.6-3.6
			c7.4-4.5,16.4-18.4,14.6-32.2c6.1,1.7,12.2-2.4,12.2-7.9c0-3.2-3.5-7.1-7.1-7c-2.9,0.1-3.2,0.2-5.4,1.8
			c-1.5-6.5-2.4-13.1-2.3-20.5c-6.9-7.7-18.1-11.6-29.2-13.2c-3.7-0.6-7.5-0.9-11.2-0.4C758.5,531.5,743.2,539.2,744.4,548.6z"/>
		<path d="M777.1,616.4c-4.5,0-8.9-0.8-13.3-2.3c-20.2-7.2-21.1-32.1-19.5-38.1c2-7.8,0.9-16-0.3-24c-0.2-1.1-0.3-2.2-0.5-3.3l0,0
			c-0.4-2.6,0.5-5.3,2.5-7.9c4.8-6.2,15.5-10.6,23.1-11.5c4.2-0.5,8.3,0,11.4,0.4c9.2,1.4,21.9,4.9,29.8,13.5
			c0.1,0.2,0.2,0.4,0.2,0.6c-0.1,6.3,0.5,12.4,2,19c1.5-1,2.3-1.1,4.8-1.2c1.8-0.1,3.8,0.7,5.4,2.3c1.6,1.6,2.7,3.7,2.6,5.6
			c0,2.7-1.4,5.3-3.7,7c-2.4,1.8-5.4,2.5-8.4,2c1.2,14.1-7.8,27.5-15.1,31.9C791.5,614.4,784.3,616.4,777.1,616.4z M772.9,530.8
			c-1.2,0-2.4,0.1-3.6,0.2c-7.3,0.9-17.4,5-21.9,10.9c-1.7,2.2-2.4,4.4-2.1,6.6l0,0c0.1,1.1,0.3,2.2,0.5,3.3
			c1.1,8.1,2.3,16.5,0.2,24.6c-0.9,3.4-2,28.8,18.4,36.1c11,3.9,22.6,2.6,32.8-3.6c6.9-4.2,15.9-17.8,14.2-31.4
			c0-0.3,0.1-0.6,0.3-0.8c0.2-0.2,0.5-0.3,0.8-0.2c2.8,0.8,5.8,0.2,8.1-1.5c1.9-1.4,3-3.5,3-5.6c0-1.4-0.8-3-2.1-4.3
			c-1.2-1.2-2.8-1.9-4.1-1.8c-2.7,0.1-2.9,0.1-4.9,1.7c-0.2,0.2-0.5,0.2-0.8,0.1c-0.3-0.1-0.5-0.3-0.6-0.6
			c-1.6-7.2-2.4-13.7-2.3-20.4c-7.5-8.1-19.6-11.4-28.5-12.7C778.2,531.1,775.6,530.8,772.9,530.8z"/>
	</g>
	<g>
		<path d="M788.3,585.4c-3,0-5.8-1.1-8.2-3.1c-2.8-2.4-4.6-5.8-5.1-9.6c-1-7.9,4-15.1,11.2-16.1c7.2-0.9,13.9,4.8,14.9,12.7
			c1,7.9-4,15.1-11.2,16.1C789.3,585.3,788.8,585.4,788.3,585.4z M787.7,558.2c-0.4,0-0.9,0-1.3,0.1c-6.2,0.8-10.6,7.1-9.7,14.1
			c0.4,3.4,2,6.4,4.5,8.5c2.4,2.1,5.4,3,8.4,2.6c6.2-0.8,10.6-7.1,9.7-14.1C798.5,563,793.4,558.2,787.7,558.2z"/>
	</g>
	<g>
		<path d="M752,587c-3,0-5.8-1.1-8.2-3.1c-2.8-2.4-4.6-5.8-5.1-9.6c-1-7.9,4-15.1,11.2-16.1c3.5-0.5,7,0.6,9.8,3
			c2.8,2.4,4.6,5.8,5.1,9.6l0,0c1,7.9-4,15.1-11.2,16.1C753,587,752.5,587,752,587z M751.4,559.9c-0.4,0-0.9,0-1.3,0.1
			c-6.2,0.8-10.6,7.1-9.7,14.1c0.4,3.4,2,6.4,4.5,8.5c2.4,2.1,5.4,3,8.4,2.6c6.2-0.8,10.6-7.1,9.7-14.1l0,0c-0.4-3.4-2-6.4-4.5-8.5
			C756.4,560.8,753.9,559.9,751.4,559.9z"/>
	</g>
	<g>
		<path d="M820.2,493.1c-3.7-12.2-16.6-19.1-28.8-15.4c-12.2,3.7-19.1,16.6-15.4,28.8c3.7,12.2,16.6,19.1,28.8,15.4
			C817.1,518.3,823.9,505.3,820.2,493.1z"/>
	</g>
	<g>
		<path d="M811.1,565.3c-5.9-9.1-9.4-15.6-11.4-26.7c-21.7,12.8-42.2,14.8-62.9,14c-0.4-3.5,0.3-11.3,1.8-14.7
			c3.6-8.2,8.1-15.3,20.6-20.9c8.8-3.9,20.6-6.5,30.1-5.2c9.4,1.4,17.5,6.5,24.1,12.6c5.3,4.9,9.7,12.9,11.3,20.8
			c1.3,6.8-0.3,11.8-3.4,18.6c-1.7-0.9-3.3-1.8-5.3-1.5C814,562.8,812.8,563.8,811.1,565.3z"/>
	</g>
	<g>
		<path d="M779.7,600.1c-1.6,0-3-0.5-4.2-1.5c-0.4-0.3-0.4-0.9-0.1-1.2c0.3-0.4,0.9-0.4,1.2-0.1c1.5,1.2,3.6,1.4,5.8,0.5
			c2.5-1,4.5-3,5.7-5.6c0.2-0.4,0.7-0.6,1.2-0.4c0.4,0.2,0.6,0.7,0.4,1.2c-1.4,3-3.7,5.3-6.6,6.5C782,599.9,780.8,600.1,779.7,600.1
			z"/>
	</g>
	<g>
		<path d="M787.4,571.5c-0.1-1.1-1.2-1.9-2.4-1.8c-1.2,0.2-2,1.2-1.9,2.3c0.1,1.1,1.2,1.9,2.4,1.8
			C786.7,573.7,787.5,572.7,787.4,571.5z"/>
	</g>
	<g>
		<path d="M755.1,573.2c-0.1-1.1-1.2-1.9-2.4-1.8c-1.2,0.2-2,1.2-1.9,2.3c0.1,1.1,1.2,1.9,2.4,1.8
			C754.3,575.4,755.2,574.4,755.1,573.2z"/>
	</g>
	<g>
		<path d="M767.2,586.6c-0.1,0-0.2,0-0.3-0.1l-2.9-1.1c-0.4-0.1-1.1-0.4-1.4-1.1c-0.3-0.9,0.2-1.6,0.5-2c2.2-3,2.9-6.8,2-10.2
			c-0.1-0.5,0.1-0.9,0.6-1.1c0.5-0.1,0.9,0.1,1.1,0.6c1.1,4,0.3,8.4-2.2,11.8c0,0.1-0.2,0.2-0.2,0.4c0.1,0,0.2,0.1,0.3,0.1l2.9,1.1
			c0.5,0.2,0.7,0.7,0.5,1.1C767.9,586.3,767.5,586.6,767.2,586.6z"/>
	</g>
	<g>
		<path d="M763.4,569c-0.5,0-0.9-0.4-0.9-0.9c0-2.1,2-3.5,4-4c3.2-0.8,6.9,0,9.3,2.2c0.4,0.3,0.4,0.9,0.1,1.2
			c-0.3,0.4-0.9,0.4-1.2,0.1c-2-1.8-5.1-2.5-7.8-1.8c-1.3,0.3-2.7,1.2-2.7,2.3C764.2,568.6,763.8,569,763.4,569
			C763.4,569,763.4,569,763.4,569z"/>
	</g>
	<g>
		<path d="M799.4,565.5c-0.5,0-0.9-0.4-0.9-0.9c0-0.5,0.4-0.9,0.9-0.9l10.7,0c0,0,0,0,0,0c0.5,0,0.9,0.4,0.9,0.9
			c0,0.5-0.4,0.9-0.9,0.9L799.4,565.5C799.4,565.5,799.4,565.5,799.4,565.5z"/>
	</g>
	<g>
		<path d="M812.1,572.9C812.1,572.9,812.1,572.9,812.1,572.9c-0.5,0-0.9-0.4-0.9-0.9c0-2.6-0.5-5.2-1.5-7.6c-0.2-0.4,0-1,0.5-1.1
			c0.4-0.2,1,0,1.1,0.5c1.1,2.6,1.7,5.5,1.6,8.3C812.9,572.5,812.6,572.9,812.1,572.9z"/>
	</g>
	<g>
		<g>
			<path class="st9" d="M890.5,717.3c-9.5-25.9-14.7-51.4-37-70c-10.7-8.9-23.6-15.3-38.5-16.2c-0.9,14.4-17.7,23.9-26.6,25
				c-4.9,0.6-23,3-23-18.4c-5.9,2.4-25.6,4.8-33.5,29.1c-3.2,9.9-9,47.9-28.1,70c-4.5,5.2-8.7-29.4-15.2-27.1
				c-6.4,2.3-13.7,6-14.2,12.8c-0.4,5.2,4,9.8,8.8,11.9c10.4,4.5,14.3,26.1,25.5,27.7c11.6,1.6,30.2,5.9,44.3-38.1
				c7.2,7.2,11.8,14.9,19.9,19.3c23.2,12.5,100.6,26.6,113.2,28.8c1,0.2,3.4-0.7,3.8-1.6C892.5,764.1,899.4,741.7,890.5,717.3z"/>
			<path d="M886.3,772.8c-0.2,0-0.3,0-0.5,0c-14.9-2.6-90.3-16.4-113.5-28.9c-5.6-3-9.6-7.6-13.8-12.5c-1.7-1.9-3.4-3.9-5.3-5.9
				c-6,18.2-13.3,29.6-22.2,34.8c-7.9,4.6-15.4,3.5-21.4,2.6l-1.2-0.2c-6.4-0.9-10.5-7.8-14.4-14.5c-3.3-5.6-6.7-11.3-11.3-13.3
				c-4.9-2.1-9.7-6.9-9.3-12.8c0.4-5.7,5.2-10.2,14.7-13.5c0.7-0.3,1.5-0.2,2.2,0.2c3,1.5,5.2,8.5,7.6,16c1.3,4.3,3.6,11.4,4.8,11.5
				c0,0,0.1,0,0.3-0.2c15.2-17.5,22-45.6,25.6-60.8c0.9-3.9,1.7-6.9,2.3-8.9c6.9-21.3,23.1-26.2,30.9-28.6c1.3-0.4,2.3-0.7,3.1-1
				c0.3-0.1,0.6-0.1,0.8,0.1c0.2,0.2,0.4,0.4,0.4,0.7c0,6.4,1.7,11.2,5,14.2c5.4,4.8,13.7,3.8,16.9,3.4l0.2,0
				c8.6-1,25-10.2,25.9-24.2c0-0.2,0.1-0.4,0.3-0.6c0.2-0.2,0.4-0.2,0.6-0.2c13.9,0.9,27,6.4,39,16.4c18.6,15.5,25.4,35.6,32.6,56.9
				c1.5,4.4,3,9,4.7,13.5c8.1,22.1,3.4,44.1-0.7,53.6C890.1,771.9,887.7,772.8,886.3,772.8z M752.9,723c0.2,0,0.5,0.1,0.6,0.3
				c2.3,2.3,4.4,4.7,6.4,7c4.1,4.7,8,9.2,13.3,12.1c22.9,12.4,98.1,26.1,112.9,28.7c0.8,0.1,2.7-0.7,2.9-1.1
				c0.4-1,10.5-25.3,0.6-52.3l0,0c-1.7-4.5-3.2-9.1-4.7-13.5c-7.1-21-13.8-40.9-32-56.1c-11.5-9.6-24-14.9-37.2-16
				c-1.6,14.4-18.4,23.9-27.3,24.9l-0.2,0c-3.4,0.4-12.3,1.5-18.2-3.8c-3.5-3.1-5.4-7.9-5.6-14.2c-0.6,0.2-1.3,0.4-2.1,0.6
				c-8.1,2.4-23.1,7-29.7,27.4c-0.6,1.9-1.4,4.9-2.3,8.8c-3.7,15.3-10.5,43.7-26,61.5c-0.7,0.8-1.5,0.9-2,0.8
				c-2.2-0.5-3.6-4.9-6.1-12.6c-1.9-6.1-4.3-13.8-6.7-14.9c-0.3-0.1-0.5-0.2-0.8-0.1c-8.8,3.1-13.2,7.1-13.6,12c-0.4,5,4,9.2,8.3,11
				c5.1,2.2,8.6,8.2,12.1,14c3.9,6.6,7.6,12.8,13.2,13.6l1.2,0.2c11.5,1.7,28.8,4.2,42.2-37.6c0.1-0.3,0.3-0.5,0.6-0.6
				C752.7,723,752.8,723,752.9,723z"/>
		</g>
	</g>
	<g>
		<path class="st8" d="M862.7,742.3c-21.2-1.2-42.6-2.6-64-4.1c-1.9-0.3-11.4-1.7-13.8-2c-2-0.3-3.9-1-5.7-1.9c-6.4-2.9-20-8.7-23-7
			c-7,2.1-13.4,7.1-18.3,13.5c-2.8,3.6-5.1,9.6-3.9,10.6c0.7,0.7,1.8,0.9,2.7,0.2c3.3-7.1,9.2-12.9,16.3-16.2
			c-3.3,1.9-6.4,4.1-9.2,6.7c-2.8,2.6-5.4,5.8-6,9.6c0,0.3-0.1,0.6,0.1,0.9c0.4,0.6,1.4,0.3,1.9-0.2c1.1-0.9,15.7-12.8,18.5-12.4
			c-3.6,1.4-16.6,11.9-16.6,13c0,0.5,0.1,1.1,0.4,1.5c0.5,0.6,1.3,0.8,2,0.6c0.7-0.1,1.4-0.5,2-0.9c4.2-2.5,8-5.7,12.5-7.6
			c2.3-0.9,5-1.5,7-0.1c-4,1.5-7.8,3.7-10.9,6.6c-0.5,0.5-0.9,1-1.3,1.6c-0.5,0.9-1.1,2.2-0.4,2.9c1.1,1.2,2.1,0.6,3,0
			c3.9-2.6,7.8-4.7,12-6.3c1.3-0.5,2.8-1,4-0.2c1,0.6,5.9,3.7,15.9,4.2c3.4,0.2,6.7,1.1,11,2.2c56.3,15.5,73.1,21.7,86.7,15.8
			c2.7-1.1,3.6-2.5,2.7-7.1C886,754.2,883.6,747.3,862.7,742.3z"/>
		<path d="M874.2,776.7c-10.8,0-26.2-4.3-55.1-12.4c-6.1-1.7-13-3.6-20.5-5.7c-4-1.1-7.4-2-10.8-2.2c-9.4-0.5-14.5-3.2-16.3-4.3
			c-0.8-0.5-2.1-0.1-3.2,0.3c-4,1.6-7.9,3.6-11.8,6.2l-0.1,0.1c-0.9,0.5-2.5,1.5-4.1-0.2c-0.8-0.9-0.7-2.2,0.2-3.9
			c0.4-0.7,0.9-1.3,1.4-1.8c2.6-2.4,5.7-4.4,9.1-6c-1.4-0.1-3,0.3-4.3,0.8c-2.9,1.2-5.6,3.1-8.3,4.8c-1.3,0.9-2.7,1.8-4.1,2.7
			c-0.7,0.4-1.4,0.8-2.3,1c-1.1,0.2-2.2-0.2-2.8-0.9c-0.4-0.5-0.6-1.3-0.6-2.1c0,0,0-0.1,0-0.2c-0.2,0.2-0.4,0.3-0.5,0.4
			c-0.3,0.2-1.2,0.9-2.2,0.7c-0.4-0.1-0.8-0.3-1.1-0.7c-0.1-0.2-0.2-0.4-0.2-0.6c-1,0.6-2.4,0.5-3.5-0.5c-1.9-1.7,1.4-8.7,3.8-11.8
			c5.4-7,11.9-11.8,18.7-13.8c3.7-1.8,17.8,4.3,23.7,7c1.5,0.7,3.4,1.5,5.5,1.8c0.6,0.1,1.8,0.3,3.2,0.5c3.8,0.6,9.1,1.3,10.6,1.6
			c20.9,1.4,42.4,2.9,63.9,4.1c0.1,0,0.1,0,0.2,0c21.4,5.1,23.8,12.4,26.3,24.9c0.9,4.6,0.1,6.7-3.2,8.1
			C882.4,775.9,878.7,776.7,874.2,776.7z M770.6,750c0.7,0,1.3,0.1,1.9,0.5c1.7,1.1,6.5,3.6,15.5,4.1c3.6,0.2,7.1,1.2,11.2,2.3
			c7.5,2.1,14.4,4,20.5,5.7c40.5,11.3,54.1,15.1,65.7,10.2c2.2-0.9,3-1.8,2.2-6.2c-2.3-12.1-4.5-18.6-24.9-23.5
			c-21.5-1.2-43-2.7-63.9-4.1c0,0-0.1,0-0.1,0c-1.4-0.2-6.9-1-10.6-1.6c-1.4-0.2-2.5-0.4-3.2-0.5c-2.3-0.3-4.4-1.2-5.9-1.9
			c-11.2-5.2-20.4-8.1-22.2-7c-0.1,0-0.1,0.1-0.2,0.1c-6.4,1.9-12.7,6.6-17.9,13.2c-2.8,3.6-4.4,8.5-4,9.4c0.4,0.3,0.9,0.5,1.4,0.3
			c3.4-7.1,9.4-13.1,16.6-16.4c0.4-0.2,0.9,0,1.1,0.4c0.2,0.4,0.1,0.9-0.3,1.2c-3.2,1.8-6.3,4.1-9,6.6c-3.4,3.2-5.2,6.1-5.7,9.1
			c0,0.1,0,0.1,0,0.2c0.2,0,0.4-0.1,0.6-0.3c0.1-0.1,0.3-0.2,0.5-0.4c15.7-12.6,17.8-12.3,18.6-12.2c0.4,0,0.7,0.4,0.8,0.8
			c0,0.4-0.2,0.8-0.6,0.9c-3.3,1.2-15,10.7-16.1,12.4c0,0.3,0.1,0.6,0.2,0.8c0.2,0.3,0.7,0.4,1.2,0.3c0.6-0.1,1.1-0.4,1.7-0.8
			c1.4-0.8,2.7-1.8,4.1-2.7c2.7-1.8,5.5-3.7,8.6-5c3.2-1.3,5.9-1.3,7.8,0c0.3,0.2,0.4,0.5,0.4,0.8c0,0.3-0.3,0.6-0.6,0.7
			c-4.1,1.6-7.7,3.7-10.7,6.5c-0.4,0.4-0.8,0.9-1.1,1.4c-0.6,1.1-0.7,1.7-0.5,1.9c0.6,0.6,0.8,0.5,1.9-0.1l0.1,0
			c4-2.6,7.9-4.7,12.1-6.4C768.6,750.4,769.6,750,770.6,750z"/>
	</g>
	<g>
		<g>
			<path d="M722.2,769.7c17.6,0.4,35.2,0.8,52.9,1.1l0.1-9l-58.8-1.4L722.2,769.7z"/>
		</g>
		<g>
			<g>
				<polygon class="st8" points="572,687.7 686.9,688.3 726.5,769.7 612.7,769.4 				"/>
				<path d="M726.5,770.5C726.5,770.5,726.5,770.5,726.5,770.5l-113.8-0.3c-0.3,0-0.6-0.2-0.8-0.5l-40.7-81.7
					c-0.1-0.3-0.1-0.6,0-0.9c0.2-0.3,0.4-0.4,0.7-0.4c0,0,0,0,0,0l114.9,0.6c0.3,0,0.6,0.2,0.8,0.5l39.6,81.4c0.1,0.3,0.1,0.6,0,0.8
					C727.1,770.4,726.8,770.5,726.5,770.5z M613.2,768.5l111.9,0.3l-38.8-79.6l-113-0.6L613.2,768.5z"/>
			</g>
			<g>
				<path class="st8" d="M644.7,720.8c-3.3-0.3-6.8,0.6-8.2,3.5c-1.3,3-0.3,6.8,2.1,9c2.4,2.2,6,2.9,9.2,2.2
					c1.7-0.4,3.4-1.2,4.4-2.7c0.7-1,1-2.3,1-3.5C653.3,725.3,651.4,721.5,644.7,720.8z"/>
				<path d="M645.4,736.7c-2.8,0-5.4-1-7.3-2.7c-2.8-2.5-3.8-6.7-2.3-10c1.3-3,4.7-4.5,9-4.1l0,0c7.8,0.8,9.4,5.5,9.4,9.4
					c0,1.5-0.4,2.9-1.1,4c-1.3,1.9-3.4,2.7-5,3.1C647.1,736.6,646.2,736.7,645.4,736.7z M643.4,721.7c-1.9,0-4.9,0.4-6.1,3.1
					c-1.1,2.6-0.3,5.9,1.9,8c2.1,1.9,5.3,2.7,8.4,2c1.8-0.4,3.2-1.2,3.9-2.3c0.7-1,0.8-2.2,0.8-3c0-4.6-2.5-7.1-7.8-7.7l0,0
					C644.3,721.7,643.9,721.7,643.4,721.7z"/>
			</g>
		</g>
	</g>
	<g>
		<path d="M850.1,742.4c-0.4,0-0.7-0.2-0.8-0.6c-8-24.2-12.5-39.6-12.5-72.8c0-0.5,0.4-0.9,0.9-0.9c0.5,0,0.9,0.4,0.9,0.9
			c0,33,4.5,48.2,12.4,72.2c0.2,0.5-0.1,1-0.6,1.1C850.2,742.4,850.1,742.4,850.1,742.4z"/>
	</g>
	<g>
		<path d="M752.9,724.7c-0.3,0-0.5-0.1-0.7-0.4c-10.3-14.9-7.5-25.8-4.8-36.3c1.3-5.2,2.7-10.7,2.5-16.6c0-0.5,0.4-0.9,0.8-0.9
			c0.5,0,0.9,0.4,0.9,0.8c0.2,6.2-1.2,11.7-2.6,17.1c-2.7,10.6-5.3,20.7,4.6,34.9c0.3,0.4,0.2,0.9-0.2,1.2
			C753.2,724.7,753.1,724.7,752.9,724.7z"/>
	</g>
	<g>
		<path d="M786.5,688.1c-10.4,0-20.9-0.9-31-3.5c-0.2,0-0.3-0.2-0.2-0.4c0-0.2,0.2-0.2,0.4-0.2c25.7,6.4,53.5,2.6,77.9-0.9
			c0.2,0,0.3,0.1,0.3,0.2c0,0.2-0.1,0.3-0.2,0.3C818.7,685.9,802.6,688.1,786.5,688.1z"/>
	</g>
	<g>
		<path d="M795.9,708.2c-15.3,0-30.7-1.8-45.5-5.4c-0.2,0-0.3-0.2-0.2-0.4c0-0.2,0.2-0.3,0.4-0.2c27.2,6.7,56.1,7.2,83.6,1.6
			c0.2,0,0.3,0.1,0.3,0.2c0,0.2-0.1,0.3-0.2,0.3C821.6,706.9,808.8,708.2,795.9,708.2z"/>
	</g>
	<g>
		<path d="M892.2,748.9c-0.1,0-0.2,0-0.2-0.1c-9.6-11.3-25.3-17-39.9-14.5c-0.2,0-0.3-0.1-0.3-0.2c0-0.2,0.1-0.3,0.2-0.3
			c14.8-2.5,30.7,3.2,40.5,14.7c0.1,0.1,0.1,0.3,0,0.4C892.4,748.9,892.3,748.9,892.2,748.9z"/>
	</g>
	<g>
		<path d="M890.5,738.5c0,0-0.1,0-0.1,0c-1.6-0.6-2.8-1.8-4.1-2.9c-0.4-0.4-0.9-0.8-1.3-1.1c-2.7-2.2-6-3.7-9.5-4.2
			c-0.2,0-0.3-0.2-0.2-0.3c0-0.2,0.2-0.3,0.3-0.2c3.6,0.5,7,2,9.8,4.3c0.5,0.4,0.9,0.8,1.3,1.2c1.2,1.1,2.4,2.2,3.9,2.8
			c0.1,0.1,0.2,0.2,0.2,0.4C890.7,738.4,890.6,738.5,890.5,738.5z"/>
	</g>
</g>
<g>
	<path d="M890.5,770.2c-0.5,0-0.9-0.4-0.9-0.9c0-0.5,0.4-0.9,0.9-0.9c28-0.1,55.3-0.1,83.5,0c0.5,0,0.9,0.4,0.9,0.9
		c0,0.5-0.4,0.9-0.9,0.9c0,0,0,0,0,0C945.9,770.1,918.5,770.1,890.5,770.2C890.5,770.2,890.5,770.2,890.5,770.2z"/>
</g>
<g>
	<path d="M840.6,770.5L840.6,770.5c-241.1-0.1-485.7-0.1-726.8,0c-0.5,0-0.9-0.4-0.9-0.9c0-0.5,0.4-0.9,0.9-0.9
		c241.1-0.1,485.6-0.1,726.8,0c0.5,0,0.9,0.4,0.9,0.9C841.5,770.1,841.1,770.5,840.6,770.5z"/>
</g>
<g>
	<path d="M535.4,770.2C535.4,770.2,535.4,770.2,535.4,770.2c-0.5,0-0.9-0.5-0.9-0.9c0.9-12-0.6-30.4-2-48.2
		c-0.7-8.2-1.3-16-1.7-23.1c0-0.5,0.3-0.9,0.8-0.9c0.5,0,0.9,0.3,0.9,0.8c0.4,7.1,1,14.9,1.7,23.1c1.4,17.9,2.9,36.4,2,48.5
		C536.2,769.8,535.9,770.2,535.4,770.2z"/>
</g>
<g>
	<g>
		<path class="st8" d="M332.7,578.9c-2.7,11.5-2.7,27.4-2.7,27.4l6.7,2.7c0,0,6.4,26.2-33.8,18.2c-7.8-1.6-30.4-18.7-30.4-18.7
			l17.9-5.1c0,0,1.7-26,2.4-38.8C302.2,569,321.5,575.4,332.7,578.9z"/>
		<path d="M316.7,629.7c-4.1,0-8.7-0.5-13.9-1.5c-7.9-1.6-29.8-18.2-30.7-18.9c-0.3-0.2-0.4-0.5-0.3-0.9c0.1-0.3,0.3-0.6,0.6-0.7
			l17.3-4.9c0.3-4,1.7-26.6,2.4-38.2c0-0.3,0.2-0.6,0.4-0.7c0.2-0.1,0.6-0.2,0.8,0c8.9,4.1,27,10.3,39.8,14.3c0.4,0.1,0.7,0.6,0.6,1
			c-2.3,10-2.6,23.7-2.7,26.7l6.2,2.5c0.3,0.1,0.5,0.3,0.5,0.6c0.1,0.4,2.1,9-3.8,15.1C330.2,627.8,324.5,629.7,316.7,629.7z
			 M274.5,608.9c5,3.7,22.2,16.2,28.6,17.5c14.4,2.9,24.3,1.7,29.4-3.6c4.5-4.7,3.7-11.3,3.4-13.1l-6.3-2.6
			c-0.3-0.1-0.5-0.5-0.5-0.8c0-0.2,0.1-15.5,2.5-26.9c-12.2-3.8-28.9-9.5-38-13.6c-0.7,13.1-2.3,37.3-2.3,37.6
			c0,0.4-0.3,0.7-0.6,0.8L274.5,608.9z"/>
	</g>
	<g>
		<g>
			<g>
				<path d="M313.1,482.6c-18-0.7-35.5,10.9-34.1,20.3c-8.6-2.5-18.4,13.9-18.1,21.6c0.4,9.9,19.7,42.6,23.9,47.7
					c1.9,2.4,3.3,3.6,6.7,4.6c-0.2-2.7,2.4-4.5,2.4-7.2c0.1-3.4-4.5-9.3-0.9-9.2c17,0.4,14.8,4.3,47.1-27.1c4.1-4,6.8-13.7,7.7-21
					C348.6,505.3,343.6,483.8,313.1,482.6z"/>
				<path d="M291.4,577.8c-0.1,0-0.2,0-0.3,0c-3.6-1.1-5.1-2.4-7.1-4.9c-4.3-5.4-23.6-38.3-24-48.2c-0.3-5.9,4.8-15.7,10.5-20.2
					c2.5-2,5.1-2.9,7.5-2.6c0-2.7,1.3-5.6,3.8-8.3c5.4-6,17.6-12.3,31.3-11.7c12.7,0.5,22.7,4.7,29,12c5.3,6.3,7.1,14.1,6.5,18.7
					c-1,7.8-3.8,17.4-8,21.5c-29.1,28.3-30.7,28.2-42.9,27.6c-1.4-0.1-3-0.2-4.8-0.2c-0.3,0-0.4,0.1-0.4,0.1
					c-0.2,0.4,0.5,2.3,0.9,3.4c0.7,1.7,1.3,3.4,1.3,4.9c0,1.5-0.7,2.8-1.4,3.9c-0.6,1.1-1.2,2.1-1.1,3.2c0,0.3-0.1,0.6-0.3,0.7
					C291.8,577.7,291.6,577.8,291.4,577.8z M277.2,503.6c-2.1,0-4.1,1.2-5.5,2.3c-5.7,4.5-10.1,13.9-9.8,18.7
					c0.4,9.5,19.6,42.1,23.7,47.2c1.6,2,2.8,3.1,5.2,3.9c0.2-1.1,0.7-2.1,1.2-3c0.6-1,1.1-2,1.1-3.1c0-1.1-0.6-2.8-1.2-4.2
					c-0.8-2.1-1.5-3.9-0.7-5c0.4-0.6,1-0.8,1.9-0.8c1.8,0,3.5,0.1,4.9,0.2c11.8,0.6,13,0.7,41.6-27.1c3.9-3.8,6.5-13,7.5-20.5
					c0.4-3.1-0.4-10.6-6.1-17.3c-6-7.1-15.3-10.9-27.7-11.4l0,0c-13.2-0.5-24.7,5.4-29.9,11.2c-2.5,2.8-3.7,5.6-3.3,8.1
					c0,0.3-0.1,0.6-0.3,0.8c-0.2,0.2-0.5,0.3-0.8,0.2C278.2,503.6,277.7,503.6,277.2,503.6z"/>
			</g>
		</g>
		<g>
			<g>
				<path class="st8" d="M341.1,528.3c0-0.2-6.2,0.6-11.3-6.8c-1,3.9-1.5,8-9.6,7.6c-3.9-0.2-9.6-6.5-11-10.3c0,0,8.5-2-28.5,14.2
					c0,0.8,0.1,1.5,0.1,2.2c0.1,2.6,0.2,8.3,1.6,13.9c-4.9-3-8.4-1.9-10.7,1.3c-2.3,3.1-1.5,7.4,1.6,9.7c3,2.3,7.8,2.7,11.8,1.2
					c2.1,6.7,5.6,20.2,11.3,25.6c6,5.7,15.6,8.6,24.9,7.4c9.3-1.2,18.1-6.4,22.8-13.5c5.4-8.1,5.5-17.7,3.6-26.5
					C345.9,545.5,342.4,537.1,341.1,528.3z"/>
				<path d="M317,595.5c-8.1,0-16-2.9-21.3-7.9c-5.2-5-8.6-16.3-10.8-23.7c-0.1-0.5-0.3-1-0.4-1.4c-4.2,1.2-8.8,0.6-11.7-1.6
					c-3.5-2.7-4.3-7.5-1.7-10.9c2.5-3.4,6.1-4.2,10.1-2.4c-1-4.9-1.2-9.6-1.2-12.1l0-0.2c0-0.7-0.1-1.4-0.1-2.2
					c0-0.4,0.2-0.7,0.5-0.9c19.6-8.6,25.9-11.9,28-13.1c-0.1-0.2-0.1-0.5,0.1-0.7c0.1-0.2,0.3-0.4,0.6-0.4c1-0.2,1.7-0.1,1.9,0.6
					c0.1,0.4,0.1,0.7-0.3,1.1c1.9,3.6,6.6,8.5,9.7,8.6c6.8,0.3,7.6-2.6,8.5-6.3l0.2-0.7c0.1-0.3,0.4-0.6,0.7-0.6
					c0.3-0.1,0.7,0.1,0.9,0.4c2.8,4,6.3,6.1,10.3,6.4c0.4,0,1.1,0.1,1.2,0.8l0,0c0.7,4.9,2.2,9.9,3.6,14.6c1.1,3.7,2.2,7.5,3.1,11.4
					c2.3,10.9,1,20.1-3.8,27.2c-4.9,7.3-13.9,12.6-23.5,13.9C319.9,595.4,318.5,595.5,317,595.5z M285.1,560.4c0.1,0,0.3,0,0.4,0.1
					c0.2,0.1,0.4,0.3,0.4,0.5c0.2,0.7,0.4,1.5,0.7,2.3c2,6.8,5.5,18.3,10.4,23c5.8,5.6,15.1,8.3,24.2,7.1
					c9.1-1.2,17.6-6.2,22.2-13.1c4.5-6.7,5.7-15.4,3.5-25.9c-0.8-3.8-1.9-7.6-3-11.3c-1.4-4.6-2.8-9.3-3.6-14.2
					c-3.9-0.3-7.3-2.2-10.2-5.6c-0.9,3.4-2.5,6.9-10,6.5c-3.8-0.2-8.9-5.3-11.1-9.3c-0.8,0.5-2,1.1-3.6,1.9
					c-4.8,2.4-12.8,6.1-23.9,11c0,0.6,0.1,1.1,0.1,1.6l0,0.2c0.1,2.7,0.2,8.2,1.6,13.6c0.1,0.3,0,0.7-0.3,0.9c-0.3,0.2-0.7,0.2-1,0
					c-4-2.5-7.2-2.1-9.5,1c-2,2.7-1.4,6.4,1.4,8.5c2.7,2.1,7.1,2.5,10.9,1.1C284.9,560.4,285,560.4,285.1,560.4z M340.2,528.4
					C340.2,528.4,340.2,528.4,340.2,528.4C340.2,528.4,340.2,528.4,340.2,528.4C340.2,528.4,340.2,528.4,340.2,528.4z"/>
			</g>
		</g>
		<g>
			<path d="M334.7,542.3c0-1.1-1-2-2.2-1.9c-1.2,0-2.1,1-2.1,2.1c0,1.1,1,2,2.2,1.9C333.8,544.3,334.7,543.4,334.7,542.3z"/>
		</g>
		<g>
			<path d="M305.6,548.1c0-1.1-1-2-2.2-1.9c-1.2,0-2.1,1-2.1,2.1c0,1.1,1,2,2.2,1.9C304.8,550.2,305.7,549.2,305.6,548.1z"/>
		</g>
		<g>
			<path d="M317.7,581.5c-2.7,0-5.4-0.9-7.4-2.7c-0.4-0.3-0.4-0.9-0.1-1.2c0.3-0.4,0.9-0.4,1.2-0.1c2.7,2.3,6.6,3,9.9,1.6
				c0.4-0.2,1,0,1.1,0.5c0.2,0.4,0,1-0.5,1.1C320.7,581.2,319.2,581.5,317.7,581.5z"/>
		</g>
		<g>
			<path d="M321.3,569.7C321.3,569.7,321.2,569.7,321.3,569.7c-2.4,0-4.5-0.9-5.8-2.4c-0.3-0.4-0.3-0.9,0.1-1.2
				c0.4-0.3,0.9-0.3,1.2,0.1c1,1.1,2.7,1.8,4.5,1.8c1.6,0,3.3-0.5,5-1.4c0.6-0.3,1.2-0.7,1.6-1.3c0.4-0.7,0.5-1.7,0.1-2.7
				c-0.3-0.9-0.9-1.7-1.5-2.5l-0.3-0.4c-3.4-5-5.7-10.8-6.5-16.8c-0.1-0.5,0.3-0.9,0.7-1c0.5-0.1,0.9,0.3,1,0.7
				c0.8,5.7,2.9,11.3,6.2,16.1l0.3,0.4c0.6,0.9,1.3,1.8,1.7,2.9c0.6,1.6,0.5,3.1-0.3,4.3c-0.6,0.9-1.5,1.4-2.3,1.9
				C325.1,569.2,323.1,569.7,321.3,569.7z"/>
		</g>
		<g>
			<path d="M283.6,554.4c-0.4,0-0.7-0.3-0.8-0.6c-0.7-2.4-1-3.7-1.5-6c-0.1-0.5,0.2-0.9,0.6-1.1c0.5-0.1,0.9,0.2,1.1,0.6
				c0.6,2.3,0.9,3.6,1.5,5.9c0.1,0.5-0.1,0.9-0.6,1.1C283.7,554.4,283.6,554.4,283.6,554.4z"/>
		</g>
	</g>
	<g>
		<path class="st9" d="M283.5,707.4c4.6-40.3,4.5-80.1,1.2-103c-15.8,1-42.6,5.1-54,14.6c-23.6,19.7-23.7,51.2-29.2,80.5
			c-5.1,27-7.5,53.6-0.3,62.8c0.7,0.9,6,4.4,7.1,4.2c3.3-0.6,26.4-24.7,26.4-17.5c0,14.5-1.8,20.3-1.8,20.3h39.8
			C272.7,769.3,282,721.1,283.5,707.4z"/>
		<path d="M272.7,770.2h-39.8c-0.3,0-0.5-0.1-0.7-0.4c-0.2-0.2-0.2-0.5-0.1-0.8c0-0.1,1.8-5.9,1.8-20c0-0.4-0.1-0.5-0.1-0.5
			c0,0-1-0.4-5.7,3.1c-3,2.3-6.6,5.4-9.8,8.2c-5.3,4.6-8.4,7.2-9.8,7.5c-1.6,0.3-7.3-3.6-7.9-4.5c-8-10.2-4.4-40.2,0.1-63.5
			c1-5.5,1.9-11.2,2.7-16.6c3.6-23.7,7.4-48.2,26.8-64.4c10.8-9,36.1-13.6,54.5-14.8c0.4,0,0.9,0.3,0.9,0.7
			c3.6,25,3.2,65.5-1.2,103.3l-0.9-0.1l0.9,0.1c-1.6,13.6-10.8,61.5-10.9,62C273.5,769.9,273.1,770.2,272.7,770.2z M234,768.4h38
			c1.2-6,9.3-48.5,10.7-61.1l0,0c4.2-37.2,4.7-77.1,1.3-102c-18,1.2-42.4,5.7-52.7,14.3c-18.9,15.8-22.5,38.9-26.2,63.3
			c-0.8,5.5-1.7,11.2-2.8,16.7c-6.3,33-6.4,54.4-0.4,62.1c0.6,0.7,5.3,3.8,6.3,3.9c0.9-0.2,5.3-4,8.9-7.1c9.2-8,14.9-12.7,17.4-11.6
			c0.5,0.2,1.1,0.8,1.1,2C235.5,760.1,234.5,766.1,234,768.4z"/>
	</g>
	<g>
		<path class="st9" d="M403.8,748.4c12.3-1.5,23.4-47.4,4.7-50.6c-2.6-0.4-13.5-44.2-35.4-71.7c-11.7-14.7-36.6-18.3-40.1-19.7
			c16.1,27.8-9.3,162.9-9.3,162.9l33.3,0.1c0,0,7.5-49.8,9-61.3c1.1,6.5,9.5,21.2,18.9,32.5c3.5,4.2,6.7,3.4,8.9,5.6
			C396.2,748.7,400.9,748.7,403.8,748.4z"/>
		<path d="M356.9,770.2C356.9,770.2,356.9,770.2,356.9,770.2l-33.3-0.1c-0.3,0-0.5-0.1-0.7-0.3c-0.2-0.2-0.2-0.5-0.2-0.7
			c0.3-1.3,25.2-135.1,9.4-162.3c-0.2-0.3-0.1-0.7,0.1-1c0.2-0.3,0.6-0.4,1-0.2c0.6,0.2,1.9,0.6,3.6,1c8.1,2,27.1,6.7,36.9,19
			c15.1,19.1,25.2,46.1,30.6,60.7c1.9,5.1,3.7,10,4.4,10.8c7,1.3,10.8,8.4,10.5,19.6c-0.3,14-7.3,31.6-15.4,32.6
			c-2.8,0.3-7.9,0.5-10.8-2.4c-0.8-0.8-1.7-1.1-2.8-1.5c-1.7-0.6-3.9-1.4-6.1-4.1c-7.7-9.1-15-21.1-17.9-28.8
			c-2.2,16.1-8.4,56.7-8.4,57.1C357.7,769.9,357.3,770.2,356.9,770.2z M324.7,768.4l31.5,0.1c0.9-6.3,7.5-49.9,8.8-60.5
			c0.1-0.4,0.4-0.8,0.8-0.8c0.4,0,0.8,0.3,0.9,0.7c1.1,6.6,9.7,21.3,18.7,32.1c1.9,2.3,3.7,3,5.4,3.6c1.2,0.5,2.4,0.9,3.5,1.9
			c2.5,2.5,7.4,2.2,9.4,1.9l0.1,0.9l-0.1-0.9c6.5-0.8,13.6-16.4,13.9-31c0.1-4.9-0.6-16.4-9.3-17.9c-1.2-0.2-2-2.1-5.6-11.8
			c-5.4-14.5-15.3-41.4-30.3-60.2c-9.4-11.9-28-16.4-36-18.4c-0.7-0.2-1.3-0.3-1.8-0.4C348.3,637.9,327.1,755.2,324.7,768.4z
			 M408.8,697L408.8,697L408.8,697z"/>
	</g>
	<g>
		<path d="M241.9,739.9c-0.1,0-0.1,0-0.2,0c-0.5-0.1-0.7-0.6-0.6-1.1c3.3-12.6,5.2-25.6,8-43.7c1.9-12.3,4.2-27.6,7.6-47
			c0.1-0.5,0.5-0.8,1-0.7c0.5,0.1,0.8,0.5,0.7,1c-3.4,19.4-5.7,34.6-7.6,46.9c-2.8,18.1-4.7,31.2-8,43.8
			C242.6,739.7,242.3,739.9,241.9,739.9z"/>
	</g>
	<g>
		<path d="M365.9,709c-0.2,0-0.5-0.1-0.7-0.3c-0.2-0.3-0.3-0.6-0.1-0.9c0.3-1.3,1.3-13.6,2.3-25.5c0.6-7.8,1.4-16.6,2.1-24.1
			c0-0.5,0.5-0.8,0.9-0.8c0.5,0,0.8,0.5,0.8,0.9c-0.7,7.6-1.4,16.3-2.1,24.1c-2.2,25.9-2.2,25.9-2.7,26.3
			C366.3,708.9,366.1,709,365.9,709z M365.3,707.5C365.3,707.5,365.3,707.5,365.3,707.5C365.3,707.5,365.3,707.5,365.3,707.5z
			 M365.3,707.5C365.3,707.5,365.3,707.5,365.3,707.5C365.3,707.5,365.3,707.5,365.3,707.5z"/>
	</g>
	<g>
		<path d="M200.2,739.3c-0.1,0-0.1,0-0.2-0.1c-0.1-0.1-0.1-0.3,0-0.4c9.1-9.1,24-13.6,37.8-11.6c0.2,0,0.3,0.2,0.2,0.3
			c0,0.2-0.2,0.3-0.3,0.2c-13.7-2-28.4,2.5-37.3,11.5C200.3,739.3,200.2,739.3,200.2,739.3z"/>
	</g>
	<g>
		<path d="M201.3,743.7c-0.1,0-0.2-0.1-0.3-0.2c-0.1-0.1,0-0.3,0.2-0.4c1.6-0.6,2.9-1.8,4.1-2.9c0.5-0.4,0.9-0.8,1.4-1.2
			c3-2.4,6.5-4,10.3-4.6c0.2,0,0.3,0.1,0.3,0.2c0,0.2-0.1,0.3-0.2,0.3c-3.7,0.5-7.2,2.1-10,4.4c-0.5,0.4-0.9,0.8-1.4,1.2
			c-1.3,1.2-2.6,2.4-4.3,3C201.4,743.7,201.3,743.7,201.3,743.7z"/>
	</g>
	<g>
		<path d="M316,638.2c-7.3,0-14.7-1.7-21.2-4.9c-0.1-0.1-0.2-0.2-0.1-0.4c0.1-0.1,0.2-0.2,0.4-0.1c8.7,4.3,18.8,5.8,28.4,4.3
			c5.1-0.8,8.7-2.5,10.9-5c0.1-0.1,0.3-0.1,0.4,0c0.1,0.1,0.1,0.3,0,0.4c-2.4,2.7-6,4.4-11.3,5.2C321.1,638,318.5,638.2,316,638.2z"
			/>
	</g>
	<g>
		<g>
			<path class="st8" d="M457.1,661.1c7.8-7.8,4.6-13.3,13.4-23.7c3.7-4.3,7.2-8.1,10.4-11.5c1.7-1.8,3.2-4.1,5-2.6
				c2.1,1.8-0.2,6.5-1.2,8.1c-4,5.9-3.7,7.9-3.5,10.1c6.9-5.3,17.7-12.5,26-15.2c0.6-0.2,2.2-0.1,2.6,0.4c0.6,0.8,0,2.7-1.2,3.6
				c-5,3.5-12.2,8.6-17.2,12.1c9-5.7,20.7-12.9,22.6-10.5c0.6,0.7,0.3,2.7-1,3.7c-5.4,3.9-12.5,8.8-17.8,12.7
				c4.6-3.9,18.9-12.3,20-9.3c1.1,3-12.1,11.3-17.6,14.7c4.5-2.8,15.1-9.4,16.2-6.6c0.9,2.1-2.3,4-3.3,4.9
				c-8.4,6.5-18.3,15.4-27.5,18.7c-2.2,0.8-5.5,1.1-7.4,2.5c-2,1.4-3.1,3.2-4.7,5c-45.2,51.4-59.5,68.9-67.6,67.2
				c-6.8-1.5-1.7-29.3,5.2-47.5C412.2,697.9,440.5,677.8,457.1,661.1z"/>
			<path d="M404.3,746.3c-0.4,0-0.9,0-1.3-0.1c-1.1-0.2-2-0.9-2.6-2.1c-3.7-6.8,0.8-30,7.2-46.5c0.1-0.3,0.5-0.6,0.8-0.6
				c0,0,0,0,0,0c3.3,0,31.2-19.7,48-36.4c3.8-3.8,4.9-6.9,6.1-10.5c1.3-3.6,2.7-7.8,7.2-13.1c3.5-4.2,7-7.8,10.5-11.5
				c0.2-0.3,0.5-0.5,0.7-0.8c1.4-1.6,3.3-3.7,5.5-1.9c2.7,2.3,0,7.5-1.1,9.2c-2.9,4.2-3.4,6.3-3.5,7.9c7.3-5.5,17.3-11.8,25-14.3
				c0.8-0.3,2.9-0.2,3.6,0.8c0.3,0.5,0.5,1.2,0.3,1.9c-0.1,0.9-0.7,2.1-1.7,2.9c-0.5,0.4-1,0.7-1.6,1.1c4.1-1.8,6.2-2,7.2-0.8
				c0.4,0.5,0.6,1.2,0.4,2.1c-0.2,1.1-0.8,2.2-1.6,2.8c-0.7,0.5-1.5,1.1-2.3,1.6c1.4-0.5,2.6-0.7,3.5-0.5c0.6,0.2,1.1,0.6,1.3,1.1
				c0.3,0.7,0.9,2.3-5.1,7.1c1-0.3,1.9-0.3,2.5-0.1c0.6,0.2,1,0.6,1.2,1.1c1.1,2.5-1.8,4.6-3.2,5.6c-0.2,0.1-0.3,0.2-0.4,0.3
				c-1.6,1.2-3.2,2.6-5,3.9c-7.1,5.7-15.2,12.2-22.8,14.9c-0.8,0.3-1.7,0.5-2.6,0.7c-1.7,0.4-3.5,0.9-4.6,1.7
				c-1.3,1-2.2,2.1-3.2,3.3c-0.4,0.5-0.8,1-1.3,1.5c-4.2,4.8-8.2,9.4-11.9,13.6C425.1,731.6,412.3,746.3,404.3,746.3z M409.1,698.6
				c-6,15.8-10.3,38.6-7.1,44.6c0.4,0.7,0.9,1.1,1.4,1.2c6.9,1.5,19.9-13.5,54.9-53.3c3.7-4.2,7.7-8.8,11.9-13.6
				c0.4-0.5,0.9-1,1.2-1.5c1.1-1.3,2.1-2.5,3.6-3.6c1.4-1,3.3-1.5,5.2-1.9c0.9-0.2,1.7-0.4,2.4-0.7c7.3-2.6,15.2-9,22.3-14.6
				c1.7-1.4,3.4-2.7,5-4c0.1-0.1,0.3-0.2,0.5-0.4c1.1-0.8,3.1-2.3,2.6-3.5c0,0,0-0.1-0.1-0.1c-1.8-0.6-8.1,3-12.2,5.5
				c-0.9,0.5-1.7,1.1-2.7,1.7c-0.4,0.2-0.9,0.1-1.2-0.3c-0.3-0.4-0.1-0.9,0.3-1.2l0.1-0.1c0.8-0.5,1.6-1,2.4-1.5
				c12.3-7.7,15.1-11.3,14.8-12.1c-0.3-0.2-2.4-0.2-8.1,2.9c-1.7,0.9-3.5,2-5.2,3c-1.9,1.3-3.8,2.7-5.4,3.9
				c-0.4,0.3-0.9,0.2-1.2-0.2c-0.3-0.4-0.2-0.9,0.1-1.2c1.1-0.9,3-2.3,5.3-3.8c1.2-0.9,2.4-1.7,3.7-2.6c3.1-2.2,6.2-4.4,8.9-6.3
				c0.6-0.4,0.8-1.1,0.9-1.6c0.1-0.4,0-0.7-0.1-0.8c0,0-0.9-1-7.6,2.5c-4.3,2.2-9.4,5.4-13.9,8.2c-0.4,0.3-0.9,0.1-1.2-0.3
				c-0.3-0.4-0.2-0.9,0.2-1.2c2.5-1.8,5.5-3.9,8.6-6.1c3.1-2.2,6.1-4.3,8.6-6.1c0.9-0.7,1.2-2.1,1-2.3c-0.2-0.2-1.3-0.3-1.7-0.1
				c-8,2.6-18.5,9.5-25.7,15c-0.3,0.2-0.6,0.2-0.9,0.1c-0.3-0.1-0.5-0.4-0.5-0.7l0-0.2c-0.2-2.3-0.4-4.4,3.7-10.5
				c1.2-1.8,2.8-5.7,1.4-6.9c-0.7-0.6-1.3-0.3-3,1.7c-0.3,0.3-0.5,0.6-0.8,0.8c-3.5,3.7-6.9,7.3-10.4,11.5
				c-4.3,5.1-5.6,8.9-6.9,12.5c-1.3,3.7-2.5,7.1-6.5,11.2C442.3,677.2,415.2,697.1,409.1,698.6z"/>
		</g>
		<g>
			<path d="M480.7,660.2c-0.2,0-0.5-0.1-0.7-0.3c-0.3-0.4-0.3-0.9,0.1-1.2c3.1-2.6,4.3-7.4,2.8-11.2c-0.3-0.7-0.7-1.4-1.1-2.2
				c-0.6-1-1.2-2.1-1.5-3.3c-0.1-0.5,0.1-0.9,0.6-1.1c0.5-0.1,0.9,0.1,1.1,0.6c0.3,1,0.8,1.9,1.4,2.9c0.4,0.8,0.8,1.5,1.2,2.4
				c1.8,4.5,0.4,10-3.3,13.2C481.1,660.2,480.9,660.2,480.7,660.2z"/>
		</g>
	</g>
	<g>
		<path d="M392,741.1c-0.1,0-0.3-0.1-0.3-0.2c-1.9-12.2-0.2-25.2,4.8-36.5c0.1-0.1,0.2-0.2,0.4-0.1c0.1,0.1,0.2,0.2,0.1,0.4
			c-5,11.2-6.7,24-4.8,36.2C392.3,741,392.2,741.1,392,741.1C392,741.1,392,741.1,392,741.1z"/>
	</g>
	<g>
		<path d="M386.4,739.2c-0.1,0-0.2-0.1-0.3-0.2c-1.3-4.3-1.4-9-0.4-13.4c0-0.2,0.2-0.3,0.3-0.2c0.2,0,0.3,0.2,0.2,0.3
			c-1,4.3-0.9,8.8,0.4,13.1C386.8,738.9,386.7,739.1,386.4,739.2C386.5,739.2,386.5,739.2,386.4,739.2z"/>
	</g>
	<g>
		<path class="st8" d="M234.5,738.9c22.2,3.7,44.6,7.2,67,10.7c2,0.1,12.2,0.9,14.7,1.1c2.1,0.2,4.2-0.1,6.3-0.6
			c7.2-1.5,22.7-4.3,25.4-1.8c6.8,3.8,12.1,10.5,15.7,18.2c2,4.4,3,11,1.6,11.8c-0.9,0.5-2.1,0.5-2.8-0.4c-1.8-8.1-6.5-15.5-13-20.5
			c3,2.7,5.6,5.8,7.9,9.1c2.3,3.4,4.2,7.3,4,11.3c0,0.3-0.1,0.7-0.3,0.9c-0.5,0.6-1.5,0-1.9-0.6c-1-1.2-13.3-16.8-16.2-17.2
			c3.4,2.3,14.3,16.1,14.1,17.3c-0.1,0.6-0.3,1.1-0.8,1.5c-0.6,0.5-1.5,0.5-2.2,0.2c-0.7-0.3-1.3-0.8-1.9-1.4
			c-3.7-3.6-6.9-7.8-11.1-10.8c-2.1-1.5-4.8-2.7-7.2-1.7c3.8,2.5,7.2,5.7,9.7,9.4c0.4,0.6,0.7,1.3,0.9,2c0.3,1,0.6,2.5-0.3,3.1
			c-1.4,1-2.3,0.1-3.1-0.7c-3.4-3.5-7-6.6-10.9-9.3c-1.2-0.8-2.7-1.6-4.1-1.2c-1.2,0.4-6.9,2.4-17.4,0.6c-3.6-0.6-7.2-0.5-11.9-0.3
			c-61.7,2.8-80.5,5.3-93.2-4c-2.5-1.8-3.1-3.5-1.1-8C207.7,745.8,211.7,739.1,234.5,738.9z"/>
		<path d="M342.9,781.9c-1.1,0-1.9-0.8-2.5-1.3l-0.1-0.1c-3.5-3.6-7-6.6-10.8-9.2c-1-0.7-2.3-1.4-3.3-1.1c-2.1,0.8-8,2.3-17.8,0.6
			c-3.6-0.6-7.3-0.4-11.7-0.2c-8.2,0.4-15.8,0.8-22.5,1.1c-44.9,2.2-60,3-71.3-5.2c-3-2.2-3.4-4.5-1.4-9
			c5.4-12.3,9.6-19.2,32.9-19.5c0,0,0.1,0,0.2,0c22.5,3.8,45.1,7.3,66.9,10.7c1.6,0.1,7.1,0.5,11.2,0.9c1.5,0.1,2.8,0.2,3.4,0.3
			c2.2,0.2,4.4-0.2,6.1-0.6c6.7-1.4,22.7-4.4,26.1-1.7c6.5,3.7,12.1,10.1,16,18.6c1.7,3.7,3.6,11.7,1.2,13c-1.3,0.7-2.8,0.6-3.7-0.4
			c-0.1,0.2-0.2,0.5-0.4,0.6c-0.3,0.3-0.8,0.5-1.2,0.5c-0.8,0-1.6-0.6-2-1.2c-0.1-0.1-0.2-0.3-0.4-0.5c0,0-0.1-0.1-0.1-0.1
			c0,0.2,0,0.3,0,0.4c-0.2,0.9-0.5,1.5-1.1,2c-0.8,0.6-2,0.8-3.1,0.3c-0.9-0.3-1.5-1-2.1-1.5c-1.3-1.2-2.5-2.5-3.6-3.8
			c-2.3-2.5-4.7-5-7.4-6.9c-1.2-0.9-2.8-1.8-4.4-1.9c3.3,2.4,6,5.2,8.2,8.4c0.5,0.7,0.8,1.4,1,2.2c0.6,2,0.4,3.4-0.7,4.1
			C343.9,781.7,343.4,781.9,342.9,781.9z M326.9,768.4c1.3,0,2.6,0.7,3.7,1.5c3.9,2.7,7.5,5.8,11,9.4l0,0c0.9,0.8,1.2,1.1,2,0.5
			c0.2-0.2,0.3-0.8,0-2.1c-0.2-0.6-0.5-1.2-0.8-1.7c-2.4-3.5-5.6-6.6-9.5-9.2c-0.3-0.2-0.4-0.5-0.4-0.8c0-0.3,0.2-0.6,0.5-0.7
			c2.9-1.2,6,0.3,8,1.8c2.9,2,5.3,4.6,7.7,7.2c1.2,1.2,2.3,2.5,3.6,3.7c0.5,0.5,1,1,1.6,1.2c0.4,0.2,1,0.2,1.3-0.1
			c0.2-0.2,0.4-0.4,0.4-0.8c-0.7-2-10.6-14.5-13.7-16.5c-0.3-0.2-0.5-0.6-0.3-1c0.1-0.4,0.5-0.6,0.9-0.6c0.8,0.1,3,0.3,16.3,17
			c0.2,0.2,0.3,0.4,0.4,0.5c0.2,0.3,0.5,0.5,0.7,0.5c0-0.1,0-0.1,0-0.3c0.2-3.2-1-6.7-3.8-10.8c-2.2-3.3-4.8-6.3-7.7-8.9
			c-0.3-0.3-0.4-0.8-0.1-1.2c0.3-0.4,0.8-0.4,1.2-0.1c6.6,5.1,11.5,12.6,13.3,20.8c0.4,0.4,1.1,0.3,1.6,0c0.6-0.7,0.2-6.2-1.9-10.7
			c-3.8-8.1-9.2-14.4-15.4-17.9c-0.1,0-0.1-0.1-0.2-0.1c-1.7-1.5-11.8-0.7-24.6,2c-1.8,0.4-4.2,0.8-6.6,0.6
			c-0.7-0.1-1.9-0.2-3.5-0.3c-3.9-0.3-9.7-0.8-11.2-0.9c0,0-0.1,0-0.1,0c-21.9-3.4-44.4-6.9-66.9-10.7c-22.2,0.3-26,6.5-31.2,18.4
			c-1.9,4.3-1.2,5.5,0.8,6.9c10.8,7.8,25.7,7.1,70.2,4.9c6.7-0.3,14.3-0.7,22.5-1.1c4.5-0.2,8.3-0.4,12.1,0.3
			c9.4,1.6,15,0.1,16.9-0.6C326.1,768.5,326.5,768.4,326.9,768.4z M356,778.4L356,778.4L356,778.4z"/>
	</g>
</g>
<g>
	<g>
		<path class="st8" d="M975.7,718.2c-6.2-0.8-12.3-3.6-17-8.4c-11.5-11.5-11.5-30.2,0-41.8c10.6-10.6,27.3-11.4,38.9-2.5l9.8-9.8
			c-17-14.3-42.4-13.4-58.4,2.6c-16.9,16.9-16.9,44.3,0,61.2c7.5,7.5,17,11.6,26.8,12.5V718.2z"/>
		<path d="M975.7,732.9C975.7,732.9,975.6,732.9,975.7,732.9c-10.4-0.9-20.1-5.4-27.4-12.8c-17.2-17.2-17.2-45.2,0-62.4
			c7.9-7.9,18.3-12.4,29.4-12.9c11-0.5,21.8,3.2,30.2,10.3c0.2,0.2,0.3,0.4,0.3,0.6c0,0.2-0.1,0.5-0.3,0.7l-9.8,9.8
			c-0.3,0.3-0.8,0.3-1.2,0.1c-11.4-8.8-27.6-7.7-37.7,2.4c-5.4,5.4-8.4,12.6-8.4,20.3c0,7.7,3,14.8,8.4,20.3
			c4.5,4.5,10.2,7.3,16.5,8.1c0.4,0.1,0.8,0.4,0.8,0.9V732c0,0.2-0.1,0.5-0.3,0.6C976.1,732.8,975.9,732.9,975.7,732.9z
			 M979.6,646.6c-10.9,0-21.9,4.2-30,12.3c-16.5,16.5-16.5,43.4,0,60c6.8,6.8,15.7,11.1,25.3,12.2v-12.1c-6.4-1-12.2-3.9-16.8-8.5
			c-5.7-5.7-8.9-13.4-8.9-21.5c0-8.1,3.2-15.8,8.9-21.5c10.6-10.6,27.4-11.8,39.4-3l8.6-8.6C998.3,649.6,988.9,646.6,979.6,646.6z"
			/>
	</g>
	<g>
		<path d="M1002.9,670.9c4.1,5.3,6.2,11.7,6.1,18.1l13.7,1.6c0.4-10.4-3-21-10.1-29.5L1002.9,670.9z"/>
		<path d="M1022.8,691.4C1022.7,691.4,1022.7,691.4,1022.8,691.4l-13.8-1.6c-0.4-0.1-0.8-0.4-0.8-0.9c0-6.3-2.1-12.6-6-17.6
			c-0.3-0.3-0.2-0.8,0.1-1.2l9.8-9.8c0.2-0.2,0.4-0.3,0.7-0.3c0.2,0,0.5,0.1,0.6,0.3c7.1,8.4,10.7,19.1,10.3,30.1
			c0,0.2-0.1,0.5-0.3,0.6C1023.2,691.4,1023,691.4,1022.8,691.4z M1009.9,688.2l12,1.4c0.2-9.9-3.1-19.5-9.3-27.2l-8.6,8.6
			C1007.7,675.9,1009.8,682,1009.9,688.2z"/>
	</g>
	<g>
		<path class="st9" d="M1008,696.5c-1.3,4.8-3.8,9.4-7.6,13.2c-4.8,4.8-10.9,7.6-17.1,8.4V732c9.8-0.8,19.3-5,26.8-12.5
			c6.1-6.1,10-13.5,11.7-21.4L1008,696.5z"/>
		<path d="M983.3,732.9c-0.2,0-0.4-0.1-0.6-0.2c-0.2-0.2-0.3-0.4-0.3-0.6l0-13.8c0-0.4,0.3-0.8,0.8-0.9c6.3-0.8,12.1-3.6,16.6-8.2
			c3.6-3.6,6.1-8,7.4-12.8c0.1-0.4,0.5-0.7,0.9-0.6l13.8,1.6c0.2,0,0.5,0.2,0.6,0.4c0.1,0.2,0.2,0.5,0.1,0.7
			c-1.8,8.3-5.9,15.8-11.9,21.8C1003.4,727.4,993.7,732,983.3,732.9C983.3,732.9,983.3,732.9,983.3,732.9z M984.1,718.9l0,12.1
			c9.6-1,18.5-5.3,25.4-12.2c5.5-5.5,9.4-12.4,11.2-20l-12.1-1.4c-1.4,4.9-4.1,9.3-7.7,12.9C996.4,715,990.6,717.9,984.1,718.9z"/>
	</g>
</g>
<g>
	<g>
		
			<rect x="342.2" y="447.8" transform="matrix(0.9738 -0.2274 0.2274 0.9738 -93.3725 91.072)" class="st9" width="12.7" height="5.9"/>
		<path d="M343,455.9c-0.4,0-0.8-0.3-0.8-0.7l-1.3-5.8c-0.1-0.2,0-0.5,0.1-0.7c0.1-0.2,0.3-0.3,0.5-0.4l12.4-2.9
			c0.2-0.1,0.5,0,0.7,0.1c0.2,0.1,0.3,0.3,0.4,0.5l1.3,5.8c0.1,0.5-0.2,0.9-0.7,1l-12.4,2.9C343.2,455.9,343.1,455.9,343,455.9z
			 M342.7,450l0.9,4.1l10.7-2.5l-0.9-4.1L342.7,450z"/>
	</g>
	<g>
		<g>
			<path class="st8" d="M366.2,383.9c-4.1-17.7-22-28.5-39.7-24c-16.6,4.3-27,21-23.6,37.7c1.9,9.2,7.4,16.6,14.7,21.1
				c8,5,13.9,8.1,16.1,17.2l21.7-5.1c-2.1-9.1,1.6-14.4,6.6-22.3C366.5,401.6,368.2,392.7,366.2,383.9z"/>
			<path d="M333.6,436.9c-0.2,0-0.3,0-0.5-0.1c-0.2-0.1-0.3-0.3-0.4-0.5c-1.9-8.2-7-11.4-14.1-15.8c-0.5-0.3-1-0.6-1.5-0.9
				c-7.9-4.9-13.2-12.6-15.1-21.7c-3.5-17.3,7.2-34.3,24.3-38.7c8.8-2.3,17.8-0.9,25.6,3.7c7.7,4.7,13.1,12.1,15.2,20.9v0
				c2,8.8,0.5,17.8-4.3,25.4l-0.5,0.8c-4.8,7.5-7.9,12.4-6,20.8c0.1,0.2,0,0.5-0.1,0.7c-0.1,0.2-0.3,0.3-0.5,0.4l-21.7,5.1
				C333.8,436.9,333.7,436.9,333.6,436.9z M334.7,359.8c-2.7,0-5.3,0.3-8,1c-16.2,4.2-26.3,20.3-23,36.7c1.7,8.6,6.8,15.9,14.3,20.6
				c0.5,0.3,1,0.6,1.5,0.9c6.9,4.3,12.5,7.7,14.7,16l20.1-4.7c-1.7-8.6,1.7-14,6.4-21.3l0.5-0.8c4.6-7.2,6-15.8,4.1-24.1
				c-1.9-8.3-7-15.4-14.4-19.8C346,361.3,340.4,359.8,334.7,359.8z"/>
		</g>
	</g>
	<g>
		<path class="st9" d="M332.7,440.9l-2.4-10.1l25.7-6l2.4,10.1c1.7,7.1-2.8,14.2-9.9,15.9l0,0C341.4,452.4,334.3,448,332.7,440.9z"
			/>
		<path d="M344.5,452.2c-2.3,0-4.6-0.7-6.7-1.9c-2.9-1.8-4.9-4.6-5.7-7.9l-2.7-11.5c-0.1-0.2,0-0.5,0.1-0.7c0.1-0.2,0.3-0.3,0.5-0.4
			l25.7-6c0.5-0.1,0.9,0.2,1,0.7l2.7,11.5c1.6,6.8-2.7,13.7-9.5,15.2l-2.7,0.6C346.4,452.1,345.4,452.2,344.5,452.2z M331.3,431.4
			l2.5,10.7l0,0c0.7,2.8,2.4,5.3,4.9,6.8c2.5,1.5,5.4,2,8.3,1.4l2.7-0.6c5.9-1.4,9.5-7.3,8.2-13.1l-2.5-10.7L331.3,431.4z"/>
	</g>
	<g>
		<path d="M334.3,435c-0.1,0-0.3-0.1-0.3-0.2c0-0.2,0.1-0.3,0.2-0.3l19.8-4.6c0.2,0,0.3,0.1,0.3,0.2c0,0.2-0.1,0.3-0.2,0.3
			L334.3,435C334.4,435,334.3,435,334.3,435z"/>
	</g>
	<g>
		<path d="M327.2,404.5c-0.1,0-0.3-0.1-0.3-0.2c0-0.2,0.1-0.3,0.2-0.3l19.8-4.6c0.2,0,0.3,0.1,0.3,0.2c0,0.2-0.1,0.3-0.2,0.3
			L327.2,404.5C327.2,404.5,327.2,404.5,327.2,404.5z"/>
	</g>
	<g>
		<path class="st9" d="M324.3,347.9c-0.4,0-0.8-0.3-0.8-0.7l-2.8-12.2c-0.1-0.5,0.2-0.9,0.7-1c0.5-0.1,0.9,0.2,1,0.7l2.8,12.2
			c0.1,0.5-0.2,0.9-0.7,1C324.5,347.9,324.4,347.9,324.3,347.9z"/>
	</g>
	<g>
		<path class="st9" d="M361.4,351.8c-0.2,0-0.3,0-0.5-0.1c-0.4-0.3-0.5-0.8-0.3-1.2l6.6-10.6c0.3-0.4,0.8-0.5,1.2-0.3
			c0.4,0.3,0.5,0.8,0.3,1.2l-6.6,10.6C361.9,351.6,361.7,351.8,361.4,351.8z"/>
	</g>
	<g>
		<path class="st9" d="M381.1,379c-0.4,0-0.8-0.3-0.8-0.7c-0.1-0.5,0.2-0.9,0.7-1l12.2-2.8c0.5-0.1,0.9,0.2,1,0.7
			c0.1,0.5-0.2,0.9-0.7,1l-12.2,2.8C381.3,378.9,381.2,379,381.1,379z"/>
	</g>
	<g>
		<path class="st9" d="M294.7,367.3c-0.2,0-0.3,0-0.5-0.1l-10.6-6.6c-0.4-0.3-0.5-0.8-0.3-1.2c0.3-0.4,0.8-0.5,1.2-0.3l10.6,6.6
			c0.4,0.3,0.5,0.8,0.3,1.2C295.3,367.2,295,367.3,294.7,367.3z"/>
	</g>
	<g>
		<path class="st9" d="M276.8,403.3c-0.4,0-0.8-0.3-0.8-0.7c-0.1-0.5,0.2-0.9,0.7-1l12.2-2.8c0.5-0.1,0.9,0.2,1,0.7
			c0.1,0.5-0.2,0.9-0.7,1l-12.2,2.8C277,403.3,276.9,403.3,276.8,403.3z"/>
	</g>
	<g>
		<g>
			<path d="M338.4,429.1c-0.4,0-0.7-0.3-0.8-0.6c-0.1-0.2-6.3-22.3-18.8-29.2c-0.4-0.2-0.6-0.8-0.3-1.2c0.2-0.4,0.8-0.6,1.2-0.3
				C332.8,405,339,427,339.3,428c0.1,0.5-0.1,0.9-0.6,1.1C338.6,429.1,338.5,429.1,338.4,429.1z"/>
		</g>
		<g>
			<path d="M347.6,426.9c-0.4,0-0.8-0.3-0.9-0.7c-0.2-1-4.3-23.5,4.2-35.8c0.3-0.4,0.8-0.5,1.2-0.2c0.4,0.3,0.5,0.8,0.2,1.2
				c-8.1,11.8-3.9,34.3-3.9,34.5c0.1,0.5-0.2,0.9-0.7,1C347.7,426.9,347.7,426.9,347.6,426.9z"/>
		</g>
	</g>
	<g>
		<path d="M319.3,399.4c-0.4,0-0.8-0.3-0.8-0.7c-0.1-0.5,0.2-0.9,0.7-1c0.9-0.2,1.2-0.8,1.7-1.9c0.5-1.1,1.1-2.4,2.9-2.8
			c1.8-0.4,2.9,0.5,3.8,1.2c0.9,0.7,1.5,1.1,2.4,0.9c0.9-0.2,1.2-0.8,1.7-1.9c0.5-1.1,1.1-2.4,2.9-2.8c1.8-0.4,2.9,0.5,3.8,1.2
			c0.9,0.7,1.5,1.1,2.4,0.9c0.9-0.2,1.2-0.8,1.7-1.9c0.5-1.1,1.1-2.4,2.9-2.8c1.8-0.4,2.9,0.5,3.8,1.2c0.9,0.7,1.5,1.1,2.4,0.9
			c0.5-0.1,0.9,0.2,1,0.7c0.1,0.5-0.2,0.9-0.7,1c-1.8,0.4-2.9-0.5-3.8-1.2c-0.9-0.7-1.5-1.1-2.4-0.9c-0.9,0.2-1.2,0.8-1.7,1.9
			c-0.5,1.1-1.1,2.4-2.9,2.8c-1.8,0.4-2.9-0.5-3.8-1.2c-0.9-0.7-1.5-1.1-2.4-0.9c-0.9,0.2-1.2,0.8-1.7,1.9c-0.5,1.1-1.1,2.4-2.9,2.8
			c-1.8,0.4-2.9-0.5-3.8-1.2c-0.9-0.7-1.5-1.1-2.4-0.9c-0.9,0.2-1.2,0.8-1.7,1.9c-0.5,1.1-1.1,2.4-2.9,2.8
			C319.4,399.3,319.3,399.4,319.3,399.4z"/>
	</g>
</g>
<g>
	<g>
		<path class="st9" d="M733.6,487.4l-4.3-2.4c-2.9,0.9-4.5,1.3-7.4,2.2l-2.3,4.4c-5.4-1.3-4.7-1.1-10.2-2.5l-0.1-5
			c-2.2-2.1-3.4-3.2-5.6-5.3l-5,0.2c-1.6-5.4-1.4-4.7-3-10l4.3-2.5c0.7-2.9,1.1-4.6,1.8-7.5l-2.6-4.2c3.9-4,3.4-3.5,7.2-7.6l4.3,2.4
			c2.9-0.9,4.5-1.3,7.4-2.2l2.3-4.4c5.4,1.3,4.7,1.1,10.2,2.5l0.1,5c2.2,2.1,3.4,3.2,5.6,5.3l5-0.2c1.6,5.4,1.4,4.7,3,10l-4.3,2.5
			c-0.7,2.9-1.1,4.6-1.8,7.5l2.6,4.2C736.9,483.9,737.4,483.4,733.6,487.4z"/>
		<path d="M719.5,492.5c-0.1,0-0.1,0-0.2,0l-10.2-2.5c-0.4-0.1-0.7-0.4-0.7-0.8l-0.1-4.6l-5.1-4.8l-4.6,0.2c-0.4,0-0.8-0.2-0.9-0.6
			l-3-10c-0.1-0.4,0-0.8,0.4-1l4-2.3l1.6-6.8l-2.5-3.9c-0.2-0.3-0.2-0.8,0.1-1.1l7.2-7.6c0.3-0.3,0.7-0.4,1.1-0.2l4,2.3l6.7-2
			l2.2-4.1c0.2-0.4,0.6-0.5,1-0.4l10.2,2.5c0.4,0.1,0.7,0.4,0.7,0.8l0.1,4.6l5.1,4.8l4.6-0.2c0.4,0,0.8,0.2,0.9,0.6l3,10
			c0.1,0.4,0,0.8-0.4,1l-4,2.3l-1.6,6.8l2.5,3.9c0.2,0.3,0.2,0.8-0.1,1.1l-7.2,7.6c-0.3,0.3-0.7,0.4-1.1,0.2l-4-2.3l-6.7,2l-2.2,4.1
			C720.1,492.3,719.8,492.5,719.5,492.5z M710.2,488.4l8.8,2.1l2-3.8c0.1-0.2,0.3-0.4,0.5-0.4l7.4-2.2c0.2-0.1,0.5,0,0.7,0.1
			l3.7,2.1l6.3-6.6l-2.3-3.6c-0.1-0.2-0.2-0.4-0.1-0.7l1.8-7.5c0.1-0.2,0.2-0.4,0.4-0.5l3.7-2.2l-2.6-8.7l-4.3,0.2
			c-0.2,0-0.5-0.1-0.6-0.2l-5.6-5.3c-0.2-0.2-0.3-0.4-0.3-0.6l0-4.3L721,444l-2,3.8c-0.1,0.2-0.3,0.4-0.5,0.4l-7.4,2.2
			c-0.2,0.1-0.5,0-0.7-0.1l-3.7-2.1l-6.3,6.6l2.3,3.6c0.1,0.2,0.2,0.4,0.1,0.7l-1.8,7.5c-0.1,0.2-0.2,0.4-0.4,0.5l-3.7,2.2l2.6,8.7
			l4.3-0.2c0.2,0,0.5,0.1,0.6,0.2l5.6,5.3c0.2,0.2,0.3,0.4,0.3,0.6L710.2,488.4z"/>
	</g>
	<g>
		<path class="st0" d="M729.8,467.3c0,5.4-4.4,9.8-9.8,9.8c-5.4,0-9.8-4.4-9.8-9.8c0-5.4,4.4-9.8,9.8-9.8
			C725.4,457.5,729.8,461.9,729.8,467.3z"/>
		<path d="M720,478c-5.9,0-10.7-4.8-10.7-10.7s4.8-10.7,10.7-10.7c5.9,0,10.7,4.8,10.7,10.7S725.9,478,720,478z M720,458.4
			c-4.9,0-8.9,4-8.9,8.9s4,8.9,8.9,8.9c4.9,0,8.9-4,8.9-8.9S724.9,458.4,720,458.4z"/>
	</g>
</g>
<g>
	<g>
		<path class="st9" d="M133.1,688.9l4.3-2.5c-1.6-5.4-1.4-4.7-3-10l-5,0.2c-2.2-2.1-3.4-3.2-5.6-5.3l-0.1-5
			c-5.4-1.3-4.7-1.1-10.2-2.5l-2.3,4.4c-2.9,0.9-4.5,1.3-7.4,2.2l-4.3-2.4c-3.9,4-3.4,3.5-7.2,7.6l2.6,4.2c-0.7,2.9-1.1,4.6-1.8,7.5
			l-4.3,2.5c1.6,5.4,1.4,4.7,3,10l5-0.2c2.2,2.1,3.4,3.2,5.6,5.3l0.1,5c5.4,1.3,4.7,1.1,10.2,2.5l2.3-4.4c2.9-0.9,4.5-1.3,7.4-2.2
			l4.3,2.4c3.9-4,3.4-3.5,7.2-7.6l-2.6-4.2C132,693.4,132.3,691.8,133.1,688.9z M113.1,697.8c-5.4,0-9.8-4.4-9.8-9.8
			c0-5.4,4.4-9.8,9.8-9.8c5.4,0,9.8,4.4,9.8,9.8C122.9,693.4,118.5,697.8,113.1,697.8z"/>
		<path d="M112.6,713.2c-0.1,0-0.1,0-0.2,0l-10.2-2.5c-0.4-0.1-0.7-0.4-0.7-0.8l-0.1-4.6l-5.1-4.8l-4.6,0.2c-0.4,0-0.8-0.2-0.9-0.6
			l-3-10c-0.1-0.4,0-0.8,0.4-1l4-2.3l1.6-6.8l-2.5-3.9c-0.2-0.3-0.2-0.8,0.1-1.1l7.2-7.6c0.3-0.3,0.7-0.4,1.1-0.2l4,2.3l6.7-2
			l2.2-4.1c0.2-0.4,0.6-0.5,1-0.4l10.2,2.5c0.4,0.1,0.7,0.4,0.7,0.8l0.1,4.6l5.1,4.8l4.6-0.2c0.4,0,0.8,0.2,0.9,0.6l3,10
			c0.1,0.4,0,0.8-0.4,1l-4,2.3l-1.6,6.8l2.5,3.9c0.2,0.3,0.2,0.8-0.1,1.1l-7.2,7.6c-0.3,0.3-0.7,0.4-1.1,0.2l-4-2.3l-6.7,2l-2.2,4.1
			C113.2,713,112.9,713.2,112.6,713.2z M103.3,709.1l8.8,2.1l2-3.8c0.1-0.2,0.3-0.4,0.5-0.4l7.4-2.2c0.2-0.1,0.5,0,0.7,0.1l3.7,2.1
			l6.3-6.6l-2.3-3.6c-0.1-0.2-0.2-0.4-0.1-0.7l1.8-7.5c0.1-0.2,0.2-0.4,0.4-0.5l3.7-2.2l-2.6-8.7l-4.3,0.2c-0.2,0-0.5-0.1-0.6-0.2
			l-5.6-5.3c-0.2-0.2-0.3-0.4-0.3-0.6l0-4.3l-8.8-2.1l-2,3.8c-0.1,0.2-0.3,0.4-0.5,0.4l-7.4,2.2c-0.2,0.1-0.5,0-0.7-0.1l-3.7-2.1
			l-6.3,6.6l2.3,3.6c0.1,0.2,0.2,0.4,0.1,0.7l-1.8,7.5c-0.1,0.2-0.2,0.4-0.4,0.5l-3.7,2.2l2.6,8.7l4.3-0.2c0.2,0,0.5,0.1,0.6,0.2
			l5.6,5.3c0.2,0.2,0.3,0.4,0.3,0.6L103.3,709.1z M113.1,698.7c-5.9,0-10.7-4.8-10.7-10.7c0-5.9,4.8-10.7,10.7-10.7
			c5.9,0,10.7,4.8,10.7,10.7C123.8,693.9,119,698.7,113.1,698.7z M113.1,679.1c-4.9,0-8.9,4-8.9,8.9c0,4.9,4,8.9,8.9,8.9
			c4.9,0,8.9-4,8.9-8.9C122,683.1,118,679.1,113.1,679.1z"/>
	</g>
</g>
<g>
	<circle class="st9" cx="670.1" cy="496.7" r="4.3"/>
	<path class="st9" d="M670.1,501.8c-2.9,0-5.2-2.3-5.2-5.2s2.3-5.2,5.2-5.2c2.9,0,5.2,2.3,5.2,5.2S673,501.8,670.1,501.8z
		 M670.1,493.2c-1.9,0-3.4,1.5-3.4,3.4s1.5,3.4,3.4,3.4c1.9,0,3.4-1.5,3.4-3.4S672,493.2,670.1,493.2z"/>
</g>
<g>
	<circle cx="1052.7" cy="631.8" r="4.3"/>
	<path d="M1052.7,637c-2.9,0-5.2-2.3-5.2-5.2c0-2.9,2.3-5.2,5.2-5.2c2.9,0,5.2,2.3,5.2,5.2C1057.9,634.7,1055.5,637,1052.7,637z
		 M1052.7,628.4c-1.9,0-3.4,1.5-3.4,3.4c0,1.9,1.5,3.4,3.4,3.4c1.9,0,3.4-1.5,3.4-3.4C1056.1,629.9,1054.6,628.4,1052.7,628.4z"/>
</g>
<g>
	<path d="M141.9,621.4c2.9,0,5.2,2.3,5.2,5.2c0,2.9-2.3,5.2-5.2,5.2c-2.9,0-5.2-2.3-5.2-5.2C136.6,623.7,139,621.4,141.9,621.4z"/>
	<path d="M141.9,632.7c-3.4,0-6.1-2.7-6.1-6.1c0-3.4,2.7-6.1,6.1-6.1c3.4,0,6.1,2.7,6.1,6.1C148,630,145.2,632.7,141.9,632.7z
		 M141.9,622.3c-2.4,0-4.4,2-4.4,4.4c0,2.4,2,4.4,4.4,4.4c2.4,0,4.4-2,4.4-4.4C146.2,624.2,144.3,622.3,141.9,622.3z"/>
</g>
<g>
	<path d="M462.9,439c1.2,0,2.1,0.9,2.1,2.1c0,1.2-0.9,2.1-2.1,2.1c-1.2,0-2.1-0.9-2.1-2.1C460.8,440,461.8,439,462.9,439z"/>
	<path d="M462.9,444.1c-1.6,0-3-1.3-3-3c0-1.6,1.3-3,3-3s3,1.3,3,3C465.9,442.8,464.6,444.1,462.9,444.1z M462.9,439.9
		c-0.7,0-1.2,0.5-1.2,1.2c0,0.7,0.5,1.2,1.2,1.2c0.7,0,1.2-0.5,1.2-1.2C464.2,440.5,463.6,439.9,462.9,439.9z"/>
</g>
<g>
	<path d="M1035.7,753.1c1.2,0,2.1,0.9,2.1,2.1c0,1.2-0.9,2.1-2.1,2.1c-1.2,0-2.1-0.9-2.1-2.1
		C1033.6,754.1,1034.5,753.1,1035.7,753.1z"/>
	<path d="M1035.7,758.2c-1.6,0-3-1.3-3-3s1.3-3,3-3c1.6,0,3,1.3,3,3S1037.3,758.2,1035.7,758.2z M1035.7,754c-0.7,0-1.2,0.5-1.2,1.2
		s0.5,1.2,1.2,1.2c0.7,0,1.2-0.5,1.2-1.2S1036.4,754,1035.7,754z"/>
</g>
<g>
	<path d="M383.6,569c1.2,0,2.1,0.9,2.1,2.1c0,1.2-0.9,2.1-2.1,2.1c-1.2,0-2.1-0.9-2.1-2.1C381.5,569.9,382.4,569,383.6,569z"/>
	<path d="M383.6,574c-1.6,0-3-1.3-3-3c0-1.6,1.3-3,3-3c1.6,0,3,1.3,3,3C386.5,572.7,385.2,574,383.6,574z M383.6,569.9
		c-0.7,0-1.2,0.5-1.2,1.2c0,0.7,0.5,1.2,1.2,1.2c0.7,0,1.2-0.5,1.2-1.2C384.8,570.4,384.3,569.9,383.6,569.9z"/>
</g>
<g>
	<circle class="st8" cx="473.7" cy="505.9" r="5.8"/>
	<path d="M473.7,512.6c-3.7,0-6.7-3-6.7-6.7c0-3.7,3-6.7,6.7-6.7s6.7,3,6.7,6.7C480.4,509.6,477.4,512.6,473.7,512.6z M473.7,500.9
		c-2.7,0-5,2.2-5,5c0,2.7,2.2,5,5,5s5-2.2,5-5C478.7,503.1,476.5,500.9,473.7,500.9z"/>
</g>
<g>
	<path class="st8" d="M829.3,435c0-3.2,2.6-5.8,5.8-5.8c3.2,0,5.8,2.6,5.8,5.8c0,3.2-2.6,5.8-5.8,5.8
		C831.9,440.8,829.3,438.2,829.3,435z"/>
	<path d="M835.1,441.7c-3.7,0-6.7-3-6.7-6.7c0-3.7,3-6.7,6.7-6.7s6.7,3,6.7,6.7C841.8,438.7,838.8,441.7,835.1,441.7z M835.1,430
		c-2.7,0-5,2.2-5,5c0,2.7,2.2,5,5,5c2.7,0,5-2.2,5-5C840,432.2,837.8,430,835.1,430z"/>
</g>
<g>
	<circle class="st8" cx="157.5" cy="733.5" r="3.7"/>
	<path d="M157.5,738.2c-2.5,0-4.6-2.1-4.6-4.6s2.1-4.6,4.6-4.6c2.5,0,4.6,2.1,4.6,4.6S160.1,738.2,157.5,738.2z M157.5,730.7
		c-1.6,0-2.9,1.3-2.9,2.9c0,1.6,1.3,2.9,2.9,2.9c1.6,0,2.9-1.3,2.9-2.9C160.4,732,159.1,730.7,157.5,730.7z"/>
</g>
<g>
	<path d="M890,518.2C890,518.2,890,518.2,890,518.2c-2.5-0.1-4.9-0.5-7.1-1.4c-0.5-0.2-0.7-0.7-0.5-1.1c0.2-0.5,0.7-0.7,1.1-0.5
		c2.1,0.8,4.3,1.2,6.5,1.3c0.5,0,0.9,0.4,0.9,0.9C890.9,517.8,890.5,518.2,890,518.2z M896.9,517.2c-0.4,0-0.7-0.2-0.8-0.6
		c-0.1-0.5,0.1-1,0.6-1.1c2.1-0.7,4.1-1.7,5.9-3.1c0.4-0.3,0.9-0.2,1.2,0.2c0.3,0.4,0.2,0.9-0.2,1.2c-1.9,1.5-4.1,2.6-6.4,3.4
		C897,517.2,897,517.2,896.9,517.2z M877.2,513.3c-0.2,0-0.4-0.1-0.6-0.2c-1.9-1.6-3.4-3.4-4.7-5.5c-0.2-0.4-0.1-1,0.3-1.2
		c0.4-0.2,0.9-0.1,1.2,0.3c1.1,1.9,2.6,3.6,4.3,5.1c0.4,0.3,0.4,0.9,0.1,1.2C877.7,513.2,877.4,513.3,877.2,513.3z M907.8,508.9
		c-0.2,0-0.3,0-0.5-0.1c-0.4-0.3-0.5-0.8-0.2-1.2c1.2-1.9,2.1-3.9,2.7-6.1c0.1-0.5,0.6-0.8,1.1-0.6c0.5,0.1,0.8,0.6,0.6,1.1
		c-0.6,2.4-1.6,4.6-2.9,6.6C908.3,508.7,908,508.9,907.8,508.9z M870.3,501.5c-0.4,0-0.8-0.3-0.9-0.7c-0.3-1.3-0.4-2.7-0.4-4.1
		c0-2.4,0.4-4.9,1.2-7.1c0.2-0.5,0.7-0.7,1.1-0.5c0.5,0.2,0.7,0.7,0.5,1.1c-0.7,2.1-1.1,4.3-1.1,6.6c0,1.3,0.1,2.5,0.4,3.8
		c0.1,0.5-0.2,0.9-0.7,1C870.4,501.5,870.3,501.5,870.3,501.5z M911.1,495.6c-0.4,0-0.8-0.3-0.9-0.8c-0.2-2.2-0.8-4.4-1.7-6.4
		c-0.2-0.4,0-1,0.4-1.2c0.4-0.2,1,0,1.2,0.4c1,2.2,1.7,4.6,1.9,7C912,495.1,911.6,495.5,911.1,495.6
		C911.1,495.6,911.1,495.6,911.1,495.6z M874.5,484.6c-0.2,0-0.4-0.1-0.5-0.2c-0.4-0.3-0.4-0.9-0.1-1.2c1.5-1.9,3.4-3.5,5.4-4.8
		c0.4-0.3,0.9-0.1,1.2,0.3c0.3,0.4,0.1,0.9-0.3,1.2c-1.9,1.2-3.6,2.7-5,4.4C875,484.5,874.7,484.6,874.5,484.6z M905.3,483.2
		c-0.2,0-0.5-0.1-0.6-0.3c-1.6-1.6-3.4-2.9-5.4-3.9c-0.4-0.2-0.6-0.7-0.4-1.2c0.2-0.4,0.7-0.6,1.2-0.4c2.2,1.1,4.1,2.5,5.9,4.3
		c0.3,0.3,0.3,0.9,0,1.2C905.7,483.1,905.5,483.2,905.3,483.2z M886.1,477.4c-0.4,0-0.8-0.3-0.9-0.7c-0.1-0.5,0.2-0.9,0.7-1
		c2.4-0.5,4.8-0.6,7.2-0.3c0.5,0.1,0.8,0.5,0.8,1c-0.1,0.5-0.5,0.8-1,0.8c-2.2-0.3-4.5-0.2-6.6,0.3
		C886.2,477.4,886.2,477.4,886.1,477.4z"/>
</g>
<g>
	<path d="M487.3,732.6c-0.9,0-1.9-0.1-2.8-0.4c-0.5-0.1-0.7-0.6-0.6-1.1c0.1-0.5,0.6-0.7,1.1-0.6c0.7,0.2,1.5,0.3,2.3,0.3
		c1.4,0,2.7-0.3,3.9-0.9c0.4-0.2,1,0,1.2,0.4c0.2,0.4,0,1-0.4,1.2C490.5,732.2,488.9,732.6,487.3,732.6z M479.2,728.3
		c-0.3,0-0.6-0.1-0.7-0.4c-1.2-1.8-1.9-3.9-1.9-6c0-2.6,0.9-5,2.6-7c0.3-0.4,0.9-0.4,1.2-0.1c0.4,0.3,0.4,0.9,0.1,1.2
		c-1.4,1.6-2.2,3.7-2.2,5.8c0,1.8,0.5,3.6,1.6,5.1c0.3,0.4,0.2,0.9-0.2,1.2C479.5,728.3,479.3,728.3,479.2,728.3z M496.3,726.7
		c-0.1,0-0.2,0-0.3-0.1c-0.4-0.2-0.6-0.7-0.5-1.1c0.5-1.1,0.7-2.3,0.7-3.6c0-0.9-0.1-1.8-0.4-2.6c-0.1-0.5,0.1-0.9,0.6-1.1
		c0.5-0.1,0.9,0.1,1.1,0.6c0.3,1,0.5,2.1,0.5,3.2c0,1.5-0.3,2.9-0.9,4.3C496.9,726.5,496.6,726.7,496.3,726.7z M492.5,714.5
		c-0.2,0-0.3,0-0.5-0.1c-1.4-0.9-3.1-1.4-4.8-1.4c-0.4,0-0.9,0-1.3,0.1c-0.5,0.1-0.9-0.3-1-0.7c-0.1-0.5,0.3-0.9,0.7-1
		c0.5-0.1,1.1-0.1,1.6-0.1c2,0,4,0.6,5.7,1.6c0.4,0.3,0.5,0.8,0.3,1.2C493.1,714.3,492.8,714.5,492.5,714.5z"/>
</g>
<g>
	<path d="M76.2,624.9C76.2,624.9,76.2,624.9,76.2,624.9c-0.9,0-1.9-0.1-2.8-0.4c-0.5-0.1-0.7-0.6-0.6-1.1c0.1-0.5,0.6-0.7,1.1-0.6
		c0.7,0.2,1.5,0.3,2.3,0.3c0,0,0,0,0,0c1.4,0,2.7-0.3,3.9-0.9c0.4-0.2,1,0,1.2,0.4c0.2,0.4,0,1-0.4,1.2
		C79.4,624.5,77.9,624.9,76.2,624.9z M68.1,620.6c-0.3,0-0.6-0.1-0.7-0.4c-1.2-1.8-1.9-3.9-1.9-6c0-2.6,0.9-5,2.6-7
		c0.3-0.4,0.9-0.4,1.2-0.1c0.4,0.3,0.4,0.9,0.1,1.2c-1.4,1.6-2.2,3.7-2.2,5.8c0,1.8,0.5,3.6,1.6,5.1c0.3,0.4,0.2,0.9-0.2,1.2
		C68.5,620.6,68.3,620.6,68.1,620.6z M85.2,619c-0.1,0-0.2,0-0.3-0.1c-0.4-0.2-0.6-0.7-0.5-1.1c0.5-1.1,0.7-2.3,0.7-3.6
		c0-0.9-0.1-1.8-0.4-2.6c-0.1-0.5,0.1-0.9,0.6-1.1c0.5-0.1,0.9,0.1,1.1,0.6c0.3,1,0.5,2.1,0.5,3.2c0,1.5-0.3,2.9-0.9,4.3
		C85.9,618.8,85.6,619,85.2,619z M81.4,606.7c-0.2,0-0.3,0-0.5-0.1c-1.4-0.9-3.1-1.4-4.8-1.4c-0.4,0-0.9,0-1.3,0.1
		c-0.5,0.1-0.9-0.3-1-0.7c-0.1-0.5,0.3-0.9,0.7-1c0.5-0.1,1.1-0.1,1.6-0.1c2,0,4,0.6,5.7,1.6c0.4,0.3,0.5,0.8,0.3,1.2
		C82,606.6,81.7,606.7,81.4,606.7z"/>
</g>
<g>
	<path class="st8" d="M603,359.5c-0.9,0-1.9-0.1-2.8-0.4c-0.5-0.1-0.7-0.6-0.6-1.1c0.1-0.5,0.6-0.7,1.1-0.6c0.7,0.2,1.5,0.3,2.3,0.3
		c1.4,0,2.7-0.3,3.9-0.9c0.4-0.2,1,0,1.2,0.4c0.2,0.4,0,1-0.4,1.2C606.2,359.1,604.6,359.5,603,359.5z M594.9,355.2
		c-0.3,0-0.6-0.1-0.7-0.4c-1.2-1.8-1.9-3.9-1.9-6c0-2.6,0.9-5,2.6-7c0.3-0.4,0.9-0.4,1.2-0.1c0.4,0.3,0.4,0.9,0.1,1.2
		c-1.4,1.6-2.2,3.7-2.2,5.8c0,1.8,0.5,3.6,1.6,5.1c0.3,0.4,0.2,0.9-0.2,1.2C595.2,355.2,595.1,355.2,594.9,355.2z M612,353.6
		c-0.1,0-0.2,0-0.3-0.1c-0.4-0.2-0.6-0.7-0.5-1.1c0.5-1.1,0.7-2.3,0.7-3.6c0-0.9-0.1-1.8-0.4-2.6c-0.1-0.5,0.1-0.9,0.6-1.1
		c0.5-0.1,0.9,0.1,1.1,0.6c0.3,1,0.5,2.1,0.5,3.2c0,1.5-0.3,2.9-0.9,4.3C612.7,353.4,612.3,353.6,612,353.6z M608.2,341.3
		c-0.2,0-0.3,0-0.5-0.1c-1.4-0.9-3.1-1.4-4.8-1.4c0,0,0,0,0,0c-0.4,0-0.9,0-1.3,0.1c-0.5,0.1-0.9-0.3-1-0.7c-0.1-0.5,0.3-0.9,0.7-1
		c0.5-0.1,1.1-0.1,1.6-0.1c0,0,0,0,0,0c2,0,4,0.6,5.7,1.6c0.4,0.3,0.5,0.8,0.3,1.2C608.8,341.2,608.5,341.3,608.2,341.3z"/>
</g>
<g>
	<g>
		<path class="st8" d="M769.8,270.2h-131c-3.7,0-6.6,3.3-6,7l7.5,49.2c0.5,3,3,5.2,6,5.2h7.4L654,359l18.8-27.5h89.4
			c3,0,5.6-2.2,6-5.2l7.5-49.2C776.4,273.5,773.5,270.2,769.8,270.2z"/>
		<path d="M654,359.9c-0.1,0-0.2,0-0.3,0c-0.4-0.1-0.6-0.4-0.6-0.8l-0.2-26.7h-6.5c-3.5,0-6.4-2.5-6.9-5.9l-7.5-49.2
			c-0.3-2,0.3-4,1.6-5.6c1.3-1.5,3.2-2.4,5.3-2.4h131c2,0,4,0.9,5.3,2.4c1.3,1.5,1.9,3.6,1.6,5.6l-7.5,49.2
			c-0.5,3.4-3.4,5.9-6.9,5.9h-89l-18.5,27.2C654.6,359.8,654.3,359.9,654,359.9z M638.8,271c-1.5,0-3,0.7-4,1.8
			c-1,1.2-1.4,2.7-1.2,4.2l7.5,49.2c0.4,2.6,2.6,4.4,5.2,4.4h7.4c0.5,0,0.9,0.4,0.9,0.9l0.2,24.8l17.2-25.2c0.2-0.2,0.4-0.4,0.7-0.4
			h89.4c2.6,0,4.8-1.9,5.2-4.4l7.5-49.2c0.2-1.5-0.2-3-1.2-4.2c-1-1.2-2.4-1.8-4-1.8H638.8z"/>
	</g>
</g>
<g>
	<g>
		<path class="st8" d="M1031.7,539.7h-131c-3.7,0-6.6,3.3-6,7l7.5,49.2c0.5,3,3,5.2,6,5.2h7.4l0.2,27.5l18.8-27.5h89.4
			c3,0,5.6-2.2,6-5.2l7.5-49.2C1038.2,543,1035.4,539.7,1031.7,539.7z"/>
		<path d="M915.9,629.4c-0.1,0-0.2,0-0.3,0c-0.4-0.1-0.6-0.4-0.6-0.8l-0.2-26.7h-6.5c-3.5,0-6.4-2.5-6.9-5.9l-7.5-49.2
			c-0.3-2,0.3-4,1.6-5.6c1.3-1.5,3.2-2.4,5.3-2.4h131c2,0,4,0.9,5.3,2.4c1.3,1.5,1.9,3.6,1.6,5.6L1031,596c-0.5,3.4-3.4,5.9-6.9,5.9
			h-89L916.6,629C916.4,629.3,916.2,629.4,915.9,629.4z M900.7,540.5c-1.5,0-3,0.7-4,1.8c-1,1.2-1.4,2.7-1.2,4.2l7.5,49.2
			c0.4,2.6,2.6,4.4,5.2,4.4h7.4c0.5,0,0.9,0.4,0.9,0.9l0.2,24.8l17.2-25.2c0.2-0.2,0.4-0.4,0.7-0.4h89.4c2.6,0,4.8-1.9,5.2-4.4
			l7.5-49.2c0.2-1.5-0.2-3-1.2-4.2c-1-1.2-2.4-1.8-4-1.8H900.7z"/>
	</g>
</g>
<g>
	<g>
		<path class="st8" d="M85.3,496.9h131c3.7,0,6.6,3.3,6,7l-7.5,49.2c-0.5,3-3,5.2-6,5.2h-7.4l-0.2,27.5l-18.8-27.5H92.8
			c-3,0-5.6-2.2-6-5.2l-7.5-49.2C78.7,500.2,81.5,496.9,85.3,496.9z"/>
		<path d="M201,586.7c-0.3,0-0.6-0.1-0.7-0.4l-18.5-27.2h-89c-3.5,0-6.4-2.5-6.9-5.9L78.4,504c-0.3-2,0.3-4,1.6-5.6
			c1.3-1.5,3.2-2.4,5.3-2.4h131c2,0,4,0.9,5.3,2.4c1.3,1.5,1.9,3.6,1.6,5.6l-7.5,49.2c-0.5,3.4-3.4,5.9-6.9,5.9h-6.5l-0.2,26.7
			c0,0.4-0.3,0.7-0.6,0.8C201.2,586.6,201.1,586.7,201,586.7z M85.3,497.8c-1.5,0-3,0.7-4,1.8c-1,1.2-1.4,2.7-1.2,4.2l7.5,49.2
			c0.4,2.6,2.6,4.4,5.2,4.4h89.4c0.3,0,0.6,0.1,0.7,0.4l17.2,25.2l0.2-24.8c0-0.5,0.4-0.9,0.9-0.9h7.4c2.6,0,4.8-1.9,5.2-4.4
			l7.5-49.2c0.2-1.5-0.2-3-1.2-4.2c-1-1.2-2.4-1.8-4-1.8H85.3z"/>
	</g>
</g>
<g>
	<path class="st0" d="M732.2,308.4c-2,0-4.1-0.3-6.1-0.9c-3.2-1-5.9-2.9-7.8-5.3c-2.5,1.8-5.5,3.2-8.8,4.2c-3.8,1.1-9.5,2-14.8-0.2
		c-2.4-1-4.5-2.7-6-4.6c-7.8,4.7-17.7,5.8-26.3,2.8c-0.5-0.2-0.7-0.7-0.5-1.1c0.2-0.5,0.7-0.7,1.1-0.5c8.2,2.8,17.4,1.8,24.8-2.6
		c-1-1.8-1.6-3.8-1.6-5.8c0-2.1,1-4.2,2.4-5.5c1-0.9,2.2-1.2,3.4-1c1.1,0.2,2.1,0.9,2.8,1.9c0.8,1.3,1.1,3,0.8,4.4
		c-0.6,2.7-2.8,4.5-4.4,5.7c-0.3,0.2-0.7,0.5-1,0.7c1.3,1.7,3.1,3.1,5.2,4c4.8,2,10.1,1.2,13.6,0.2c3.1-0.9,5.9-2.2,8.2-3.9
		c-1-1.7-1.7-3.5-1.9-5.4c-0.3-2.4,0.7-5.1,2.4-6.5c1.1-0.9,2.5-1.3,3.8-0.9c2.3,0.7,3.4,3.2,3.3,5.3c-0.1,1.7-1,3.5-2.6,5.4
		c-0.8,0.9-1.6,1.7-2.5,2.5c1.7,2.1,4.2,3.9,7,4.7c5.6,1.8,11.4,0.4,15.2-1.1c0.5-0.2,1,0,1.1,0.5c0.2,0.4,0,1-0.5,1.1
		C739.7,307.4,736.1,308.4,732.2,308.4z M720.4,289.6c-0.5,0-1.1,0.2-1.6,0.6c-1.2,1-2,3.2-1.8,5c0.2,1.6,0.7,3.1,1.6,4.5
		c0.8-0.7,1.5-1.4,2.2-2.2c1.4-1.6,2.1-3,2.2-4.4c0.1-1.4-0.6-3.1-2-3.5C720.9,289.6,720.7,289.6,720.4,289.6z M691.3,289.5
		c-0.6,0-1.1,0.2-1.6,0.7c-1.1,0.9-1.8,2.6-1.8,4.1c0,1.7,0.5,3.3,1.3,4.9c0.3-0.2,0.6-0.4,0.9-0.7c2.2-1.6,3.4-3.1,3.8-4.7
		c0.2-1,0-2.2-0.5-3.1c-0.3-0.5-0.8-1-1.7-1.2C691.6,289.5,691.4,289.5,691.3,289.5z"/>
</g>
<g>
	<g>
		<path d="M124.1,526.8c0-1.3,1.1-2.3,2.3-2.3c1.3,0,2.3,1.1,2.3,2.3c0,1.3-1.1,2.3-2.3,2.3C125.2,529.2,124.1,528.1,124.1,526.8z"
			/>
		<path d="M126.5,530c-1.8,0-3.2-1.4-3.2-3.2c0-1.8,1.4-3.2,3.2-3.2c1.8,0,3.2,1.4,3.2,3.2C129.7,528.6,128.3,530,126.5,530z
			 M126.5,525.3c-0.8,0-1.5,0.7-1.5,1.5c0,0.8,0.7,1.5,1.5,1.5c0.8,0,1.5-0.7,1.5-1.5C128,526,127.3,525.3,126.5,525.3z"/>
	</g>
	<g>
		<circle cx="150.4" cy="526.8" r="2.3"/>
		<path d="M150.4,530c-1.8,0-3.2-1.4-3.2-3.2c0-1.8,1.4-3.2,3.2-3.2c1.8,0,3.2,1.4,3.2,3.2C153.6,528.6,152.2,530,150.4,530z
			 M150.4,525.3c-0.8,0-1.5,0.7-1.5,1.5c0,0.8,0.7,1.5,1.5,1.5c0.8,0,1.5-0.7,1.5-1.5C151.9,526,151.2,525.3,150.4,525.3z"/>
	</g>
	<g>
		<path d="M171.9,526.8c0-1.3,1.1-2.3,2.3-2.3s2.3,1.1,2.3,2.3c0,1.3-1.1,2.3-2.3,2.3S171.9,528.1,171.9,526.8z"/>
		<path d="M174.3,530c-1.8,0-3.2-1.4-3.2-3.2c0-1.8,1.4-3.2,3.2-3.2s3.2,1.4,3.2,3.2C177.5,528.6,176,530,174.3,530z M174.3,525.3
			c-0.8,0-1.5,0.7-1.5,1.5c0,0.8,0.7,1.5,1.5,1.5c0.8,0,1.5-0.7,1.5-1.5C175.7,526,175.1,525.3,174.3,525.3z"/>
	</g>
</g>
<g>
	<path class="st0" d="M995,563.1h-59.5c-0.5,0-0.9-0.4-0.9-0.9c0-0.5,0.4-0.9,0.9-0.9H995c0.5,0,0.9,0.4,0.9,0.9
		C995.8,562.7,995.5,563.1,995,563.1z"/>
</g>
<g>
	<path class="st0" d="M986.6,576.2h-41.8c-0.5,0-0.9-0.4-0.9-0.9c0-0.5,0.4-0.9,0.9-0.9h41.8c0.5,0,0.9,0.4,0.9,0.9
		C987.5,575.8,987.1,576.2,986.6,576.2z"/>
</g>
</svg>
